<mxfile host="app.diagrams.net" modified="2020-09-24T04:18:09.735Z" agent="5.0 (Windows)" etag="AksrPph7Z1B5zhQNF5q7" version="13.7.5" type="github" pages="7">
  <diagram id="aC33ARPKNdBDLeKjjG60" name="revised-diagram">
    <mxGraphModel dx="1038" dy="547" grid="1" gridSize="10" guides="1" tooltips="1" connect="1" arrows="1" fold="1" page="1" pageScale="1" pageWidth="850" pageHeight="1100" math="0" shadow="0">
      <root>
        <mxCell id="mZd0HvATRs0XCswhsqKQ-0" />
        <mxCell id="mZd0HvATRs0XCswhsqKQ-1" parent="mZd0HvATRs0XCswhsqKQ-0" />
        <mxCell id="D3ww4tIf707H9IPHK7wI-0" value="&lt;div style=&quot;font-size: 14px&quot;&gt;Specific idea in specific tab:&lt;br&gt;1. Basic Upvote/downvote&lt;/div&gt;&lt;div style=&quot;font-size: 14px&quot;&gt;2. Choose or Create&lt;/div&gt;&lt;div style=&quot;font-size: 14px&quot;&gt;3. Choose and Vote&lt;/div&gt;&lt;div style=&quot;font-size: 14px&quot;&gt;4. Vote and See&lt;/div&gt;&lt;div style=&quot;font-size: 14px&quot;&gt;&lt;br&gt;&lt;/div&gt;&lt;div style=&quot;font-size: 14px&quot;&gt;This example is idea 1&lt;br style=&quot;font-size: 14px&quot;&gt;&lt;/div&gt;" style="rounded=0;whiteSpace=wrap;html=1;fontSize=14;fillColor=none;align=left;verticalAlign=top;" parent="mZd0HvATRs0XCswhsqKQ-1" vertex="1">
          <mxGeometry x="130" y="400" width="690" height="730" as="geometry" />
        </mxCell>
        <mxCell id="GJkrWsHs2sDoMX8i2nbH-12" value="" style="edgeStyle=orthogonalEdgeStyle;rounded=1;orthogonalLoop=1;jettySize=auto;html=1;strokeColor=#FF0000;exitX=0.5;exitY=1;exitDx=0;exitDy=0;" parent="mZd0HvATRs0XCswhsqKQ-1" source="GJkrWsHs2sDoMX8i2nbH-2" target="GJkrWsHs2sDoMX8i2nbH-4" edge="1">
          <mxGeometry relative="1" as="geometry" />
        </mxCell>
        <mxCell id="GJkrWsHs2sDoMX8i2nbH-2" value="" style="ellipse;html=1;shape=startState;fillColor=#000000;strokeColor=#ff0000;" parent="mZd0HvATRs0XCswhsqKQ-1" vertex="1">
          <mxGeometry x="425" y="60" width="30" height="30" as="geometry" />
        </mxCell>
        <mxCell id="GJkrWsHs2sDoMX8i2nbH-3" value="" style="edgeStyle=orthogonalEdgeStyle;html=1;verticalAlign=bottom;endArrow=open;endSize=8;strokeColor=#ff0000;entryX=0.5;entryY=0;entryDx=0;entryDy=0;" parent="mZd0HvATRs0XCswhsqKQ-1" source="GJkrWsHs2sDoMX8i2nbH-2" target="GJkrWsHs2sDoMX8i2nbH-4" edge="1">
          <mxGeometry relative="1" as="geometry">
            <mxPoint x="440" y="120" as="targetPoint" />
          </mxGeometry>
        </mxCell>
        <mxCell id="GJkrWsHs2sDoMX8i2nbH-4" value="has account?" style="rhombus;whiteSpace=wrap;html=1;fillColor=#ffffc0;strokeColor=#ff0000;" parent="mZd0HvATRs0XCswhsqKQ-1" vertex="1">
          <mxGeometry x="430" y="110" width="20" height="20" as="geometry" />
        </mxCell>
        <mxCell id="GJkrWsHs2sDoMX8i2nbH-5" value="no" style="edgeStyle=orthogonalEdgeStyle;html=1;align=left;verticalAlign=bottom;endArrow=open;endSize=8;strokeColor=#ff0000;entryX=0.5;entryY=0;entryDx=0;entryDy=0;" parent="mZd0HvATRs0XCswhsqKQ-1" source="GJkrWsHs2sDoMX8i2nbH-4" target="GJkrWsHs2sDoMX8i2nbH-9" edge="1">
          <mxGeometry x="-0.3333" y="10" relative="1" as="geometry">
            <mxPoint x="580" y="140" as="targetPoint" />
            <Array as="points">
              <mxPoint x="600" y="120" />
            </Array>
            <mxPoint as="offset" />
          </mxGeometry>
        </mxCell>
        <mxCell id="GJkrWsHs2sDoMX8i2nbH-6" value="&lt;div&gt;yes&lt;/div&gt;" style="edgeStyle=orthogonalEdgeStyle;html=1;align=left;verticalAlign=top;endArrow=open;endSize=8;strokeColor=#ff0000;" parent="mZd0HvATRs0XCswhsqKQ-1" source="GJkrWsHs2sDoMX8i2nbH-4" edge="1">
          <mxGeometry x="-0.7778" y="10" relative="1" as="geometry">
            <mxPoint x="440" y="220" as="targetPoint" />
            <mxPoint as="offset" />
          </mxGeometry>
        </mxCell>
        <mxCell id="GJkrWsHs2sDoMX8i2nbH-7" value="login" style="rounded=1;whiteSpace=wrap;html=1;arcSize=40;fontColor=#000000;fillColor=#ffffc0;strokeColor=#ff0000;" parent="mZd0HvATRs0XCswhsqKQ-1" vertex="1">
          <mxGeometry x="380" y="180" width="120" height="40" as="geometry" />
        </mxCell>
        <mxCell id="GJkrWsHs2sDoMX8i2nbH-8" value="" style="edgeStyle=orthogonalEdgeStyle;html=1;verticalAlign=bottom;endArrow=open;endSize=8;strokeColor=#ff0000;entryX=0.5;entryY=0;entryDx=0;entryDy=0;" parent="mZd0HvATRs0XCswhsqKQ-1" source="GJkrWsHs2sDoMX8i2nbH-7" target="Xoc4gdFxg_Gc56aJsUjz-0" edge="1">
          <mxGeometry relative="1" as="geometry">
            <mxPoint x="440" y="320" as="targetPoint" />
          </mxGeometry>
        </mxCell>
        <mxCell id="nLDTHbPe5vds7OVr34sZ-26" style="edgeStyle=orthogonalEdgeStyle;rounded=1;orthogonalLoop=1;jettySize=auto;html=1;entryX=1;entryY=0.5;entryDx=0;entryDy=0;strokeColor=#FF0000;fontSize=6;align=left;exitX=0.5;exitY=1;exitDx=0;exitDy=0;" parent="mZd0HvATRs0XCswhsqKQ-1" source="GJkrWsHs2sDoMX8i2nbH-9" target="GJkrWsHs2sDoMX8i2nbH-7" edge="1">
          <mxGeometry relative="1" as="geometry" />
        </mxCell>
        <mxCell id="GJkrWsHs2sDoMX8i2nbH-9" value="register" style="rounded=1;whiteSpace=wrap;html=1;arcSize=40;fontColor=#000000;fillColor=#ffffc0;strokeColor=#ff0000;" parent="mZd0HvATRs0XCswhsqKQ-1" vertex="1">
          <mxGeometry x="540" y="140" width="120" height="40" as="geometry" />
        </mxCell>
        <mxCell id="Xoc4gdFxg_Gc56aJsUjz-2" value="yes" style="edgeStyle=orthogonalEdgeStyle;rounded=1;orthogonalLoop=1;jettySize=auto;html=1;entryX=0;entryY=0.5;entryDx=0;entryDy=0;strokeColor=#FF0000;" parent="mZd0HvATRs0XCswhsqKQ-1" source="Xoc4gdFxg_Gc56aJsUjz-0" target="Xoc4gdFxg_Gc56aJsUjz-1" edge="1">
          <mxGeometry relative="1" as="geometry" />
        </mxCell>
        <mxCell id="Xoc4gdFxg_Gc56aJsUjz-4" value="no" style="edgeStyle=orthogonalEdgeStyle;rounded=1;orthogonalLoop=1;jettySize=auto;html=1;exitX=0.5;exitY=1;exitDx=0;exitDy=0;entryX=0.5;entryY=0;entryDx=0;entryDy=0;strokeColor=#FF0000;" parent="mZd0HvATRs0XCswhsqKQ-1" source="Xoc4gdFxg_Gc56aJsUjz-0" target="Xoc4gdFxg_Gc56aJsUjz-3" edge="1">
          <mxGeometry relative="1" as="geometry" />
        </mxCell>
        <mxCell id="Xoc4gdFxg_Gc56aJsUjz-0" value="first login?" style="rhombus;whiteSpace=wrap;html=1;fillColor=#ffffc0;strokeColor=#ff0000;" parent="mZd0HvATRs0XCswhsqKQ-1" vertex="1">
          <mxGeometry x="430" y="270" width="20" height="20" as="geometry" />
        </mxCell>
        <mxCell id="Xoc4gdFxg_Gc56aJsUjz-5" style="edgeStyle=orthogonalEdgeStyle;rounded=1;orthogonalLoop=1;jettySize=auto;html=1;entryX=1;entryY=0.5;entryDx=0;entryDy=0;strokeColor=#FF0000;exitX=0.5;exitY=1;exitDx=0;exitDy=0;" parent="mZd0HvATRs0XCswhsqKQ-1" source="Xoc4gdFxg_Gc56aJsUjz-1" target="Xoc4gdFxg_Gc56aJsUjz-3" edge="1">
          <mxGeometry relative="1" as="geometry" />
        </mxCell>
        <mxCell id="Xoc4gdFxg_Gc56aJsUjz-1" value="get introduced" style="rounded=1;whiteSpace=wrap;html=1;arcSize=40;fontColor=#000000;fillColor=#ffffc0;strokeColor=#ff0000;" parent="mZd0HvATRs0XCswhsqKQ-1" vertex="1">
          <mxGeometry x="540" y="260" width="120" height="40" as="geometry" />
        </mxCell>
        <mxCell id="wP3E6AdchmkzitAnw8Lk-1" style="edgeStyle=orthogonalEdgeStyle;rounded=1;orthogonalLoop=1;jettySize=auto;html=1;entryX=0.5;entryY=0;entryDx=0;entryDy=0;strokeColor=#FF0000;" parent="mZd0HvATRs0XCswhsqKQ-1" source="Xoc4gdFxg_Gc56aJsUjz-3" target="wP3E6AdchmkzitAnw8Lk-0" edge="1">
          <mxGeometry relative="1" as="geometry" />
        </mxCell>
        <mxCell id="Xoc4gdFxg_Gc56aJsUjz-3" value="view questions" style="rounded=1;whiteSpace=wrap;html=1;arcSize=40;fontColor=#000000;fillColor=#ffffc0;strokeColor=#ff0000;" parent="mZd0HvATRs0XCswhsqKQ-1" vertex="1">
          <mxGeometry x="380" y="340" width="120" height="40" as="geometry" />
        </mxCell>
        <mxCell id="nLDTHbPe5vds7OVr34sZ-0" style="edgeStyle=orthogonalEdgeStyle;rounded=1;orthogonalLoop=1;jettySize=auto;html=1;entryX=0.5;entryY=0;entryDx=0;entryDy=0;strokeColor=#FF0000;" parent="mZd0HvATRs0XCswhsqKQ-1" source="wP3E6AdchmkzitAnw8Lk-0" target="NU5cXXk2-aUeuse2mgWf-3" edge="1">
          <mxGeometry relative="1" as="geometry" />
        </mxCell>
        <mxCell id="wP3E6AdchmkzitAnw8Lk-0" value="choose question" style="rounded=1;whiteSpace=wrap;html=1;arcSize=40;fontColor=#000000;fillColor=#ffffc0;strokeColor=#ff0000;" parent="mZd0HvATRs0XCswhsqKQ-1" vertex="1">
          <mxGeometry x="380" y="420" width="120" height="40" as="geometry" />
        </mxCell>
        <mxCell id="nLDTHbPe5vds7OVr34sZ-12" value="" style="edgeStyle=orthogonalEdgeStyle;rounded=1;orthogonalLoop=1;jettySize=auto;html=1;strokeColor=#FF0000;fontSize=6;align=left;entryX=0.5;entryY=0;entryDx=0;entryDy=0;" parent="mZd0HvATRs0XCswhsqKQ-1" source="NU5cXXk2-aUeuse2mgWf-0" target="f8Fqe1DAETNGjsMg1osq-2" edge="1">
          <mxGeometry relative="1" as="geometry">
            <mxPoint x="440" y="770" as="targetPoint" />
          </mxGeometry>
        </mxCell>
        <mxCell id="NU5cXXk2-aUeuse2mgWf-0" value="submit" style="rounded=1;whiteSpace=wrap;html=1;arcSize=40;fontColor=#000000;fillColor=#ffffc0;strokeColor=#ff0000;" parent="mZd0HvATRs0XCswhsqKQ-1" vertex="1">
          <mxGeometry x="380" y="660" width="120" height="40" as="geometry" />
        </mxCell>
        <mxCell id="nLDTHbPe5vds7OVr34sZ-3" value="" style="edgeStyle=orthogonalEdgeStyle;rounded=1;orthogonalLoop=1;jettySize=auto;html=1;strokeColor=#FF0000;" parent="mZd0HvATRs0XCswhsqKQ-1" source="NU5cXXk2-aUeuse2mgWf-3" target="nLDTHbPe5vds7OVr34sZ-2" edge="1">
          <mxGeometry relative="1" as="geometry" />
        </mxCell>
        <mxCell id="NU5cXXk2-aUeuse2mgWf-3" value="place yourself on scale" style="rounded=1;whiteSpace=wrap;html=1;arcSize=40;fontColor=#000000;fillColor=#ffffc0;strokeColor=#ff0000;" parent="mZd0HvATRs0XCswhsqKQ-1" vertex="1">
          <mxGeometry x="380" y="500" width="120" height="40" as="geometry" />
        </mxCell>
        <mxCell id="nLDTHbPe5vds7OVr34sZ-4" value="&lt;font style=&quot;font-size: 11px&quot;&gt;no&lt;/font&gt;" style="edgeStyle=orthogonalEdgeStyle;rounded=1;orthogonalLoop=1;jettySize=auto;html=1;strokeColor=#FF0000;verticalAlign=middle;align=left;fontSize=6;" parent="mZd0HvATRs0XCswhsqKQ-1" source="nLDTHbPe5vds7OVr34sZ-2" target="NU5cXXk2-aUeuse2mgWf-0" edge="1">
          <mxGeometry relative="1" as="geometry" />
        </mxCell>
        <mxCell id="nLDTHbPe5vds7OVr34sZ-9" value="&lt;font style=&quot;font-size: 11px&quot;&gt;yes&lt;/font&gt;" style="edgeStyle=orthogonalEdgeStyle;rounded=1;orthogonalLoop=1;jettySize=auto;html=1;entryX=0;entryY=0.5;entryDx=0;entryDy=0;strokeColor=#FF0000;verticalAlign=bottom;align=center;fontSize=6;" parent="mZd0HvATRs0XCswhsqKQ-1" source="nLDTHbPe5vds7OVr34sZ-2" target="nLDTHbPe5vds7OVr34sZ-5" edge="1">
          <mxGeometry relative="1" as="geometry" />
        </mxCell>
        <mxCell id="nLDTHbPe5vds7OVr34sZ-2" value="own explantion?" style="rhombus;whiteSpace=wrap;html=1;fillColor=#ffffc0;strokeColor=#ff0000;" parent="mZd0HvATRs0XCswhsqKQ-1" vertex="1">
          <mxGeometry x="430" y="590" width="20" height="20" as="geometry" />
        </mxCell>
        <mxCell id="nLDTHbPe5vds7OVr34sZ-10" style="edgeStyle=orthogonalEdgeStyle;rounded=1;orthogonalLoop=1;jettySize=auto;html=1;entryX=1;entryY=0.5;entryDx=0;entryDy=0;strokeColor=#FF0000;exitX=0.5;exitY=1;exitDx=0;exitDy=0;" parent="mZd0HvATRs0XCswhsqKQ-1" source="nLDTHbPe5vds7OVr34sZ-5" target="NU5cXXk2-aUeuse2mgWf-0" edge="1">
          <mxGeometry relative="1" as="geometry" />
        </mxCell>
        <mxCell id="nLDTHbPe5vds7OVr34sZ-5" value="write explanation" style="rounded=1;whiteSpace=wrap;html=1;arcSize=40;fontColor=#000000;fillColor=#ffffc0;strokeColor=#ff0000;" parent="mZd0HvATRs0XCswhsqKQ-1" vertex="1">
          <mxGeometry x="530" y="580" width="120" height="40" as="geometry" />
        </mxCell>
        <mxCell id="nLDTHbPe5vds7OVr34sZ-16" value="[share opinion] " style="edgeStyle=orthogonalEdgeStyle;rounded=1;orthogonalLoop=1;jettySize=auto;html=1;strokeColor=#FF0000;fontSize=6;align=left;entryX=0.5;entryY=0;entryDx=0;entryDy=0;exitX=0.5;exitY=1;exitDx=0;exitDy=0;verticalAlign=top;" parent="mZd0HvATRs0XCswhsqKQ-1" source="f8Fqe1DAETNGjsMg1osq-2" target="nLDTHbPe5vds7OVr34sZ-15" edge="1">
          <mxGeometry relative="1" as="geometry">
            <mxPoint x="440" y="1000" as="sourcePoint" />
          </mxGeometry>
        </mxCell>
        <mxCell id="f8Fqe1DAETNGjsMg1osq-1" style="edgeStyle=orthogonalEdgeStyle;rounded=1;orthogonalLoop=1;jettySize=auto;html=1;entryX=0.5;entryY=0;entryDx=0;entryDy=0;exitX=0.5;exitY=1;exitDx=0;exitDy=0;strokeColor=#FF0000;" parent="mZd0HvATRs0XCswhsqKQ-1" source="nLDTHbPe5vds7OVr34sZ-15" target="DtrMxCOe004STXM9Asxs-3" edge="1">
          <mxGeometry relative="1" as="geometry">
            <mxPoint x="618.75" y="885" as="targetPoint" />
            <Array as="points" />
          </mxGeometry>
        </mxCell>
        <mxCell id="nLDTHbPe5vds7OVr34sZ-15" value="upvote/downvote" style="rounded=1;whiteSpace=wrap;html=1;arcSize=40;fontColor=#000000;fillColor=#ffffc0;strokeColor=#ff0000;" parent="mZd0HvATRs0XCswhsqKQ-1" vertex="1">
          <mxGeometry x="380" y="950" width="120" height="40" as="geometry" />
        </mxCell>
        <mxCell id="f8Fqe1DAETNGjsMg1osq-0" value="Additionally, for simplification the &quot;view explanations&quot; node is &quot;collapsed&quot; into it&#39;s own tab" style="text;html=1;strokeColor=none;fillColor=none;align=center;verticalAlign=middle;whiteSpace=wrap;rounded=0;" parent="mZd0HvATRs0XCswhsqKQ-1" vertex="1">
          <mxGeometry x="150" y="670" width="160" height="90" as="geometry" />
        </mxCell>
        <mxCell id="f8Fqe1DAETNGjsMg1osq-2" value="view explanations&lt;br&gt;[exact state in &quot;View Explanations&quot;-tab]" style="rounded=1;whiteSpace=wrap;html=1;arcSize=18;fontColor=#000000;fillColor=#ffffc0;strokeColor=#ff0000;" parent="mZd0HvATRs0XCswhsqKQ-1" vertex="1">
          <mxGeometry x="324" y="740" width="232" height="170" as="geometry" />
        </mxCell>
        <mxCell id="f8Fqe1DAETNGjsMg1osq-4" value="The start section is the same for every idea" style="text;html=1;strokeColor=none;fillColor=none;align=center;verticalAlign=middle;whiteSpace=wrap;rounded=0;shadow=0;" parent="mZd0HvATRs0XCswhsqKQ-1" vertex="1">
          <mxGeometry x="200" y="130" width="150" height="90" as="geometry" />
        </mxCell>
        <mxCell id="e9hllGgWyhzpBcKEnKIA-4" value="" style="edgeStyle=orthogonalEdgeStyle;rounded=1;orthogonalLoop=1;jettySize=auto;html=1;dashed=1;endArrow=none;endFill=0;strokeColor=#000000;fontSize=6;align=left;entryX=0;entryY=0.5;entryDx=0;entryDy=0;" parent="mZd0HvATRs0XCswhsqKQ-1" source="e9hllGgWyhzpBcKEnKIA-5" target="f8Fqe1DAETNGjsMg1osq-2" edge="1">
          <mxGeometry relative="1" as="geometry">
            <mxPoint x="285" y="825" as="targetPoint" />
          </mxGeometry>
        </mxCell>
        <mxCell id="e9hllGgWyhzpBcKEnKIA-5" value="vote number is seen" style="shape=note;whiteSpace=wrap;html=1;backgroundOutline=1;darkOpacity=0.05;fillColor=none;gradientColor=none;fontSize=6;align=left;size=6;" parent="mZd0HvATRs0XCswhsqKQ-1" vertex="1">
          <mxGeometry x="175" y="785" width="70" height="20" as="geometry" />
        </mxCell>
        <mxCell id="e9hllGgWyhzpBcKEnKIA-6" value="see &quot;other sides&quot; explanation" style="shape=note;whiteSpace=wrap;html=1;backgroundOutline=1;darkOpacity=0.05;fillColor=none;gradientColor=none;fontSize=6;align=center;size=6;" parent="mZd0HvATRs0XCswhsqKQ-1" vertex="1">
          <mxGeometry x="175" y="835" width="70" height="30" as="geometry" />
        </mxCell>
        <mxCell id="e9hllGgWyhzpBcKEnKIA-7" value="" style="edgeStyle=orthogonalEdgeStyle;rounded=1;orthogonalLoop=1;jettySize=auto;html=1;dashed=1;endArrow=none;endFill=0;strokeColor=#000000;fontSize=6;align=left;entryX=0;entryY=0.5;entryDx=0;entryDy=0;exitX=0;exitY=0;exitDx=70;exitDy=18;exitPerimeter=0;" parent="mZd0HvATRs0XCswhsqKQ-1" source="e9hllGgWyhzpBcKEnKIA-6" target="f8Fqe1DAETNGjsMg1osq-2" edge="1">
          <mxGeometry relative="1" as="geometry">
            <mxPoint x="255" y="805" as="sourcePoint" />
            <mxPoint x="285" y="825" as="targetPoint" />
          </mxGeometry>
        </mxCell>
        <mxCell id="DtrMxCOe004STXM9Asxs-1" value="" style="ellipse;html=1;shape=startState;fillColor=#000000;strokeColor=#ff0000;" vertex="1" parent="mZd0HvATRs0XCswhsqKQ-1">
          <mxGeometry x="425" y="1050" width="30" height="30" as="geometry" />
        </mxCell>
        <mxCell id="DtrMxCOe004STXM9Asxs-3" value="view other explanations?" style="rhombus;whiteSpace=wrap;html=1;fillColor=#ffffc0;strokeColor=#ff0000;" vertex="1" parent="mZd0HvATRs0XCswhsqKQ-1">
          <mxGeometry x="430" y="1010" width="20" height="20" as="geometry" />
        </mxCell>
        <mxCell id="DtrMxCOe004STXM9Asxs-4" style="edgeStyle=orthogonalEdgeStyle;rounded=1;orthogonalLoop=1;jettySize=auto;html=1;entryX=0.5;entryY=0;entryDx=0;entryDy=0;exitX=0.5;exitY=1;exitDx=0;exitDy=0;strokeColor=#FF0000;" edge="1" parent="mZd0HvATRs0XCswhsqKQ-1">
          <mxGeometry relative="1" as="geometry">
            <mxPoint x="440" y="1010" as="targetPoint" />
            <mxPoint x="440" y="990" as="sourcePoint" />
            <Array as="points" />
          </mxGeometry>
        </mxCell>
        <mxCell id="DtrMxCOe004STXM9Asxs-5" value="yes" style="edgeStyle=orthogonalEdgeStyle;rounded=1;orthogonalLoop=1;jettySize=auto;html=1;strokeColor=#FF0000;entryX=1;entryY=0.388;entryDx=0;entryDy=0;entryPerimeter=0;exitX=1;exitY=0.5;exitDx=0;exitDy=0;" edge="1" parent="mZd0HvATRs0XCswhsqKQ-1" source="DtrMxCOe004STXM9Asxs-3" target="f8Fqe1DAETNGjsMg1osq-2">
          <mxGeometry x="-0.7026" y="10" relative="1" as="geometry">
            <mxPoint x="450" y="1020" as="targetPoint" />
            <mxPoint x="440" y="1020" as="sourcePoint" />
            <Array as="points">
              <mxPoint x="660" y="1020" />
              <mxPoint x="660" y="806" />
            </Array>
            <mxPoint as="offset" />
          </mxGeometry>
        </mxCell>
        <mxCell id="DtrMxCOe004STXM9Asxs-6" style="edgeStyle=orthogonalEdgeStyle;rounded=1;orthogonalLoop=1;jettySize=auto;html=1;strokeColor=#FF0000;exitX=0.5;exitY=1;exitDx=0;exitDy=0;" edge="1" parent="mZd0HvATRs0XCswhsqKQ-1" source="DtrMxCOe004STXM9Asxs-3">
          <mxGeometry relative="1" as="geometry">
            <mxPoint x="440" y="1050" as="targetPoint" />
            <mxPoint x="460" y="1040" as="sourcePoint" />
            <Array as="points">
              <mxPoint x="440" y="1040" />
              <mxPoint x="440" y="1040" />
            </Array>
          </mxGeometry>
        </mxCell>
      </root>
    </mxGraphModel>
  </diagram>
  <diagram id="T0OLfQ77nba1P5-F2xaN" name="View Explanations">
    <mxGraphModel dx="1038" dy="547" grid="1" gridSize="10" guides="1" tooltips="1" connect="1" arrows="1" fold="1" page="1" pageScale="1" pageWidth="850" pageHeight="1100" math="0" shadow="0">
      <root>
        <mxCell id="SDLg_EsiU2lzFxjjC8o2-0" />
        <mxCell id="SDLg_EsiU2lzFxjjC8o2-1" parent="SDLg_EsiU2lzFxjjC8o2-0" />
        <mxCell id="JSJtBqLJRuTH9ar2CPZ5-9" value="&lt;div&gt;view explanations&lt;br&gt;&lt;/div&gt;" style="rounded=1;whiteSpace=wrap;html=1;fillColor=none;align=center;verticalAlign=top;strokeColor=#FF0000;" parent="SDLg_EsiU2lzFxjjC8o2-1" vertex="1">
          <mxGeometry x="230" y="200" width="350" height="320" as="geometry" />
        </mxCell>
        <mxCell id="JSJtBqLJRuTH9ar2CPZ5-0" value="" style="edgeStyle=orthogonalEdgeStyle;rounded=1;orthogonalLoop=1;jettySize=auto;html=1;strokeColor=#FF0000;fontSize=6;align=left;" parent="SDLg_EsiU2lzFxjjC8o2-1" source="JSJtBqLJRuTH9ar2CPZ5-1" target="JSJtBqLJRuTH9ar2CPZ5-4" edge="1">
          <mxGeometry relative="1" as="geometry" />
        </mxCell>
        <mxCell id="JSJtBqLJRuTH9ar2CPZ5-1" value="view explanations" style="rounded=1;whiteSpace=wrap;html=1;arcSize=40;fontColor=#000000;fillColor=#ffffc0;strokeColor=#ff0000;" parent="SDLg_EsiU2lzFxjjC8o2-1" vertex="1">
          <mxGeometry x="260" y="270" width="120" height="40" as="geometry" />
        </mxCell>
        <mxCell id="JSJtBqLJRuTH9ar2CPZ5-2" value="&lt;div&gt;[see different explanations]&lt;/div&gt;&lt;div&gt;&lt;br&gt;&lt;/div&gt;" style="edgeStyle=orthogonalEdgeStyle;rounded=1;orthogonalLoop=1;jettySize=auto;html=1;entryX=0;entryY=0.5;entryDx=0;entryDy=0;strokeColor=#FF0000;fontSize=6;align=center;exitX=0.5;exitY=1;exitDx=0;exitDy=0;verticalAlign=bottom;" parent="SDLg_EsiU2lzFxjjC8o2-1" source="JSJtBqLJRuTH9ar2CPZ5-4" target="JSJtBqLJRuTH9ar2CPZ5-6" edge="1">
          <mxGeometry relative="1" as="geometry" />
        </mxCell>
        <mxCell id="JSJtBqLJRuTH9ar2CPZ5-3" value="&lt;div&gt;[see other views]&lt;/div&gt;" style="edgeStyle=orthogonalEdgeStyle;rounded=1;orthogonalLoop=1;jettySize=auto;html=1;entryX=0;entryY=0.5;entryDx=0;entryDy=0;strokeColor=#FF0000;fontSize=6;align=center;verticalAlign=bottom;" parent="SDLg_EsiU2lzFxjjC8o2-1" source="JSJtBqLJRuTH9ar2CPZ5-4" target="JSJtBqLJRuTH9ar2CPZ5-8" edge="1">
          <mxGeometry relative="1" as="geometry" />
        </mxCell>
        <mxCell id="JSJtBqLJRuTH9ar2CPZ5-4" value="" style="rhombus;whiteSpace=wrap;html=1;fillColor=#ffffc0;strokeColor=#ff0000;" parent="SDLg_EsiU2lzFxjjC8o2-1" vertex="1">
          <mxGeometry x="310" y="360" width="20" height="20" as="geometry" />
        </mxCell>
        <mxCell id="JSJtBqLJRuTH9ar2CPZ5-5" style="edgeStyle=orthogonalEdgeStyle;rounded=1;orthogonalLoop=1;jettySize=auto;html=1;entryX=1;entryY=0.5;entryDx=0;entryDy=0;strokeColor=#FF0000;fontSize=6;align=left;exitX=1;exitY=0.5;exitDx=0;exitDy=0;" parent="SDLg_EsiU2lzFxjjC8o2-1" source="JSJtBqLJRuTH9ar2CPZ5-6" target="mgRkiGzX8NfmpQWJoRzP-2" edge="1">
          <mxGeometry relative="1" as="geometry" />
        </mxCell>
        <mxCell id="JSJtBqLJRuTH9ar2CPZ5-6" value="&lt;div&gt;sort explanations differently&lt;/div&gt;" style="rounded=1;whiteSpace=wrap;html=1;arcSize=40;fontColor=#000000;fillColor=#ffffc0;strokeColor=#ff0000;" parent="SDLg_EsiU2lzFxjjC8o2-1" vertex="1">
          <mxGeometry x="410" y="400" width="120" height="40" as="geometry" />
        </mxCell>
        <mxCell id="JSJtBqLJRuTH9ar2CPZ5-7" style="edgeStyle=orthogonalEdgeStyle;rounded=1;orthogonalLoop=1;jettySize=auto;html=1;entryX=1;entryY=0.5;entryDx=0;entryDy=0;strokeColor=#FF0000;fontSize=6;align=left;exitX=1;exitY=0.5;exitDx=0;exitDy=0;" parent="SDLg_EsiU2lzFxjjC8o2-1" source="JSJtBqLJRuTH9ar2CPZ5-8" target="mgRkiGzX8NfmpQWJoRzP-2" edge="1">
          <mxGeometry relative="1" as="geometry" />
        </mxCell>
        <mxCell id="JSJtBqLJRuTH9ar2CPZ5-8" value="change active bar" style="rounded=1;whiteSpace=wrap;html=1;arcSize=40;fontColor=#000000;fillColor=#ffffc0;strokeColor=#ff0000;" parent="SDLg_EsiU2lzFxjjC8o2-1" vertex="1">
          <mxGeometry x="410" y="350" width="120" height="40" as="geometry" />
        </mxCell>
        <mxCell id="MLSyjrNWe852f-PS5pq4-0" value="&lt;div&gt;There is different default sortings for the explanations, which is indicated in the actual model by a note symbol attached with dashed lines.&lt;/div&gt;" style="text;html=1;strokeColor=none;fillColor=none;align=center;verticalAlign=middle;whiteSpace=wrap;rounded=0;shadow=0;" parent="SDLg_EsiU2lzFxjjC8o2-1" vertex="1">
          <mxGeometry x="230" y="510" width="340" height="100" as="geometry" />
        </mxCell>
        <mxCell id="mgRkiGzX8NfmpQWJoRzP-0" value="" style="ellipse;html=1;shape=startState;fillColor=#000000;strokeColor=#ff0000;" vertex="1" parent="SDLg_EsiU2lzFxjjC8o2-1">
          <mxGeometry x="305" y="220" width="30" height="30" as="geometry" />
        </mxCell>
        <mxCell id="mgRkiGzX8NfmpQWJoRzP-1" value="" style="edgeStyle=orthogonalEdgeStyle;rounded=1;orthogonalLoop=1;jettySize=auto;html=1;strokeColor=#FF0000;fontSize=6;align=left;exitX=0.5;exitY=1;exitDx=0;exitDy=0;" edge="1" parent="SDLg_EsiU2lzFxjjC8o2-1" source="mgRkiGzX8NfmpQWJoRzP-0">
          <mxGeometry relative="1" as="geometry">
            <mxPoint x="320" y="310" as="sourcePoint" />
            <mxPoint x="320" y="270" as="targetPoint" />
          </mxGeometry>
        </mxCell>
        <mxCell id="mgRkiGzX8NfmpQWJoRzP-2" value="" style="ellipse;html=1;shape=startState;fillColor=#000000;strokeColor=#ff0000;" vertex="1" parent="SDLg_EsiU2lzFxjjC8o2-1">
          <mxGeometry x="305" y="480" width="30" height="30" as="geometry" />
        </mxCell>
      </root>
    </mxGraphModel>
  </diagram>
  <diagram id="CjYkrTAcrpqW22rwyKS3" name="Basic Upvote/Downvote">
    <mxGraphModel dx="1038" dy="547" grid="1" gridSize="10" guides="1" tooltips="1" connect="1" arrows="1" fold="1" page="1" pageScale="1" pageWidth="850" pageHeight="1100" math="0" shadow="0">
      <root>
        <mxCell id="pzu39dAlTcETxVCLEfr1-0" />
        <mxCell id="pzu39dAlTcETxVCLEfr1-1" parent="pzu39dAlTcETxVCLEfr1-0" />
        <mxCell id="60eu2sE2hBlYpHJB1H1b-0" style="edgeStyle=orthogonalEdgeStyle;rounded=1;orthogonalLoop=1;jettySize=auto;html=1;entryX=0.5;entryY=0;entryDx=0;entryDy=0;strokeColor=#FF0000;exitX=0.5;exitY=1;exitDx=0;exitDy=0;" parent="pzu39dAlTcETxVCLEfr1-1" source="60eu2sE2hBlYpHJB1H1b-24" target="60eu2sE2hBlYpHJB1H1b-2" edge="1">
          <mxGeometry relative="1" as="geometry">
            <mxPoint x="320" y="140" as="sourcePoint" />
          </mxGeometry>
        </mxCell>
        <mxCell id="60eu2sE2hBlYpHJB1H1b-1" style="edgeStyle=orthogonalEdgeStyle;rounded=1;orthogonalLoop=1;jettySize=auto;html=1;entryX=0.5;entryY=0;entryDx=0;entryDy=0;strokeColor=#FF0000;" parent="pzu39dAlTcETxVCLEfr1-1" source="60eu2sE2hBlYpHJB1H1b-2" target="60eu2sE2hBlYpHJB1H1b-6" edge="1">
          <mxGeometry relative="1" as="geometry" />
        </mxCell>
        <mxCell id="60eu2sE2hBlYpHJB1H1b-2" value="choose question" style="rounded=1;whiteSpace=wrap;html=1;arcSize=40;fontColor=#000000;fillColor=#ffffc0;strokeColor=#ff0000;" parent="pzu39dAlTcETxVCLEfr1-1" vertex="1">
          <mxGeometry x="260" y="180" width="120" height="40" as="geometry" />
        </mxCell>
        <mxCell id="60eu2sE2hBlYpHJB1H1b-3" value="" style="edgeStyle=orthogonalEdgeStyle;rounded=1;orthogonalLoop=1;jettySize=auto;html=1;strokeColor=#FF0000;fontSize=6;align=left;" parent="pzu39dAlTcETxVCLEfr1-1" source="60eu2sE2hBlYpHJB1H1b-4" target="60eu2sE2hBlYpHJB1H1b-13" edge="1">
          <mxGeometry relative="1" as="geometry" />
        </mxCell>
        <mxCell id="60eu2sE2hBlYpHJB1H1b-4" value="submit" style="rounded=1;whiteSpace=wrap;html=1;arcSize=40;fontColor=#000000;fillColor=#ffffc0;strokeColor=#ff0000;" parent="pzu39dAlTcETxVCLEfr1-1" vertex="1">
          <mxGeometry x="260" y="420" width="120" height="40" as="geometry" />
        </mxCell>
        <mxCell id="60eu2sE2hBlYpHJB1H1b-5" value="" style="edgeStyle=orthogonalEdgeStyle;rounded=1;orthogonalLoop=1;jettySize=auto;html=1;strokeColor=#FF0000;" parent="pzu39dAlTcETxVCLEfr1-1" source="60eu2sE2hBlYpHJB1H1b-6" target="60eu2sE2hBlYpHJB1H1b-9" edge="1">
          <mxGeometry relative="1" as="geometry" />
        </mxCell>
        <mxCell id="60eu2sE2hBlYpHJB1H1b-6" value="place yourself on scale" style="rounded=1;whiteSpace=wrap;html=1;arcSize=40;fontColor=#000000;fillColor=#ffffc0;strokeColor=#ff0000;" parent="pzu39dAlTcETxVCLEfr1-1" vertex="1">
          <mxGeometry x="260" y="260" width="120" height="40" as="geometry" />
        </mxCell>
        <mxCell id="60eu2sE2hBlYpHJB1H1b-7" value="&lt;font style=&quot;font-size: 11px&quot;&gt;no&lt;/font&gt;" style="edgeStyle=orthogonalEdgeStyle;rounded=1;orthogonalLoop=1;jettySize=auto;html=1;strokeColor=#FF0000;verticalAlign=middle;align=left;fontSize=6;" parent="pzu39dAlTcETxVCLEfr1-1" source="60eu2sE2hBlYpHJB1H1b-9" target="60eu2sE2hBlYpHJB1H1b-4" edge="1">
          <mxGeometry relative="1" as="geometry" />
        </mxCell>
        <mxCell id="60eu2sE2hBlYpHJB1H1b-8" value="&lt;font style=&quot;font-size: 11px&quot;&gt;yes&lt;/font&gt;" style="edgeStyle=orthogonalEdgeStyle;rounded=1;orthogonalLoop=1;jettySize=auto;html=1;entryX=0;entryY=0.5;entryDx=0;entryDy=0;strokeColor=#FF0000;verticalAlign=bottom;align=center;fontSize=6;" parent="pzu39dAlTcETxVCLEfr1-1" source="60eu2sE2hBlYpHJB1H1b-9" target="60eu2sE2hBlYpHJB1H1b-11" edge="1">
          <mxGeometry relative="1" as="geometry" />
        </mxCell>
        <mxCell id="60eu2sE2hBlYpHJB1H1b-9" value="own explanation?" style="rhombus;whiteSpace=wrap;html=1;fillColor=#ffffc0;strokeColor=#ff0000;" parent="pzu39dAlTcETxVCLEfr1-1" vertex="1">
          <mxGeometry x="310" y="350" width="20" height="20" as="geometry" />
        </mxCell>
        <mxCell id="60eu2sE2hBlYpHJB1H1b-10" style="edgeStyle=orthogonalEdgeStyle;rounded=1;orthogonalLoop=1;jettySize=auto;html=1;entryX=1;entryY=0.5;entryDx=0;entryDy=0;strokeColor=#FF0000;exitX=0.5;exitY=1;exitDx=0;exitDy=0;" parent="pzu39dAlTcETxVCLEfr1-1" source="60eu2sE2hBlYpHJB1H1b-11" target="60eu2sE2hBlYpHJB1H1b-4" edge="1">
          <mxGeometry relative="1" as="geometry" />
        </mxCell>
        <mxCell id="60eu2sE2hBlYpHJB1H1b-11" value="write explanation" style="rounded=1;whiteSpace=wrap;html=1;arcSize=40;fontColor=#000000;fillColor=#ffffc0;strokeColor=#ff0000;" parent="pzu39dAlTcETxVCLEfr1-1" vertex="1">
          <mxGeometry x="410" y="340" width="120" height="40" as="geometry" />
        </mxCell>
        <mxCell id="60eu2sE2hBlYpHJB1H1b-13" value="view explanations" style="rounded=1;whiteSpace=wrap;html=1;arcSize=40;fontColor=#000000;fillColor=#ffffc0;strokeColor=#ff0000;" parent="pzu39dAlTcETxVCLEfr1-1" vertex="1">
          <mxGeometry x="260" y="500" width="120" height="40" as="geometry" />
        </mxCell>
        <mxCell id="60eu2sE2hBlYpHJB1H1b-14" value="[share opinion] " style="edgeStyle=orthogonalEdgeStyle;rounded=1;orthogonalLoop=1;jettySize=auto;html=1;strokeColor=#FF0000;fontSize=6;align=left;entryX=0.5;entryY=0;entryDx=0;entryDy=0;exitX=0.5;exitY=1;exitDx=0;exitDy=0;verticalAlign=top;" parent="pzu39dAlTcETxVCLEfr1-1" source="60eu2sE2hBlYpHJB1H1b-13" target="60eu2sE2hBlYpHJB1H1b-19" edge="1">
          <mxGeometry relative="1" as="geometry">
            <mxPoint x="320" y="610" as="sourcePoint" />
          </mxGeometry>
        </mxCell>
        <mxCell id="60eu2sE2hBlYpHJB1H1b-18" style="edgeStyle=orthogonalEdgeStyle;rounded=1;orthogonalLoop=1;jettySize=auto;html=1;strokeColor=#FF0000;fontSize=6;align=left;exitX=0.5;exitY=1;exitDx=0;exitDy=0;" parent="pzu39dAlTcETxVCLEfr1-1" source="8g_778LbaLpGPcPajMEx-0" target="A3jw6ookVHXtkChZdXtK-0" edge="1">
          <mxGeometry relative="1" as="geometry" />
        </mxCell>
        <mxCell id="60eu2sE2hBlYpHJB1H1b-19" value="upvote/downvote" style="rounded=1;whiteSpace=wrap;html=1;arcSize=40;fontColor=#000000;fillColor=#ffffc0;strokeColor=#ff0000;" parent="pzu39dAlTcETxVCLEfr1-1" vertex="1">
          <mxGeometry x="260" y="600" width="120" height="40" as="geometry" />
        </mxCell>
        <mxCell id="60eu2sE2hBlYpHJB1H1b-24" value="" style="ellipse;html=1;shape=startState;fillColor=#000000;strokeColor=#ff0000;fontSize=14;align=left;" parent="pzu39dAlTcETxVCLEfr1-1" vertex="1">
          <mxGeometry x="305" y="120" width="30" height="30" as="geometry" />
        </mxCell>
        <mxCell id="7cL362D5jNcUBSl-fK52-1" value="" style="edgeStyle=orthogonalEdgeStyle;rounded=1;orthogonalLoop=1;jettySize=auto;html=1;dashed=1;endArrow=none;endFill=0;strokeColor=#000000;fontSize=6;align=left;" parent="pzu39dAlTcETxVCLEfr1-1" source="7cL362D5jNcUBSl-fK52-0" target="60eu2sE2hBlYpHJB1H1b-13" edge="1">
          <mxGeometry relative="1" as="geometry" />
        </mxCell>
        <mxCell id="7cL362D5jNcUBSl-fK52-0" value="vote number is seen" style="shape=note;whiteSpace=wrap;html=1;backgroundOutline=1;darkOpacity=0.05;fillColor=none;gradientColor=none;fontSize=6;align=left;size=6;" parent="pzu39dAlTcETxVCLEfr1-1" vertex="1">
          <mxGeometry x="150" y="480" width="70" height="20" as="geometry" />
        </mxCell>
        <mxCell id="OHivUevBjZyowvtFVMip-0" value="see &quot;other sides&quot; explanation" style="shape=note;whiteSpace=wrap;html=1;backgroundOutline=1;darkOpacity=0.05;fillColor=none;gradientColor=none;fontSize=6;align=center;size=6;" parent="pzu39dAlTcETxVCLEfr1-1" vertex="1">
          <mxGeometry x="150" y="530" width="70" height="30" as="geometry" />
        </mxCell>
        <mxCell id="OHivUevBjZyowvtFVMip-1" value="" style="edgeStyle=orthogonalEdgeStyle;rounded=1;orthogonalLoop=1;jettySize=auto;html=1;dashed=1;endArrow=none;endFill=0;strokeColor=#000000;fontSize=6;align=left;entryX=0;entryY=0.5;entryDx=0;entryDy=0;exitX=0;exitY=0;exitDx=70;exitDy=18;exitPerimeter=0;" parent="pzu39dAlTcETxVCLEfr1-1" source="OHivUevBjZyowvtFVMip-0" target="60eu2sE2hBlYpHJB1H1b-13" edge="1">
          <mxGeometry relative="1" as="geometry">
            <mxPoint x="230" y="500" as="sourcePoint" />
            <mxPoint x="270" y="530" as="targetPoint" />
          </mxGeometry>
        </mxCell>
        <mxCell id="A3jw6ookVHXtkChZdXtK-0" value="" style="ellipse;html=1;shape=startState;fillColor=#000000;strokeColor=#ff0000;fontSize=14;align=left;" vertex="1" parent="pzu39dAlTcETxVCLEfr1-1">
          <mxGeometry x="305" y="720" width="30" height="30" as="geometry" />
        </mxCell>
        <mxCell id="8g_778LbaLpGPcPajMEx-0" value="view other explanation?" style="rhombus;whiteSpace=wrap;html=1;fillColor=#ffffc0;strokeColor=#ff0000;" vertex="1" parent="pzu39dAlTcETxVCLEfr1-1">
          <mxGeometry x="310" y="670" width="20" height="20" as="geometry" />
        </mxCell>
        <mxCell id="8g_778LbaLpGPcPajMEx-3" style="edgeStyle=orthogonalEdgeStyle;rounded=1;orthogonalLoop=1;jettySize=auto;html=1;entryX=0.5;entryY=0;entryDx=0;entryDy=0;strokeColor=#FF0000;fontSize=6;align=left;exitX=0.5;exitY=1;exitDx=0;exitDy=0;" edge="1" parent="pzu39dAlTcETxVCLEfr1-1" source="60eu2sE2hBlYpHJB1H1b-19" target="8g_778LbaLpGPcPajMEx-0">
          <mxGeometry relative="1" as="geometry">
            <mxPoint x="365" y="690" as="sourcePoint" />
            <mxPoint x="425" y="610" as="targetPoint" />
          </mxGeometry>
        </mxCell>
      </root>
    </mxGraphModel>
  </diagram>
  <diagram id="6Ovv4VE6qm_vKAhSm3lW" name="Choose or Create">
    <mxGraphModel dx="1038" dy="547" grid="1" gridSize="10" guides="1" tooltips="1" connect="1" arrows="1" fold="1" page="1" pageScale="1" pageWidth="850" pageHeight="1100" math="0" shadow="0">
      <root>
        <mxCell id="Jo0F3M7C0bz86tSLN6sX-0" />
        <mxCell id="Jo0F3M7C0bz86tSLN6sX-1" parent="Jo0F3M7C0bz86tSLN6sX-0" />
        <mxCell id="xp8cirdrrTEiQjoM2X4e-0" style="edgeStyle=orthogonalEdgeStyle;rounded=1;orthogonalLoop=1;jettySize=auto;html=1;entryX=0.5;entryY=0;entryDx=0;entryDy=0;strokeColor=#FF0000;exitX=0.5;exitY=1;exitDx=0;exitDy=0;" parent="Jo0F3M7C0bz86tSLN6sX-1" source="xp8cirdrrTEiQjoM2X4e-24" target="xp8cirdrrTEiQjoM2X4e-2" edge="1">
          <mxGeometry relative="1" as="geometry">
            <mxPoint x="320" y="140" as="sourcePoint" />
          </mxGeometry>
        </mxCell>
        <mxCell id="xp8cirdrrTEiQjoM2X4e-1" style="edgeStyle=orthogonalEdgeStyle;rounded=1;orthogonalLoop=1;jettySize=auto;html=1;entryX=0.5;entryY=0;entryDx=0;entryDy=0;strokeColor=#FF0000;" parent="Jo0F3M7C0bz86tSLN6sX-1" source="xp8cirdrrTEiQjoM2X4e-2" target="xp8cirdrrTEiQjoM2X4e-6" edge="1">
          <mxGeometry relative="1" as="geometry" />
        </mxCell>
        <mxCell id="xp8cirdrrTEiQjoM2X4e-2" value="choose question" style="rounded=1;whiteSpace=wrap;html=1;arcSize=40;fontColor=#000000;fillColor=#ffffc0;strokeColor=#ff0000;" parent="Jo0F3M7C0bz86tSLN6sX-1" vertex="1">
          <mxGeometry x="260" y="180" width="120" height="40" as="geometry" />
        </mxCell>
        <mxCell id="xp8cirdrrTEiQjoM2X4e-3" value="" style="edgeStyle=orthogonalEdgeStyle;rounded=1;orthogonalLoop=1;jettySize=auto;html=1;strokeColor=#FF0000;fontSize=6;align=left;entryX=0;entryY=0.5;entryDx=0;entryDy=0;" parent="Jo0F3M7C0bz86tSLN6sX-1" source="xp8cirdrrTEiQjoM2X4e-4" target="EEyf4zDyOMsPnLL92hws-0" edge="1">
          <mxGeometry relative="1" as="geometry" />
        </mxCell>
        <mxCell id="xp8cirdrrTEiQjoM2X4e-4" value="choose representative" style="rounded=1;whiteSpace=wrap;html=1;arcSize=40;fontColor=#000000;fillColor=#ffffc0;strokeColor=#ff0000;" parent="Jo0F3M7C0bz86tSLN6sX-1" vertex="1">
          <mxGeometry x="140" y="500" width="120" height="40" as="geometry" />
        </mxCell>
        <mxCell id="xp8cirdrrTEiQjoM2X4e-5" value="" style="edgeStyle=orthogonalEdgeStyle;rounded=1;orthogonalLoop=1;jettySize=auto;html=1;strokeColor=#FF0000;entryX=0.5;entryY=0;entryDx=0;entryDy=0;" parent="Jo0F3M7C0bz86tSLN6sX-1" source="xp8cirdrrTEiQjoM2X4e-6" target="xp8cirdrrTEiQjoM2X4e-25" edge="1">
          <mxGeometry relative="1" as="geometry">
            <mxPoint x="320" y="340" as="targetPoint" />
          </mxGeometry>
        </mxCell>
        <mxCell id="xp8cirdrrTEiQjoM2X4e-6" value="place yourself on scale" style="rounded=1;whiteSpace=wrap;html=1;arcSize=40;fontColor=#000000;fillColor=#ffffc0;strokeColor=#ff0000;" parent="Jo0F3M7C0bz86tSLN6sX-1" vertex="1">
          <mxGeometry x="260" y="260" width="120" height="40" as="geometry" />
        </mxCell>
        <mxCell id="xp8cirdrrTEiQjoM2X4e-7" value="&lt;div&gt;[find good explanation]&lt;/div&gt;" style="edgeStyle=orthogonalEdgeStyle;rounded=1;orthogonalLoop=1;jettySize=auto;html=1;strokeColor=#FF0000;verticalAlign=bottom;align=center;fontSize=6;" parent="Jo0F3M7C0bz86tSLN6sX-1" source="xp8cirdrrTEiQjoM2X4e-9" target="xp8cirdrrTEiQjoM2X4e-4" edge="1">
          <mxGeometry relative="1" as="geometry" />
        </mxCell>
        <mxCell id="xp8cirdrrTEiQjoM2X4e-8" value="&lt;div style=&quot;font-size: 6px&quot;&gt;[do not find good explanation]&lt;br style=&quot;font-size: 6px&quot;&gt;&lt;/div&gt;" style="edgeStyle=orthogonalEdgeStyle;rounded=1;orthogonalLoop=1;jettySize=auto;html=1;entryX=0.5;entryY=0;entryDx=0;entryDy=0;strokeColor=#FF0000;verticalAlign=bottom;align=center;fontSize=6;" parent="Jo0F3M7C0bz86tSLN6sX-1" source="xp8cirdrrTEiQjoM2X4e-9" target="xp8cirdrrTEiQjoM2X4e-11" edge="1">
          <mxGeometry relative="1" as="geometry" />
        </mxCell>
        <mxCell id="xp8cirdrrTEiQjoM2X4e-9" value="" style="rhombus;whiteSpace=wrap;html=1;fillColor=#ffffc0;strokeColor=#ff0000;" parent="Jo0F3M7C0bz86tSLN6sX-1" vertex="1">
          <mxGeometry x="310" y="430" width="20" height="20" as="geometry" />
        </mxCell>
        <mxCell id="EEyf4zDyOMsPnLL92hws-1" style="edgeStyle=orthogonalEdgeStyle;rounded=1;orthogonalLoop=1;jettySize=auto;html=1;entryX=1;entryY=0.5;entryDx=0;entryDy=0;strokeColor=#FF0000;fontSize=14;align=center;" parent="Jo0F3M7C0bz86tSLN6sX-1" source="xp8cirdrrTEiQjoM2X4e-11" target="EEyf4zDyOMsPnLL92hws-0" edge="1">
          <mxGeometry relative="1" as="geometry" />
        </mxCell>
        <mxCell id="xp8cirdrrTEiQjoM2X4e-11" value="write explanation" style="rounded=1;whiteSpace=wrap;html=1;arcSize=40;fontColor=#000000;fillColor=#ffffc0;strokeColor=#ff0000;" parent="Jo0F3M7C0bz86tSLN6sX-1" vertex="1">
          <mxGeometry x="380" y="500" width="120" height="40" as="geometry" />
        </mxCell>
        <mxCell id="xp8cirdrrTEiQjoM2X4e-13" value="view explanations" style="rounded=1;whiteSpace=wrap;html=1;arcSize=40;fontColor=#000000;fillColor=#ffffc0;strokeColor=#ff0000;" parent="Jo0F3M7C0bz86tSLN6sX-1" vertex="1">
          <mxGeometry x="260" y="660" width="120" height="40" as="geometry" />
        </mxCell>
        <mxCell id="xp8cirdrrTEiQjoM2X4e-24" value="" style="ellipse;html=1;shape=startState;fillColor=#000000;strokeColor=#ff0000;fontSize=14;align=left;" parent="Jo0F3M7C0bz86tSLN6sX-1" vertex="1">
          <mxGeometry x="305" y="120" width="30" height="30" as="geometry" />
        </mxCell>
        <mxCell id="xp8cirdrrTEiQjoM2X4e-27" value="" style="edgeStyle=orthogonalEdgeStyle;rounded=1;orthogonalLoop=1;jettySize=auto;html=1;strokeColor=#FF0000;fontSize=14;align=center;" parent="Jo0F3M7C0bz86tSLN6sX-1" source="xp8cirdrrTEiQjoM2X4e-25" target="xp8cirdrrTEiQjoM2X4e-9" edge="1">
          <mxGeometry relative="1" as="geometry" />
        </mxCell>
        <mxCell id="FZqjtbjoMxPCs-53em3x-1" style="edgeStyle=orthogonalEdgeStyle;rounded=1;orthogonalLoop=1;jettySize=auto;html=1;exitX=0;exitY=0.5;exitDx=0;exitDy=0;dashed=1;endArrow=none;endFill=0;strokeColor=#000000;fontSize=6;align=left;entryX=0.979;entryY=0.547;entryDx=0;entryDy=0;entryPerimeter=0;" parent="Jo0F3M7C0bz86tSLN6sX-1" source="xp8cirdrrTEiQjoM2X4e-25" target="FZqjtbjoMxPCs-53em3x-0" edge="1">
          <mxGeometry relative="1" as="geometry">
            <mxPoint x="210" y="360" as="targetPoint" />
          </mxGeometry>
        </mxCell>
        <mxCell id="xp8cirdrrTEiQjoM2X4e-25" value="&lt;div&gt;view explanations&lt;br&gt;&lt;/div&gt;" style="rounded=1;whiteSpace=wrap;html=1;arcSize=40;fontColor=#000000;fillColor=#ffffc0;strokeColor=#ff0000;" parent="Jo0F3M7C0bz86tSLN6sX-1" vertex="1">
          <mxGeometry x="260" y="340" width="120" height="40" as="geometry" />
        </mxCell>
        <mxCell id="EEyf4zDyOMsPnLL92hws-2" value="" style="edgeStyle=orthogonalEdgeStyle;rounded=1;orthogonalLoop=1;jettySize=auto;html=1;strokeColor=#FF0000;fontSize=14;align=center;" parent="Jo0F3M7C0bz86tSLN6sX-1" source="EEyf4zDyOMsPnLL92hws-0" target="xp8cirdrrTEiQjoM2X4e-13" edge="1">
          <mxGeometry relative="1" as="geometry" />
        </mxCell>
        <mxCell id="EEyf4zDyOMsPnLL92hws-0" value="submit" style="rounded=1;whiteSpace=wrap;html=1;arcSize=40;fontColor=#000000;fillColor=#ffffc0;strokeColor=#ff0000;" parent="Jo0F3M7C0bz86tSLN6sX-1" vertex="1">
          <mxGeometry x="260" y="580" width="120" height="40" as="geometry" />
        </mxCell>
        <mxCell id="FZqjtbjoMxPCs-53em3x-0" value="vote number unseen" style="shape=note;whiteSpace=wrap;html=1;backgroundOutline=1;darkOpacity=0.05;fillColor=none;gradientColor=none;fontSize=6;align=left;size=6;" parent="Jo0F3M7C0bz86tSLN6sX-1" vertex="1">
          <mxGeometry x="140" y="330" width="65" height="20" as="geometry" />
        </mxCell>
        <mxCell id="FZqjtbjoMxPCs-53em3x-3" value="" style="edgeStyle=orthogonalEdgeStyle;rounded=1;orthogonalLoop=1;jettySize=auto;html=1;dashed=1;endArrow=none;endFill=0;strokeColor=#000000;fontSize=6;align=left;" parent="Jo0F3M7C0bz86tSLN6sX-1" source="FZqjtbjoMxPCs-53em3x-2" target="xp8cirdrrTEiQjoM2X4e-13" edge="1">
          <mxGeometry relative="1" as="geometry" />
        </mxCell>
        <mxCell id="FZqjtbjoMxPCs-53em3x-2" value="vote number is seen" style="shape=note;whiteSpace=wrap;html=1;backgroundOutline=1;darkOpacity=0.05;fillColor=none;gradientColor=none;fontSize=6;align=left;size=6;" parent="Jo0F3M7C0bz86tSLN6sX-1" vertex="1">
          <mxGeometry x="166.25" y="640" width="67.5" height="20" as="geometry" />
        </mxCell>
        <mxCell id="GwQXXBe4D8ZEW22IL2YU-0" value="see &quot;other sides&quot; explanation" style="shape=note;whiteSpace=wrap;html=1;backgroundOutline=1;darkOpacity=0.05;fillColor=none;gradientColor=none;fontSize=6;align=center;size=6;" parent="Jo0F3M7C0bz86tSLN6sX-1" vertex="1">
          <mxGeometry x="163.75" y="700" width="70" height="30" as="geometry" />
        </mxCell>
        <mxCell id="GwQXXBe4D8ZEW22IL2YU-1" value="" style="edgeStyle=orthogonalEdgeStyle;rounded=1;orthogonalLoop=1;jettySize=auto;html=1;dashed=1;endArrow=none;endFill=0;strokeColor=#000000;fontSize=6;align=left;entryX=0;entryY=0.5;entryDx=0;entryDy=0;exitX=0;exitY=0;exitDx=70;exitDy=18;exitPerimeter=0;" parent="Jo0F3M7C0bz86tSLN6sX-1" source="GwQXXBe4D8ZEW22IL2YU-0" target="xp8cirdrrTEiQjoM2X4e-13" edge="1">
          <mxGeometry relative="1" as="geometry">
            <mxPoint x="220" y="690" as="sourcePoint" />
            <mxPoint x="250" y="710" as="targetPoint" />
          </mxGeometry>
        </mxCell>
        <mxCell id="GwQXXBe4D8ZEW22IL2YU-3" style="edgeStyle=orthogonalEdgeStyle;rounded=1;orthogonalLoop=1;jettySize=auto;html=1;entryX=0;entryY=0.5;entryDx=0;entryDy=0;dashed=1;endArrow=none;endFill=0;" parent="Jo0F3M7C0bz86tSLN6sX-1" source="GwQXXBe4D8ZEW22IL2YU-2" target="xp8cirdrrTEiQjoM2X4e-25" edge="1">
          <mxGeometry relative="1" as="geometry" />
        </mxCell>
        <mxCell id="GwQXXBe4D8ZEW22IL2YU-2" value="see &quot;same sides&quot; explanations" style="shape=note;whiteSpace=wrap;html=1;backgroundOutline=1;darkOpacity=0.05;fillColor=none;gradientColor=none;fontSize=6;align=center;size=6;" parent="Jo0F3M7C0bz86tSLN6sX-1" vertex="1">
          <mxGeometry x="137.5" y="360" width="70" height="30" as="geometry" />
        </mxCell>
        <mxCell id="slemj8ytuR4O8GoAakLz-0" value="" style="ellipse;html=1;shape=startState;fillColor=#000000;strokeColor=#ff0000;fontSize=14;align=left;" vertex="1" parent="Jo0F3M7C0bz86tSLN6sX-1">
          <mxGeometry x="305" y="740" width="30" height="30" as="geometry" />
        </mxCell>
        <mxCell id="slemj8ytuR4O8GoAakLz-1" value="" style="edgeStyle=orthogonalEdgeStyle;rounded=1;orthogonalLoop=1;jettySize=auto;html=1;strokeColor=#FF0000;fontSize=14;align=center;entryX=0.5;entryY=0;entryDx=0;entryDy=0;" edge="1" parent="Jo0F3M7C0bz86tSLN6sX-1" target="slemj8ytuR4O8GoAakLz-0">
          <mxGeometry relative="1" as="geometry">
            <mxPoint x="320" y="700" as="sourcePoint" />
            <mxPoint x="320" y="660" as="targetPoint" />
          </mxGeometry>
        </mxCell>
      </root>
    </mxGraphModel>
  </diagram>
  <diagram id="P2oFdk106PpOjH3otsHP" name="Choose and Vote">
    <mxGraphModel dx="1038" dy="547" grid="1" gridSize="10" guides="1" tooltips="1" connect="1" arrows="1" fold="1" page="1" pageScale="1" pageWidth="850" pageHeight="1100" math="0" shadow="0">
      <root>
        <mxCell id="Jt7dTKZHqMdy6iuLEXla-0" />
        <mxCell id="Jt7dTKZHqMdy6iuLEXla-1" parent="Jt7dTKZHqMdy6iuLEXla-0" />
        <mxCell id="GfkKK-acAlwW59tX5lsJ-0" style="edgeStyle=orthogonalEdgeStyle;rounded=1;orthogonalLoop=1;jettySize=auto;html=1;entryX=0.5;entryY=0;entryDx=0;entryDy=0;strokeColor=#FF0000;exitX=0.5;exitY=1;exitDx=0;exitDy=0;" parent="Jt7dTKZHqMdy6iuLEXla-1" source="GfkKK-acAlwW59tX5lsJ-21" target="GfkKK-acAlwW59tX5lsJ-2" edge="1">
          <mxGeometry relative="1" as="geometry">
            <mxPoint x="320" y="140" as="sourcePoint" />
          </mxGeometry>
        </mxCell>
        <mxCell id="GfkKK-acAlwW59tX5lsJ-1" style="edgeStyle=orthogonalEdgeStyle;rounded=1;orthogonalLoop=1;jettySize=auto;html=1;entryX=0.5;entryY=0;entryDx=0;entryDy=0;strokeColor=#FF0000;" parent="Jt7dTKZHqMdy6iuLEXla-1" source="GfkKK-acAlwW59tX5lsJ-2" target="GfkKK-acAlwW59tX5lsJ-6" edge="1">
          <mxGeometry relative="1" as="geometry" />
        </mxCell>
        <mxCell id="GfkKK-acAlwW59tX5lsJ-2" value="choose question" style="rounded=1;whiteSpace=wrap;html=1;arcSize=40;fontColor=#000000;fillColor=#ffffc0;strokeColor=#ff0000;" parent="Jt7dTKZHqMdy6iuLEXla-1" vertex="1">
          <mxGeometry x="260" y="180" width="120" height="40" as="geometry" />
        </mxCell>
        <mxCell id="SB0JRGNJ_1K3T5GbczPm-7" style="edgeStyle=orthogonalEdgeStyle;rounded=1;orthogonalLoop=1;jettySize=auto;html=1;entryX=1;entryY=0.5;entryDx=0;entryDy=0;strokeColor=#FF0000;fontSize=14;align=center;exitX=0.5;exitY=1;exitDx=0;exitDy=0;" parent="Jt7dTKZHqMdy6iuLEXla-1" source="GfkKK-acAlwW59tX5lsJ-4" target="nQcEXIZRPx8kQSroYd2s-1" edge="1">
          <mxGeometry relative="1" as="geometry" />
        </mxCell>
        <mxCell id="SB0JRGNJ_1K3T5GbczPm-17" style="edgeStyle=orthogonalEdgeStyle;rounded=1;orthogonalLoop=1;jettySize=auto;html=1;fontSize=6;align=left;dashed=1;endArrow=none;endFill=0;" parent="Jt7dTKZHqMdy6iuLEXla-1" source="GfkKK-acAlwW59tX5lsJ-4" target="SB0JRGNJ_1K3T5GbczPm-16" edge="1">
          <mxGeometry relative="1" as="geometry" />
        </mxCell>
        <mxCell id="GfkKK-acAlwW59tX5lsJ-4" value="choose favoured" style="rounded=1;whiteSpace=wrap;html=1;arcSize=40;fontColor=#000000;fillColor=#ffffc0;strokeColor=#ff0000;" parent="Jt7dTKZHqMdy6iuLEXla-1" vertex="1">
          <mxGeometry x="400" y="520" width="120" height="40" as="geometry" />
        </mxCell>
        <mxCell id="GfkKK-acAlwW59tX5lsJ-5" value="" style="edgeStyle=orthogonalEdgeStyle;rounded=1;orthogonalLoop=1;jettySize=auto;html=1;strokeColor=#FF0000;entryX=0.5;entryY=0;entryDx=0;entryDy=0;" parent="Jt7dTKZHqMdy6iuLEXla-1" source="GfkKK-acAlwW59tX5lsJ-6" target="GfkKK-acAlwW59tX5lsJ-23" edge="1">
          <mxGeometry relative="1" as="geometry">
            <mxPoint x="320" y="340" as="targetPoint" />
          </mxGeometry>
        </mxCell>
        <mxCell id="GfkKK-acAlwW59tX5lsJ-6" value="place yourself on scale" style="rounded=1;whiteSpace=wrap;html=1;arcSize=40;fontColor=#000000;fillColor=#ffffc0;strokeColor=#ff0000;" parent="Jt7dTKZHqMdy6iuLEXla-1" vertex="1">
          <mxGeometry x="260" y="260" width="120" height="40" as="geometry" />
        </mxCell>
        <mxCell id="GfkKK-acAlwW59tX5lsJ-7" value="&lt;font style=&quot;font-size: 11px&quot;&gt;yes&lt;/font&gt;" style="edgeStyle=orthogonalEdgeStyle;rounded=1;orthogonalLoop=1;jettySize=auto;html=1;strokeColor=#FF0000;verticalAlign=bottom;align=center;fontSize=6;entryX=0.5;entryY=0;entryDx=0;entryDy=0;" parent="Jt7dTKZHqMdy6iuLEXla-1" source="GfkKK-acAlwW59tX5lsJ-9" target="GfkKK-acAlwW59tX5lsJ-4" edge="1">
          <mxGeometry relative="1" as="geometry">
            <Array as="points">
              <mxPoint x="460" y="440" />
              <mxPoint x="460" y="520" />
            </Array>
          </mxGeometry>
        </mxCell>
        <mxCell id="GfkKK-acAlwW59tX5lsJ-8" value="&lt;font style=&quot;font-size: 11px&quot;&gt;no&lt;/font&gt;" style="edgeStyle=orthogonalEdgeStyle;rounded=1;orthogonalLoop=1;jettySize=auto;html=1;entryX=1;entryY=0.5;entryDx=0;entryDy=0;strokeColor=#FF0000;verticalAlign=bottom;align=center;fontSize=6;" parent="Jt7dTKZHqMdy6iuLEXla-1" source="GfkKK-acAlwW59tX5lsJ-9" target="GfkKK-acAlwW59tX5lsJ-11" edge="1">
          <mxGeometry relative="1" as="geometry">
            <Array as="points">
              <mxPoint x="150" y="440" />
              <mxPoint x="150" y="490" />
            </Array>
          </mxGeometry>
        </mxCell>
        <mxCell id="GfkKK-acAlwW59tX5lsJ-9" value="good explanation?" style="rhombus;whiteSpace=wrap;html=1;fillColor=#ffffc0;strokeColor=#ff0000;" parent="Jt7dTKZHqMdy6iuLEXla-1" vertex="1">
          <mxGeometry x="310" y="430" width="20" height="20" as="geometry" />
        </mxCell>
        <mxCell id="GfkKK-acAlwW59tX5lsJ-10" style="edgeStyle=orthogonalEdgeStyle;rounded=1;orthogonalLoop=1;jettySize=auto;html=1;entryX=0.5;entryY=0;entryDx=0;entryDy=0;strokeColor=#FF0000;fontSize=14;align=center;exitX=0.5;exitY=1;exitDx=0;exitDy=0;" parent="Jt7dTKZHqMdy6iuLEXla-1" source="GfkKK-acAlwW59tX5lsJ-11" target="GfkKK-acAlwW59tX5lsJ-25" edge="1">
          <mxGeometry relative="1" as="geometry" />
        </mxCell>
        <mxCell id="GfkKK-acAlwW59tX5lsJ-11" value="write explanation" style="rounded=1;whiteSpace=wrap;html=1;arcSize=40;fontColor=#000000;fillColor=#ffffc0;strokeColor=#ff0000;" parent="Jt7dTKZHqMdy6iuLEXla-1" vertex="1">
          <mxGeometry x="90" y="470" width="120" height="40" as="geometry" />
        </mxCell>
        <mxCell id="GfkKK-acAlwW59tX5lsJ-21" value="" style="ellipse;html=1;shape=startState;fillColor=#000000;strokeColor=#ff0000;fontSize=14;align=left;" parent="Jt7dTKZHqMdy6iuLEXla-1" vertex="1">
          <mxGeometry x="305" y="120" width="30" height="30" as="geometry" />
        </mxCell>
        <mxCell id="GfkKK-acAlwW59tX5lsJ-22" value="" style="edgeStyle=orthogonalEdgeStyle;rounded=1;orthogonalLoop=1;jettySize=auto;html=1;strokeColor=#FF0000;fontSize=14;align=center;" parent="Jt7dTKZHqMdy6iuLEXla-1" source="GfkKK-acAlwW59tX5lsJ-23" target="GfkKK-acAlwW59tX5lsJ-9" edge="1">
          <mxGeometry relative="1" as="geometry" />
        </mxCell>
        <mxCell id="GfkKK-acAlwW59tX5lsJ-23" value="&lt;div&gt;view explanations &lt;br&gt;&lt;/div&gt;" style="rounded=1;whiteSpace=wrap;html=1;arcSize=40;fontColor=#000000;fillColor=#ffffc0;strokeColor=#ff0000;" parent="Jt7dTKZHqMdy6iuLEXla-1" vertex="1">
          <mxGeometry x="260" y="340" width="120" height="40" as="geometry" />
        </mxCell>
        <mxCell id="SB0JRGNJ_1K3T5GbczPm-12" value="" style="edgeStyle=orthogonalEdgeStyle;rounded=1;orthogonalLoop=1;jettySize=auto;html=1;strokeColor=#FF0000;fontSize=6;align=left;entryX=0;entryY=0.5;entryDx=0;entryDy=0;" parent="Jt7dTKZHqMdy6iuLEXla-1" source="GfkKK-acAlwW59tX5lsJ-25" target="nQcEXIZRPx8kQSroYd2s-1" edge="1">
          <mxGeometry relative="1" as="geometry">
            <Array as="points">
              <mxPoint x="150" y="650" />
            </Array>
          </mxGeometry>
        </mxCell>
        <mxCell id="GfkKK-acAlwW59tX5lsJ-25" value="submit" style="rounded=1;whiteSpace=wrap;html=1;arcSize=40;fontColor=#000000;fillColor=#ffffc0;strokeColor=#ff0000;" parent="Jt7dTKZHqMdy6iuLEXla-1" vertex="1">
          <mxGeometry x="90" y="570" width="120" height="40" as="geometry" />
        </mxCell>
        <mxCell id="SB0JRGNJ_1K3T5GbczPm-1" value="&lt;div&gt;[give opinion]&lt;/div&gt;" style="edgeStyle=orthogonalEdgeStyle;rounded=1;orthogonalLoop=1;jettySize=auto;html=1;entryX=0.5;entryY=0;entryDx=0;entryDy=0;strokeColor=#FF0000;fontSize=6;align=center;verticalAlign=bottom;exitX=0.5;exitY=1;exitDx=0;exitDy=0;" parent="Jt7dTKZHqMdy6iuLEXla-1" source="nQcEXIZRPx8kQSroYd2s-1" target="SB0JRGNJ_1K3T5GbczPm-4" edge="1">
          <mxGeometry relative="1" as="geometry">
            <mxPoint x="350" y="490" as="sourcePoint" />
            <Array as="points" />
          </mxGeometry>
        </mxCell>
        <mxCell id="SB0JRGNJ_1K3T5GbczPm-8" style="edgeStyle=orthogonalEdgeStyle;rounded=1;orthogonalLoop=1;jettySize=auto;html=1;entryX=0.5;entryY=0;entryDx=0;entryDy=0;strokeColor=#FF0000;fontSize=14;align=center;exitX=0.5;exitY=1;exitDx=0;exitDy=0;" parent="Jt7dTKZHqMdy6iuLEXla-1" source="SB0JRGNJ_1K3T5GbczPm-4" target="nQcEXIZRPx8kQSroYd2s-6" edge="1">
          <mxGeometry relative="1" as="geometry" />
        </mxCell>
        <mxCell id="SB0JRGNJ_1K3T5GbczPm-4" value="upvote/downvote" style="rounded=1;whiteSpace=wrap;html=1;arcSize=40;fontColor=#000000;fillColor=#ffffc0;strokeColor=#ff0000;" parent="Jt7dTKZHqMdy6iuLEXla-1" vertex="1">
          <mxGeometry x="260" y="710" width="120" height="40" as="geometry" />
        </mxCell>
        <mxCell id="SB0JRGNJ_1K3T5GbczPm-19" style="edgeStyle=orthogonalEdgeStyle;orthogonalLoop=1;jettySize=auto;html=1;entryX=0;entryY=0.5;entryDx=0;entryDy=0;dashed=1;endArrow=none;endFill=0;strokeColor=#000000;fontSize=6;align=left;rounded=1;" parent="Jt7dTKZHqMdy6iuLEXla-1" source="SB0JRGNJ_1K3T5GbczPm-14" target="GfkKK-acAlwW59tX5lsJ-11" edge="1">
          <mxGeometry relative="1" as="geometry" />
        </mxCell>
        <mxCell id="SB0JRGNJ_1K3T5GbczPm-14" value="can only be done once" style="shape=note;whiteSpace=wrap;html=1;backgroundOutline=1;darkOpacity=0.05;fillColor=none;gradientColor=none;fontSize=6;align=left;size=6;" parent="Jt7dTKZHqMdy6iuLEXla-1" vertex="1">
          <mxGeometry y="480" width="70" height="20" as="geometry" />
        </mxCell>
        <mxCell id="SB0JRGNJ_1K3T5GbczPm-16" value="can only be done X times" style="shape=note;whiteSpace=wrap;html=1;backgroundOutline=1;darkOpacity=0.05;fillColor=none;gradientColor=none;fontSize=6;align=left;size=6;" parent="Jt7dTKZHqMdy6iuLEXla-1" vertex="1">
          <mxGeometry x="560" y="530" width="80" height="20" as="geometry" />
        </mxCell>
        <mxCell id="1yfMmWsRlqRwM-54sJRC-0" style="edgeStyle=orthogonalEdgeStyle;rounded=1;orthogonalLoop=1;jettySize=auto;html=1;entryX=0.25;entryY=0;entryDx=0;entryDy=0;dashed=1;endArrow=none;endFill=0;" parent="Jt7dTKZHqMdy6iuLEXla-1" source="1yfMmWsRlqRwM-54sJRC-1" target="GfkKK-acAlwW59tX5lsJ-23" edge="1">
          <mxGeometry relative="1" as="geometry">
            <mxPoint x="272.5" y="290" as="targetPoint" />
          </mxGeometry>
        </mxCell>
        <mxCell id="1yfMmWsRlqRwM-54sJRC-1" value="see &quot;same sides&quot; explanations" style="shape=note;whiteSpace=wrap;html=1;backgroundOutline=1;darkOpacity=0.05;fillColor=none;gradientColor=none;fontSize=6;align=center;size=6;" parent="Jt7dTKZHqMdy6iuLEXla-1" vertex="1">
          <mxGeometry x="150" y="290" width="70" height="30" as="geometry" />
        </mxCell>
        <mxCell id="gTJ0U8QDy2vBCUOXwsj9-4" value="" style="edgeStyle=orthogonalEdgeStyle;rounded=1;orthogonalLoop=1;jettySize=auto;html=1;dashed=1;endArrow=none;endFill=0;strokeColor=#000000;fontSize=6;align=left;entryX=0.75;entryY=0;entryDx=0;entryDy=0;" parent="Jt7dTKZHqMdy6iuLEXla-1" source="gTJ0U8QDy2vBCUOXwsj9-5" target="GfkKK-acAlwW59tX5lsJ-23" edge="1">
          <mxGeometry relative="1" as="geometry">
            <mxPoint x="490" y="310" as="targetPoint" />
          </mxGeometry>
        </mxCell>
        <mxCell id="gTJ0U8QDy2vBCUOXwsj9-5" value="vote number is seen" style="shape=note;whiteSpace=wrap;html=1;backgroundOutline=1;darkOpacity=0.05;fillColor=none;gradientColor=none;fontSize=6;align=left;size=6;" parent="Jt7dTKZHqMdy6iuLEXla-1" vertex="1">
          <mxGeometry x="390" y="300" width="70" height="20" as="geometry" />
        </mxCell>
        <mxCell id="nQcEXIZRPx8kQSroYd2s-1" value="" style="rhombus;whiteSpace=wrap;html=1;fillColor=#ffffc0;strokeColor=#ff0000;" vertex="1" parent="Jt7dTKZHqMdy6iuLEXla-1">
          <mxGeometry x="310" y="640" width="20" height="20" as="geometry" />
        </mxCell>
        <mxCell id="nQcEXIZRPx8kQSroYd2s-4" value="" style="ellipse;html=1;shape=startState;fillColor=#000000;strokeColor=#ff0000;fontSize=14;align=left;" vertex="1" parent="Jt7dTKZHqMdy6iuLEXla-1">
          <mxGeometry x="305" y="830" width="30" height="30" as="geometry" />
        </mxCell>
        <mxCell id="nQcEXIZRPx8kQSroYd2s-6" value="view other explanation?" style="rhombus;whiteSpace=wrap;html=1;fillColor=#ffffc0;strokeColor=#ff0000;" vertex="1" parent="Jt7dTKZHqMdy6iuLEXla-1">
          <mxGeometry x="310" y="780" width="20" height="20" as="geometry" />
        </mxCell>
        <mxCell id="nQcEXIZRPx8kQSroYd2s-7" style="edgeStyle=orthogonalEdgeStyle;rounded=1;orthogonalLoop=1;jettySize=auto;html=1;strokeColor=#FF0000;fontSize=14;align=center;exitX=0.5;exitY=1;exitDx=0;exitDy=0;" edge="1" parent="Jt7dTKZHqMdy6iuLEXla-1" source="nQcEXIZRPx8kQSroYd2s-6" target="nQcEXIZRPx8kQSroYd2s-4">
          <mxGeometry relative="1" as="geometry">
            <mxPoint x="320" y="750" as="sourcePoint" />
            <mxPoint x="320" y="780" as="targetPoint" />
          </mxGeometry>
        </mxCell>
        <mxCell id="tF2hpKjqmnyDVqwheo6G-0" style="edgeStyle=orthogonalEdgeStyle;rounded=1;orthogonalLoop=1;jettySize=auto;html=1;strokeColor=#FF0000;fontSize=14;align=center;exitX=1;exitY=0.5;exitDx=0;exitDy=0;entryX=1;entryY=0.5;entryDx=0;entryDy=0;" edge="1" parent="Jt7dTKZHqMdy6iuLEXla-1" source="nQcEXIZRPx8kQSroYd2s-6" target="GfkKK-acAlwW59tX5lsJ-23">
          <mxGeometry relative="1" as="geometry">
            <mxPoint x="320" y="800" as="sourcePoint" />
            <mxPoint x="320" y="830" as="targetPoint" />
            <Array as="points">
              <mxPoint x="670" y="790" />
              <mxPoint x="670" y="360" />
            </Array>
          </mxGeometry>
        </mxCell>
      </root>
    </mxGraphModel>
  </diagram>
  <diagram id="izlbtkOYfyAQ5qJwLTD1" name="Vote and See">
    <mxGraphModel dx="1038" dy="547" grid="1" gridSize="10" guides="1" tooltips="1" connect="1" arrows="1" fold="1" page="1" pageScale="1" pageWidth="850" pageHeight="1100" math="0" shadow="0">
      <root>
        <mxCell id="oEXHepKO80LycFyi-LhW-0" />
        <mxCell id="oEXHepKO80LycFyi-LhW-1" parent="oEXHepKO80LycFyi-LhW-0" />
        <mxCell id="MKQPsGIYn7UsomeNzt26-0" style="edgeStyle=orthogonalEdgeStyle;rounded=1;orthogonalLoop=1;jettySize=auto;html=1;entryX=0.5;entryY=0;entryDx=0;entryDy=0;strokeColor=#FF0000;exitX=0.5;exitY=1;exitDx=0;exitDy=0;" parent="oEXHepKO80LycFyi-LhW-1" source="MKQPsGIYn7UsomeNzt26-24" target="MKQPsGIYn7UsomeNzt26-2" edge="1">
          <mxGeometry relative="1" as="geometry">
            <mxPoint x="320" y="140" as="sourcePoint" />
          </mxGeometry>
        </mxCell>
        <mxCell id="MKQPsGIYn7UsomeNzt26-1" style="edgeStyle=orthogonalEdgeStyle;rounded=1;orthogonalLoop=1;jettySize=auto;html=1;entryX=0.5;entryY=0;entryDx=0;entryDy=0;strokeColor=#FF0000;" parent="oEXHepKO80LycFyi-LhW-1" source="MKQPsGIYn7UsomeNzt26-2" target="MKQPsGIYn7UsomeNzt26-6" edge="1">
          <mxGeometry relative="1" as="geometry" />
        </mxCell>
        <mxCell id="MKQPsGIYn7UsomeNzt26-2" value="choose question" style="rounded=1;whiteSpace=wrap;html=1;arcSize=40;fontColor=#000000;fillColor=#ffffc0;strokeColor=#ff0000;" parent="oEXHepKO80LycFyi-LhW-1" vertex="1">
          <mxGeometry x="260" y="180" width="120" height="40" as="geometry" />
        </mxCell>
        <mxCell id="MKQPsGIYn7UsomeNzt26-3" value="" style="edgeStyle=orthogonalEdgeStyle;rounded=1;orthogonalLoop=1;jettySize=auto;html=1;strokeColor=#FF0000;fontSize=6;align=left;" parent="oEXHepKO80LycFyi-LhW-1" source="MKQPsGIYn7UsomeNzt26-4" target="MKQPsGIYn7UsomeNzt26-13" edge="1">
          <mxGeometry relative="1" as="geometry" />
        </mxCell>
        <mxCell id="MKQPsGIYn7UsomeNzt26-4" value="submit" style="rounded=1;whiteSpace=wrap;html=1;arcSize=40;fontColor=#000000;fillColor=#ffffc0;strokeColor=#ff0000;" parent="oEXHepKO80LycFyi-LhW-1" vertex="1">
          <mxGeometry x="260" y="420" width="120" height="40" as="geometry" />
        </mxCell>
        <mxCell id="MKQPsGIYn7UsomeNzt26-5" value="" style="edgeStyle=orthogonalEdgeStyle;rounded=1;orthogonalLoop=1;jettySize=auto;html=1;strokeColor=#FF0000;" parent="oEXHepKO80LycFyi-LhW-1" source="MKQPsGIYn7UsomeNzt26-6" target="MKQPsGIYn7UsomeNzt26-9" edge="1">
          <mxGeometry relative="1" as="geometry" />
        </mxCell>
        <mxCell id="MKQPsGIYn7UsomeNzt26-6" value="place yourself on scale" style="rounded=1;whiteSpace=wrap;html=1;arcSize=40;fontColor=#000000;fillColor=#ffffc0;strokeColor=#ff0000;" parent="oEXHepKO80LycFyi-LhW-1" vertex="1">
          <mxGeometry x="260" y="260" width="120" height="40" as="geometry" />
        </mxCell>
        <mxCell id="MKQPsGIYn7UsomeNzt26-7" value="&lt;font style=&quot;font-size: 11px&quot;&gt;no&lt;/font&gt;" style="edgeStyle=orthogonalEdgeStyle;rounded=1;orthogonalLoop=1;jettySize=auto;html=1;strokeColor=#FF0000;verticalAlign=middle;align=left;fontSize=6;" parent="oEXHepKO80LycFyi-LhW-1" source="MKQPsGIYn7UsomeNzt26-9" target="MKQPsGIYn7UsomeNzt26-4" edge="1">
          <mxGeometry relative="1" as="geometry" />
        </mxCell>
        <mxCell id="MKQPsGIYn7UsomeNzt26-8" value="&lt;font style=&quot;font-size: 11px&quot;&gt;yes&lt;/font&gt;" style="edgeStyle=orthogonalEdgeStyle;rounded=1;orthogonalLoop=1;jettySize=auto;html=1;entryX=0;entryY=0.5;entryDx=0;entryDy=0;strokeColor=#FF0000;verticalAlign=bottom;align=center;fontSize=6;" parent="oEXHepKO80LycFyi-LhW-1" source="MKQPsGIYn7UsomeNzt26-9" target="MKQPsGIYn7UsomeNzt26-11" edge="1">
          <mxGeometry relative="1" as="geometry" />
        </mxCell>
        <mxCell id="MKQPsGIYn7UsomeNzt26-9" value="own explanation?" style="rhombus;whiteSpace=wrap;html=1;fillColor=#ffffc0;strokeColor=#ff0000;" parent="oEXHepKO80LycFyi-LhW-1" vertex="1">
          <mxGeometry x="310" y="350" width="20" height="20" as="geometry" />
        </mxCell>
        <mxCell id="MKQPsGIYn7UsomeNzt26-10" style="edgeStyle=orthogonalEdgeStyle;rounded=1;orthogonalLoop=1;jettySize=auto;html=1;entryX=1;entryY=0.5;entryDx=0;entryDy=0;strokeColor=#FF0000;exitX=0.5;exitY=1;exitDx=0;exitDy=0;" parent="oEXHepKO80LycFyi-LhW-1" source="MKQPsGIYn7UsomeNzt26-11" target="MKQPsGIYn7UsomeNzt26-4" edge="1">
          <mxGeometry relative="1" as="geometry" />
        </mxCell>
        <mxCell id="MKQPsGIYn7UsomeNzt26-11" value="write explanation" style="rounded=1;whiteSpace=wrap;html=1;arcSize=40;fontColor=#000000;fillColor=#ffffc0;strokeColor=#ff0000;" parent="oEXHepKO80LycFyi-LhW-1" vertex="1">
          <mxGeometry x="410" y="340" width="120" height="40" as="geometry" />
        </mxCell>
        <mxCell id="MKQPsGIYn7UsomeNzt26-13" value="view explanations" style="rounded=1;whiteSpace=wrap;html=1;arcSize=40;fontColor=#000000;fillColor=#ffffc0;strokeColor=#ff0000;" parent="oEXHepKO80LycFyi-LhW-1" vertex="1">
          <mxGeometry x="260" y="500" width="120" height="40" as="geometry" />
        </mxCell>
        <mxCell id="MKQPsGIYn7UsomeNzt26-14" value="[share opinion] " style="edgeStyle=orthogonalEdgeStyle;rounded=1;orthogonalLoop=1;jettySize=auto;html=1;strokeColor=#FF0000;fontSize=6;align=left;entryX=0.5;entryY=0;entryDx=0;entryDy=0;exitX=0.5;exitY=1;exitDx=0;exitDy=0;verticalAlign=top;" parent="oEXHepKO80LycFyi-LhW-1" source="MKQPsGIYn7UsomeNzt26-13" target="MKQPsGIYn7UsomeNzt26-19" edge="1">
          <mxGeometry relative="1" as="geometry">
            <mxPoint x="320" y="610" as="sourcePoint" />
            <Array as="points">
              <mxPoint x="320" y="610" />
            </Array>
          </mxGeometry>
        </mxCell>
        <mxCell id="MKQPsGIYn7UsomeNzt26-18" style="edgeStyle=orthogonalEdgeStyle;rounded=1;orthogonalLoop=1;jettySize=auto;html=1;entryX=0.5;entryY=0;entryDx=0;entryDy=0;strokeColor=#FF0000;fontSize=6;align=left;exitX=0.5;exitY=1;exitDx=0;exitDy=0;" parent="oEXHepKO80LycFyi-LhW-1" source="MKQPsGIYn7UsomeNzt26-19" target="o1nUrKmMVYRDREofs7_p-0" edge="1">
          <mxGeometry relative="1" as="geometry" />
        </mxCell>
        <mxCell id="MKQPsGIYn7UsomeNzt26-19" value="upvote/downvote" style="rounded=1;whiteSpace=wrap;html=1;arcSize=40;fontColor=#000000;fillColor=#ffffc0;strokeColor=#ff0000;" parent="oEXHepKO80LycFyi-LhW-1" vertex="1">
          <mxGeometry x="260" y="610" width="120" height="40" as="geometry" />
        </mxCell>
        <mxCell id="MKQPsGIYn7UsomeNzt26-24" value="" style="ellipse;html=1;shape=startState;fillColor=#000000;strokeColor=#ff0000;fontSize=14;align=left;" parent="oEXHepKO80LycFyi-LhW-1" vertex="1">
          <mxGeometry x="305" y="120" width="30" height="30" as="geometry" />
        </mxCell>
        <mxCell id="MKQPsGIYn7UsomeNzt26-25" value="" style="edgeStyle=orthogonalEdgeStyle;rounded=1;orthogonalLoop=1;jettySize=auto;html=1;dashed=1;endArrow=none;endFill=0;strokeColor=#000000;fontSize=6;align=left;" parent="oEXHepKO80LycFyi-LhW-1" source="MKQPsGIYn7UsomeNzt26-26" target="MKQPsGIYn7UsomeNzt26-13" edge="1">
          <mxGeometry relative="1" as="geometry" />
        </mxCell>
        <mxCell id="MKQPsGIYn7UsomeNzt26-26" value="vote number is unseen" style="shape=note;whiteSpace=wrap;html=1;backgroundOutline=1;darkOpacity=0.05;fillColor=none;gradientColor=none;fontSize=6;align=left;size=6;" parent="oEXHepKO80LycFyi-LhW-1" vertex="1">
          <mxGeometry x="160" y="510" width="70" height="20" as="geometry" />
        </mxCell>
        <mxCell id="MKQPsGIYn7UsomeNzt26-29" style="edgeStyle=orthogonalEdgeStyle;rounded=1;orthogonalLoop=1;jettySize=auto;html=1;exitX=0;exitY=0.5;exitDx=0;exitDy=0;exitPerimeter=0;entryX=1;entryY=0.5;entryDx=0;entryDy=0;dashed=1;endArrow=none;endFill=0;strokeColor=#000000;fontSize=6;align=left;" parent="oEXHepKO80LycFyi-LhW-1" source="MKQPsGIYn7UsomeNzt26-27" target="MKQPsGIYn7UsomeNzt26-19" edge="1">
          <mxGeometry relative="1" as="geometry" />
        </mxCell>
        <mxCell id="MKQPsGIYn7UsomeNzt26-27" value="vote number becomes permanently visible for that comment" style="shape=note;whiteSpace=wrap;html=1;backgroundOutline=1;darkOpacity=0.05;fillColor=none;gradientColor=none;fontSize=6;align=left;size=6;" parent="oEXHepKO80LycFyi-LhW-1" vertex="1">
          <mxGeometry x="425" y="615" width="75" height="30" as="geometry" />
        </mxCell>
        <mxCell id="109ZbRuxj1cQT07S5mLe-0" style="edgeStyle=orthogonalEdgeStyle;rounded=1;orthogonalLoop=1;jettySize=auto;html=1;entryX=0;entryY=0.5;entryDx=0;entryDy=0;dashed=1;endArrow=none;endFill=0;" parent="oEXHepKO80LycFyi-LhW-1" source="109ZbRuxj1cQT07S5mLe-1" target="MKQPsGIYn7UsomeNzt26-13" edge="1">
          <mxGeometry relative="1" as="geometry">
            <mxPoint x="282.5" y="540" as="targetPoint" />
          </mxGeometry>
        </mxCell>
        <mxCell id="109ZbRuxj1cQT07S5mLe-1" value="see &quot;other sides&quot; explanations" style="shape=note;whiteSpace=wrap;html=1;backgroundOutline=1;darkOpacity=0.05;fillColor=none;gradientColor=none;fontSize=6;align=center;size=6;" parent="oEXHepKO80LycFyi-LhW-1" vertex="1">
          <mxGeometry x="160" y="540" width="70" height="30" as="geometry" />
        </mxCell>
        <mxCell id="o1nUrKmMVYRDREofs7_p-0" value="view other explanation?" style="rhombus;whiteSpace=wrap;html=1;fillColor=#ffffc0;strokeColor=#ff0000;" vertex="1" parent="oEXHepKO80LycFyi-LhW-1">
          <mxGeometry x="310" y="680" width="20" height="20" as="geometry" />
        </mxCell>
        <mxCell id="lffE10yXHXR1lJezPEsd-0" style="edgeStyle=orthogonalEdgeStyle;rounded=1;orthogonalLoop=1;jettySize=auto;html=1;entryX=1;entryY=0.5;entryDx=0;entryDy=0;strokeColor=#FF0000;fontSize=6;align=left;exitX=1;exitY=0.5;exitDx=0;exitDy=0;" edge="1" parent="oEXHepKO80LycFyi-LhW-1" source="o1nUrKmMVYRDREofs7_p-0" target="MKQPsGIYn7UsomeNzt26-13">
          <mxGeometry relative="1" as="geometry">
            <mxPoint x="369" y="650" as="sourcePoint" />
            <mxPoint x="369" y="680" as="targetPoint" />
            <Array as="points">
              <mxPoint x="550" y="690" />
              <mxPoint x="550" y="520" />
            </Array>
          </mxGeometry>
        </mxCell>
        <mxCell id="lffE10yXHXR1lJezPEsd-3" value="" style="ellipse;html=1;shape=startState;fillColor=#000000;strokeColor=#ff0000;fontSize=14;align=left;" vertex="1" parent="oEXHepKO80LycFyi-LhW-1">
          <mxGeometry x="305" y="730" width="30" height="30" as="geometry" />
        </mxCell>
        <mxCell id="lffE10yXHXR1lJezPEsd-4" style="edgeStyle=orthogonalEdgeStyle;rounded=1;orthogonalLoop=1;jettySize=auto;html=1;entryX=0.5;entryY=0;entryDx=0;entryDy=0;strokeColor=#FF0000;fontSize=6;align=left;" edge="1" parent="oEXHepKO80LycFyi-LhW-1" target="lffE10yXHXR1lJezPEsd-3">
          <mxGeometry relative="1" as="geometry">
            <mxPoint x="320" y="700" as="sourcePoint" />
            <mxPoint x="320" y="680" as="targetPoint" />
          </mxGeometry>
        </mxCell>
      </root>
    </mxGraphModel>
  </diagram>
  <diagram id="sVCzi_lUagf4hgPATLQP" name="Old Diagrams">
    <mxGraphModel dx="1865" dy="1716" grid="1" gridSize="10" guides="1" tooltips="1" connect="1" arrows="1" fold="1" page="1" pageScale="1" pageWidth="827" pageHeight="1169" math="0" shadow="0">
      <root>
        <mxCell id="0" />
        <mxCell id="1" parent="0" />
        <mxCell id="wnivAxLNJLn-0W5NieNY-12" style="edgeStyle=orthogonalEdgeStyle;rounded=0;orthogonalLoop=1;jettySize=auto;html=1;entryX=1;entryY=0.5;entryDx=0;entryDy=0;exitX=0.5;exitY=1;exitDx=0;exitDy=0;" parent="1" source="wnivAxLNJLn-0W5NieNY-2" target="wnivAxLNJLn-0W5NieNY-5" edge="1">
          <mxGeometry relative="1" as="geometry">
            <Array as="points">
              <mxPoint x="560" y="200" />
            </Array>
          </mxGeometry>
        </mxCell>
        <mxCell id="wnivAxLNJLn-0W5NieNY-2" value="Registration" style="rounded=0;whiteSpace=wrap;html=1;" parent="1" vertex="1">
          <mxGeometry x="500" y="95" width="120" height="40" as="geometry" />
        </mxCell>
        <mxCell id="wnivAxLNJLn-0W5NieNY-18" style="edgeStyle=orthogonalEdgeStyle;rounded=0;orthogonalLoop=1;jettySize=auto;html=1;exitX=0.5;exitY=1;exitDx=0;exitDy=0;entryX=0.5;entryY=0;entryDx=0;entryDy=0;" parent="1" source="wnivAxLNJLn-0W5NieNY-5" target="wnivAxLNJLn-0W5NieNY-26" edge="1">
          <mxGeometry relative="1" as="geometry">
            <mxPoint x="330" y="230" as="targetPoint" />
            <Array as="points">
              <mxPoint x="414" y="230" />
            </Array>
          </mxGeometry>
        </mxCell>
        <mxCell id="wnivAxLNJLn-0W5NieNY-5" value="Log-In" style="rounded=0;whiteSpace=wrap;html=1;" parent="1" vertex="1">
          <mxGeometry x="354" y="180" width="120" height="40" as="geometry" />
        </mxCell>
        <mxCell id="wnivAxLNJLn-0W5NieNY-8" value="" style="edgeStyle=orthogonalEdgeStyle;html=1;verticalAlign=bottom;endArrow=open;endSize=8;strokeColor=#ff0000;entryX=0.5;entryY=0;entryDx=0;entryDy=0;" parent="1" source="wnivAxLNJLn-0W5NieNY-7" target="wnivAxLNJLn-0W5NieNY-9" edge="1">
          <mxGeometry relative="1" as="geometry">
            <mxPoint x="414" y="120" as="targetPoint" />
            <mxPoint x="414" y="60" as="sourcePoint" />
          </mxGeometry>
        </mxCell>
        <mxCell id="wnivAxLNJLn-0W5NieNY-9" value="Registered user" style="rhombus;whiteSpace=wrap;html=1;fillColor=#ffffc0;strokeColor=#ff0000;" parent="1" vertex="1">
          <mxGeometry x="360.5" y="80" width="107" height="70" as="geometry" />
        </mxCell>
        <mxCell id="wnivAxLNJLn-0W5NieNY-10" value="no" style="edgeStyle=orthogonalEdgeStyle;html=1;align=left;verticalAlign=bottom;endArrow=open;endSize=8;" parent="1" source="wnivAxLNJLn-0W5NieNY-9" edge="1">
          <mxGeometry x="-0.8605" y="5" relative="1" as="geometry">
            <mxPoint x="500" y="115" as="targetPoint" />
            <mxPoint as="offset" />
          </mxGeometry>
        </mxCell>
        <mxCell id="wnivAxLNJLn-0W5NieNY-11" value="yes" style="edgeStyle=orthogonalEdgeStyle;html=1;align=left;verticalAlign=top;endArrow=open;endSize=8;entryX=0.5;entryY=0;entryDx=0;entryDy=0;" parent="1" source="wnivAxLNJLn-0W5NieNY-9" target="wnivAxLNJLn-0W5NieNY-5" edge="1">
          <mxGeometry x="-1" y="16" relative="1" as="geometry">
            <mxPoint x="414" y="210" as="targetPoint" />
            <mxPoint as="offset" />
          </mxGeometry>
        </mxCell>
        <mxCell id="wnivAxLNJLn-0W5NieNY-24" style="edgeStyle=orthogonalEdgeStyle;rounded=0;orthogonalLoop=1;jettySize=auto;html=1;entryX=0.5;entryY=0;entryDx=0;entryDy=0;exitX=0;exitY=1;exitDx=0;exitDy=0;startArrow=classic;startFill=1;" parent="1" source="wnivAxLNJLn-0W5NieNY-17" target="wnivAxLNJLn-0W5NieNY-20" edge="1">
          <mxGeometry relative="1" as="geometry">
            <Array as="points">
              <mxPoint x="70" y="376" />
            </Array>
          </mxGeometry>
        </mxCell>
        <mxCell id="wnivAxLNJLn-0W5NieNY-35" style="edgeStyle=orthogonalEdgeStyle;rounded=0;orthogonalLoop=1;jettySize=auto;html=1;exitX=0.5;exitY=1;exitDx=0;exitDy=0;strokeColor=#000000;" parent="1" source="wnivAxLNJLn-0W5NieNY-17" target="wnivAxLNJLn-0W5NieNY-36" edge="1">
          <mxGeometry relative="1" as="geometry">
            <mxPoint x="414" y="400" as="targetPoint" />
          </mxGeometry>
        </mxCell>
        <mxCell id="_zkGkWLVWlLztBYLnL0w-12" style="edgeStyle=orthogonalEdgeStyle;rounded=0;orthogonalLoop=1;jettySize=auto;html=1;exitX=-0.117;exitY=0.26;exitDx=0;exitDy=0;entryX=0.5;entryY=1;entryDx=0;entryDy=0;exitPerimeter=0;" parent="1" source="wnivAxLNJLn-0W5NieNY-17" target="_zkGkWLVWlLztBYLnL0w-11" edge="1">
          <mxGeometry relative="1" as="geometry">
            <Array as="points">
              <mxPoint x="396" y="360" />
              <mxPoint x="70" y="360" />
            </Array>
          </mxGeometry>
        </mxCell>
        <mxCell id="wnivAxLNJLn-0W5NieNY-17" value="" style="shape=sumEllipse;perimeter=ellipsePerimeter;whiteSpace=wrap;html=1;backgroundOutline=1;" parent="1" vertex="1">
          <mxGeometry x="399" y="350" width="29" height="30" as="geometry" />
        </mxCell>
        <mxCell id="wnivAxLNJLn-0W5NieNY-20" value="Create new questions" style="rounded=0;whiteSpace=wrap;html=1;fillColor=#f5f5f5;strokeColor=#666666;fontColor=#333333;" parent="1" vertex="1">
          <mxGeometry x="10" y="400" width="120" height="40" as="geometry" />
        </mxCell>
        <mxCell id="_zkGkWLVWlLztBYLnL0w-24" style="edgeStyle=orthogonalEdgeStyle;rounded=0;orthogonalLoop=1;jettySize=auto;html=1;entryX=0;entryY=1;entryDx=0;entryDy=0;exitX=0.5;exitY=0;exitDx=0;exitDy=0;startArrow=classic;startFill=1;" parent="1" source="wnivAxLNJLn-0W5NieNY-22" target="wnivAxLNJLn-0W5NieNY-17" edge="1">
          <mxGeometry relative="1" as="geometry">
            <Array as="points">
              <mxPoint x="200" y="390" />
              <mxPoint x="403" y="390" />
            </Array>
          </mxGeometry>
        </mxCell>
        <mxCell id="wnivAxLNJLn-0W5NieNY-22" value="Up-/ Downvote questions" style="rounded=0;whiteSpace=wrap;html=1;fillColor=#f5f5f5;strokeColor=#666666;fontColor=#333333;" parent="1" vertex="1">
          <mxGeometry x="140" y="400" width="120" height="40" as="geometry" />
        </mxCell>
        <mxCell id="wnivAxLNJLn-0W5NieNY-34" style="edgeStyle=orthogonalEdgeStyle;rounded=0;orthogonalLoop=1;jettySize=auto;html=1;entryX=1;entryY=0.5;entryDx=0;entryDy=0;strokeColor=#000000;" parent="1" source="wnivAxLNJLn-0W5NieNY-25" target="wnivAxLNJLn-0W5NieNY-17" edge="1">
          <mxGeometry relative="1" as="geometry">
            <Array as="points">
              <mxPoint x="700" y="365" />
            </Array>
          </mxGeometry>
        </mxCell>
        <mxCell id="wnivAxLNJLn-0W5NieNY-25" value="Guidelines for debating" style="rounded=0;whiteSpace=wrap;html=1;" parent="1" vertex="1">
          <mxGeometry x="650" y="265" width="120" height="40" as="geometry" />
        </mxCell>
        <mxCell id="wnivAxLNJLn-0W5NieNY-26" value="First Log-In" style="rhombus;whiteSpace=wrap;html=1;fillColor=#ffffc0;strokeColor=#ff0000;" parent="1" vertex="1">
          <mxGeometry x="360" y="250" width="107" height="70" as="geometry" />
        </mxCell>
        <mxCell id="wnivAxLNJLn-0W5NieNY-29" style="edgeStyle=orthogonalEdgeStyle;rounded=0;orthogonalLoop=1;jettySize=auto;html=1;exitX=1;exitY=0.5;exitDx=0;exitDy=0;entryX=0;entryY=0.5;entryDx=0;entryDy=0;strokeColor=#000000;" parent="1" source="wnivAxLNJLn-0W5NieNY-27" target="wnivAxLNJLn-0W5NieNY-25" edge="1">
          <mxGeometry relative="1" as="geometry" />
        </mxCell>
        <mxCell id="wnivAxLNJLn-0W5NieNY-27" value="Introduction of App" style="rounded=0;whiteSpace=wrap;html=1;" parent="1" vertex="1">
          <mxGeometry x="500" y="265" width="120" height="40" as="geometry" />
        </mxCell>
        <mxCell id="wnivAxLNJLn-0W5NieNY-30" value="no" style="edgeStyle=orthogonalEdgeStyle;html=1;align=left;verticalAlign=bottom;endArrow=open;endSize=8;exitX=1;exitY=0.5;exitDx=0;exitDy=0;entryX=0;entryY=0.5;entryDx=0;entryDy=0;" parent="1" source="wnivAxLNJLn-0W5NieNY-26" target="wnivAxLNJLn-0W5NieNY-27" edge="1">
          <mxGeometry x="-1" y="-95" relative="1" as="geometry">
            <mxPoint x="510" y="125" as="targetPoint" />
            <mxPoint x="477.5" y="125" as="sourcePoint" />
            <mxPoint x="-77" y="-40" as="offset" />
          </mxGeometry>
        </mxCell>
        <mxCell id="wnivAxLNJLn-0W5NieNY-32" value="yes" style="edgeStyle=orthogonalEdgeStyle;html=1;align=left;verticalAlign=top;endArrow=open;endSize=8;entryX=0.5;entryY=0;entryDx=0;entryDy=0;" parent="1" target="wnivAxLNJLn-0W5NieNY-17" edge="1">
          <mxGeometry x="-0.0154" y="-64" relative="1" as="geometry">
            <mxPoint x="424" y="190" as="targetPoint" />
            <mxPoint x="414" y="320" as="sourcePoint" />
            <mxPoint x="111" y="-45" as="offset" />
          </mxGeometry>
        </mxCell>
        <mxCell id="wnivAxLNJLn-0W5NieNY-38" style="edgeStyle=orthogonalEdgeStyle;rounded=0;orthogonalLoop=1;jettySize=auto;html=1;entryX=0.5;entryY=0;entryDx=0;entryDy=0;strokeColor=#000000;" parent="1" source="wnivAxLNJLn-0W5NieNY-36" target="wnivAxLNJLn-0W5NieNY-37" edge="1">
          <mxGeometry relative="1" as="geometry" />
        </mxCell>
        <mxCell id="wnivAxLNJLn-0W5NieNY-36" value="Click on question" style="rounded=0;whiteSpace=wrap;html=1;" parent="1" vertex="1">
          <mxGeometry x="354" y="410" width="120" height="40" as="geometry" />
        </mxCell>
        <mxCell id="wnivAxLNJLn-0W5NieNY-40" style="edgeStyle=orthogonalEdgeStyle;rounded=0;orthogonalLoop=1;jettySize=auto;html=1;strokeColor=#000000;entryX=0;entryY=0.5;entryDx=0;entryDy=0;" parent="1" source="wnivAxLNJLn-0W5NieNY-37" target="wnivAxLNJLn-0W5NieNY-39" edge="1">
          <mxGeometry relative="1" as="geometry">
            <mxPoint x="710" y="310" as="targetPoint" />
            <Array as="points" />
          </mxGeometry>
        </mxCell>
        <mxCell id="wnivAxLNJLn-0W5NieNY-44" style="edgeStyle=orthogonalEdgeStyle;rounded=0;orthogonalLoop=1;jettySize=auto;html=1;entryX=0.5;entryY=0;entryDx=0;entryDy=0;strokeColor=#000000;" parent="1" source="wnivAxLNJLn-0W5NieNY-37" target="wnivAxLNJLn-0W5NieNY-43" edge="1">
          <mxGeometry relative="1" as="geometry" />
        </mxCell>
        <mxCell id="wnivAxLNJLn-0W5NieNY-37" value="Scale your opinion" style="rounded=0;whiteSpace=wrap;html=1;" parent="1" vertex="1">
          <mxGeometry x="354" y="480" width="120" height="40" as="geometry" />
        </mxCell>
        <mxCell id="wnivAxLNJLn-0W5NieNY-42" style="edgeStyle=orthogonalEdgeStyle;rounded=0;orthogonalLoop=1;jettySize=auto;html=1;entryX=0;entryY=0.5;entryDx=0;entryDy=0;strokeColor=#000000;" parent="1" source="wnivAxLNJLn-0W5NieNY-39" target="wnivAxLNJLn-0W5NieNY-41" edge="1">
          <mxGeometry relative="1" as="geometry" />
        </mxCell>
        <mxCell id="wnivAxLNJLn-0W5NieNY-47" style="edgeStyle=orthogonalEdgeStyle;rounded=0;orthogonalLoop=1;jettySize=auto;html=1;entryX=1;entryY=0.25;entryDx=0;entryDy=0;strokeColor=#000000;" parent="1" source="wnivAxLNJLn-0W5NieNY-39" target="wnivAxLNJLn-0W5NieNY-43" edge="1">
          <mxGeometry relative="1" as="geometry">
            <Array as="points">
              <mxPoint x="560" y="560" />
            </Array>
          </mxGeometry>
        </mxCell>
        <mxCell id="wnivAxLNJLn-0W5NieNY-39" value="Guidelines for debating (short)" style="rounded=0;whiteSpace=wrap;html=1;dashed=1;" parent="1" vertex="1">
          <mxGeometry x="500" y="480" width="120" height="40" as="geometry" />
        </mxCell>
        <mxCell id="wnivAxLNJLn-0W5NieNY-45" style="edgeStyle=orthogonalEdgeStyle;rounded=0;orthogonalLoop=1;jettySize=auto;html=1;entryX=1;entryY=0.5;entryDx=0;entryDy=0;strokeColor=#000000;" parent="1" source="wnivAxLNJLn-0W5NieNY-41" target="wnivAxLNJLn-0W5NieNY-43" edge="1">
          <mxGeometry relative="1" as="geometry">
            <Array as="points">
              <mxPoint x="672" y="570" />
            </Array>
          </mxGeometry>
        </mxCell>
        <mxCell id="wnivAxLNJLn-0W5NieNY-49" style="edgeStyle=orthogonalEdgeStyle;rounded=0;orthogonalLoop=1;jettySize=auto;html=1;exitX=1;exitY=0.5;exitDx=0;exitDy=0;entryX=0.75;entryY=0;entryDx=0;entryDy=0;strokeColor=#000000;" parent="1" source="wnivAxLNJLn-0W5NieNY-41" target="zCyz3ce_a4fP4JThXpL--30" edge="1">
          <mxGeometry relative="1" as="geometry" />
        </mxCell>
        <mxCell id="wnivAxLNJLn-0W5NieNY-41" value="Stating explanation" style="rounded=0;whiteSpace=wrap;html=1;dashed=1;" parent="1" vertex="1">
          <mxGeometry x="650" y="480" width="120" height="40" as="geometry" />
        </mxCell>
        <mxCell id="_zkGkWLVWlLztBYLnL0w-2" style="edgeStyle=orthogonalEdgeStyle;rounded=0;orthogonalLoop=1;jettySize=auto;html=1;entryX=0.5;entryY=0;entryDx=0;entryDy=0;" parent="1" source="wnivAxLNJLn-0W5NieNY-43" edge="1">
          <mxGeometry relative="1" as="geometry">
            <mxPoint x="414.5" y="620" as="targetPoint" />
            <Array as="points">
              <mxPoint x="414" y="610" />
            </Array>
          </mxGeometry>
        </mxCell>
        <mxCell id="wnivAxLNJLn-0W5NieNY-43" value="Submit" style="rounded=0;whiteSpace=wrap;html=1;" parent="1" vertex="1">
          <mxGeometry x="354" y="550" width="120" height="40" as="geometry" />
        </mxCell>
        <mxCell id="wnivAxLNJLn-0W5NieNY-46" value="Vote answers for impact&amp;nbsp;" style="rounded=0;whiteSpace=wrap;html=1;fillColor=#fff2cc;strokeColor=#d6b656;" parent="1" vertex="1">
          <mxGeometry x="-481" y="1240" width="120" height="40" as="geometry" />
        </mxCell>
        <mxCell id="wnivAxLNJLn-0W5NieNY-50" style="edgeStyle=orthogonalEdgeStyle;rounded=0;orthogonalLoop=1;jettySize=auto;html=1;entryX=1;entryY=1;entryDx=0;entryDy=0;strokeColor=#000000;exitX=0;exitY=0.5;exitDx=0;exitDy=0;" parent="1" source="wnivAxLNJLn-0W5NieNY-48" target="wnivAxLNJLn-0W5NieNY-43" edge="1">
          <mxGeometry relative="1" as="geometry">
            <Array as="points">
              <mxPoint x="630" y="620" />
              <mxPoint x="630" y="590" />
            </Array>
          </mxGeometry>
        </mxCell>
        <mxCell id="wnivAxLNJLn-0W5NieNY-48" value="Add Source" style="rounded=0;whiteSpace=wrap;html=1;dashed=1;" parent="1" vertex="1">
          <mxGeometry x="700" y="600" width="120" height="40" as="geometry" />
        </mxCell>
        <mxCell id="_zkGkWLVWlLztBYLnL0w-6" value="Filter explanations" style="rounded=0;whiteSpace=wrap;html=1;fillColor=#fff2cc;strokeColor=#d6b656;" parent="1" vertex="1">
          <mxGeometry x="-140" y="1220" width="120" height="40" as="geometry" />
        </mxCell>
        <mxCell id="_zkGkWLVWlLztBYLnL0w-11" value="Create face to face room" style="rounded=0;whiteSpace=wrap;html=1;fillColor=#f5f5f5;strokeColor=#666666;fontColor=#333333;" parent="1" vertex="1">
          <mxGeometry x="10" y="290" width="120" height="40" as="geometry" />
        </mxCell>
        <mxCell id="_zkGkWLVWlLztBYLnL0w-13" value="Vote user for impact&amp;nbsp;" style="rounded=0;whiteSpace=wrap;html=1;fillColor=#fff2cc;strokeColor=#d6b656;" parent="1" vertex="1">
          <mxGeometry x="-670" y="1340" width="120" height="40" as="geometry" />
        </mxCell>
        <mxCell id="_zkGkWLVWlLztBYLnL0w-15" value="Up / Downvote&amp;nbsp;&lt;br&gt;" style="rounded=0;whiteSpace=wrap;html=1;fillColor=#fff2cc;strokeColor=#d6b656;" parent="1" vertex="1">
          <mxGeometry x="-481" y="1290" width="120" height="40" as="geometry" />
        </mxCell>
        <mxCell id="_zkGkWLVWlLztBYLnL0w-22" value="Visibility" style="rounded=0;whiteSpace=wrap;html=1;fillColor=#fff2cc;strokeColor=#d6b656;" parent="1" vertex="1">
          <mxGeometry x="-481" y="1340" width="120" height="40" as="geometry" />
        </mxCell>
        <mxCell id="_zkGkWLVWlLztBYLnL0w-26" value="(un)limited ressources" style="rounded=0;whiteSpace=wrap;html=1;fillColor=#fff2cc;strokeColor=#d6b656;" parent="1" vertex="1">
          <mxGeometry x="-670" y="1280" width="120" height="40" as="geometry" />
        </mxCell>
        <mxCell id="_zkGkWLVWlLztBYLnL0w-29" value="vote categories" style="rounded=0;whiteSpace=wrap;html=1;fillColor=#fff2cc;strokeColor=#d6b656;" parent="1" vertex="1">
          <mxGeometry x="-270" y="1220" width="120" height="40" as="geometry" />
        </mxCell>
        <mxCell id="_zkGkWLVWlLztBYLnL0w-30" value="groupify explanation under keyword" style="rounded=0;whiteSpace=wrap;html=1;fillColor=#fff2cc;strokeColor=#d6b656;" parent="1" vertex="1">
          <mxGeometry x="-270" y="1280" width="120" height="40" as="geometry" />
        </mxCell>
        <mxCell id="_zkGkWLVWlLztBYLnL0w-31" value="vote connection to existing explanation" style="rounded=0;whiteSpace=wrap;html=1;fillColor=#fff2cc;strokeColor=#d6b656;" parent="1" vertex="1">
          <mxGeometry x="-270" y="1340" width="120" height="40" as="geometry" />
        </mxCell>
        <mxCell id="_zkGkWLVWlLztBYLnL0w-32" value="Possibility to change scale positioning after reading" style="rounded=0;whiteSpace=wrap;html=1;" parent="1" vertex="1">
          <mxGeometry x="-396" y="1440" width="120" height="40" as="geometry" />
        </mxCell>
        <mxCell id="_zkGkWLVWlLztBYLnL0w-33" value="scaling might not be connected to explanation&amp;nbsp;" style="rounded=0;whiteSpace=wrap;html=1;" parent="1" vertex="1">
          <mxGeometry x="-545" y="1440" width="120" height="40" as="geometry" />
        </mxCell>
        <mxCell id="_zkGkWLVWlLztBYLnL0w-34" value="foster understanding means beeing able to switch positions" style="rounded=0;whiteSpace=wrap;html=1;" parent="1" vertex="1">
          <mxGeometry x="-244" y="1440" width="120" height="40" as="geometry" />
        </mxCell>
        <mxCell id="_zkGkWLVWlLztBYLnL0w-35" value="Rating: How close first scaling was to final community average" style="rounded=0;whiteSpace=wrap;html=1;" parent="1" vertex="1">
          <mxGeometry x="-463.5" y="1500" width="119.5" height="70" as="geometry" />
        </mxCell>
        <mxCell id="zCyz3ce_a4fP4JThXpL--12" style="edgeStyle=orthogonalEdgeStyle;rounded=0;orthogonalLoop=1;jettySize=auto;html=1;entryX=0.324;entryY=-0.008;entryDx=0;entryDy=0;entryPerimeter=0;exitX=1.003;exitY=0.618;exitDx=0;exitDy=0;exitPerimeter=0;" parent="1" source="zCyz3ce_a4fP4JThXpL--3" target="zCyz3ce_a4fP4JThXpL--11" edge="1">
          <mxGeometry relative="1" as="geometry">
            <mxPoint x="395" y="680" as="sourcePoint" />
          </mxGeometry>
        </mxCell>
        <mxCell id="zCyz3ce_a4fP4JThXpL--19" style="edgeStyle=orthogonalEdgeStyle;rounded=0;orthogonalLoop=1;jettySize=auto;html=1;entryX=0.5;entryY=0;entryDx=0;entryDy=0;exitX=0;exitY=0.75;exitDx=0;exitDy=0;" parent="1" source="zCyz3ce_a4fP4JThXpL--3" target="zCyz3ce_a4fP4JThXpL--18" edge="1">
          <mxGeometry relative="1" as="geometry" />
        </mxCell>
        <mxCell id="zCyz3ce_a4fP4JThXpL--25" style="edgeStyle=orthogonalEdgeStyle;rounded=0;orthogonalLoop=1;jettySize=auto;html=1;" parent="1" source="zCyz3ce_a4fP4JThXpL--3" target="zCyz3ce_a4fP4JThXpL--23" edge="1">
          <mxGeometry relative="1" as="geometry" />
        </mxCell>
        <mxCell id="zCyz3ce_a4fP4JThXpL--27" style="edgeStyle=orthogonalEdgeStyle;rounded=0;orthogonalLoop=1;jettySize=auto;html=1;entryX=0.5;entryY=0;entryDx=0;entryDy=0;" parent="1" source="zCyz3ce_a4fP4JThXpL--3" target="zCyz3ce_a4fP4JThXpL--26" edge="1">
          <mxGeometry relative="1" as="geometry" />
        </mxCell>
        <mxCell id="zCyz3ce_a4fP4JThXpL--3" value="question landing page:&lt;br&gt;see explanations and distribution in bars" style="rounded=0;whiteSpace=wrap;html=1;" parent="1" vertex="1">
          <mxGeometry x="354" y="620" width="116" height="70" as="geometry" />
        </mxCell>
        <mxCell id="zCyz3ce_a4fP4JThXpL--5" value="&amp;lt;optional&amp;gt;: sort for latest (timely)" style="rounded=0;whiteSpace=wrap;html=1;dashed=1;" parent="1" vertex="1">
          <mxGeometry x="720" y="715" width="80" height="85" as="geometry" />
        </mxCell>
        <mxCell id="zCyz3ce_a4fP4JThXpL--7" value="&amp;lt;optional&amp;gt;: sort on the rise (combination of latest and many upvotes)" style="rounded=0;whiteSpace=wrap;html=1;dashed=1;" parent="1" vertex="1">
          <mxGeometry x="628" y="715" width="90" height="85" as="geometry" />
        </mxCell>
        <mxCell id="zCyz3ce_a4fP4JThXpL--13" style="edgeStyle=orthogonalEdgeStyle;rounded=0;orthogonalLoop=1;jettySize=auto;html=1;entryX=1.003;entryY=0.377;entryDx=0;entryDy=0;entryPerimeter=0;exitX=0.684;exitY=-0.007;exitDx=0;exitDy=0;exitPerimeter=0;" parent="1" source="zCyz3ce_a4fP4JThXpL--11" target="zCyz3ce_a4fP4JThXpL--3" edge="1">
          <mxGeometry relative="1" as="geometry">
            <mxPoint x="438" y="682" as="targetPoint" />
            <Array as="points" />
          </mxGeometry>
        </mxCell>
        <mxCell id="zCyz3ce_a4fP4JThXpL--11" value="filter&lt;br&gt;&amp;lt;default&amp;gt;:&amp;nbsp;&lt;span style=&quot;font-family: &amp;#34;helvetica&amp;#34;&quot;&gt;comments sorted by most upvoted and &lt;b&gt;contrary &lt;/b&gt;bar scale&lt;/span&gt;" style="rounded=0;whiteSpace=wrap;html=1;" parent="1" vertex="1">
          <mxGeometry x="500" y="715" width="126" height="85" as="geometry" />
        </mxCell>
        <mxCell id="zCyz3ce_a4fP4JThXpL--18" value="Up / Downvote explanations" style="rounded=0;whiteSpace=wrap;html=1;" parent="1" vertex="1">
          <mxGeometry x="210" y="715" width="126" height="60" as="geometry" />
        </mxCell>
        <mxCell id="zCyz3ce_a4fP4JThXpL--23" value="comment explanations" style="rounded=0;whiteSpace=wrap;html=1;" parent="1" vertex="1">
          <mxGeometry x="349" y="715" width="126" height="60" as="geometry" />
        </mxCell>
        <mxCell id="zCyz3ce_a4fP4JThXpL--29" style="edgeStyle=orthogonalEdgeStyle;rounded=0;orthogonalLoop=1;jettySize=auto;html=1;" parent="1" source="zCyz3ce_a4fP4JThXpL--26" target="zCyz3ce_a4fP4JThXpL--28" edge="1">
          <mxGeometry relative="1" as="geometry" />
        </mxCell>
        <mxCell id="zCyz3ce_a4fP4JThXpL--26" value="click on explanation to see comments" style="rounded=0;whiteSpace=wrap;html=1;" parent="1" vertex="1">
          <mxGeometry x="60" y="715" width="126" height="60" as="geometry" />
        </mxCell>
        <mxCell id="zCyz3ce_a4fP4JThXpL--28" value="comment comments" style="rounded=0;whiteSpace=wrap;html=1;" parent="1" vertex="1">
          <mxGeometry x="60" y="800" width="126" height="60" as="geometry" />
        </mxCell>
        <mxCell id="zCyz3ce_a4fP4JThXpL--31" style="edgeStyle=orthogonalEdgeStyle;rounded=0;orthogonalLoop=1;jettySize=auto;html=1;exitX=0.75;exitY=1;exitDx=0;exitDy=0;entryX=0.75;entryY=0;entryDx=0;entryDy=0;" parent="1" source="zCyz3ce_a4fP4JThXpL--30" target="wnivAxLNJLn-0W5NieNY-48" edge="1">
          <mxGeometry relative="1" as="geometry" />
        </mxCell>
        <mxCell id="zCyz3ce_a4fP4JThXpL--32" style="edgeStyle=orthogonalEdgeStyle;rounded=0;orthogonalLoop=1;jettySize=auto;html=1;entryX=1;entryY=0.75;entryDx=0;entryDy=0;exitX=0;exitY=0.5;exitDx=0;exitDy=0;" parent="1" source="zCyz3ce_a4fP4JThXpL--30" target="wnivAxLNJLn-0W5NieNY-43" edge="1">
          <mxGeometry relative="1" as="geometry">
            <mxPoint x="480" y="580" as="targetPoint" />
            <Array as="points">
              <mxPoint x="690" y="560" />
              <mxPoint x="690" y="580" />
            </Array>
          </mxGeometry>
        </mxCell>
        <mxCell id="zCyz3ce_a4fP4JThXpL--30" value="Add tags" style="rounded=0;whiteSpace=wrap;html=1;dashed=1;" parent="1" vertex="1">
          <mxGeometry x="700" y="540" width="120" height="40" as="geometry" />
        </mxCell>
        <mxCell id="zCyz3ce_a4fP4JThXpL--88" style="edgeStyle=orthogonalEdgeStyle;rounded=0;orthogonalLoop=1;jettySize=auto;html=1;entryX=1;entryY=0.5;entryDx=0;entryDy=0;exitX=0.5;exitY=1;exitDx=0;exitDy=0;" parent="1" source="zCyz3ce_a4fP4JThXpL--89" target="zCyz3ce_a4fP4JThXpL--91" edge="1">
          <mxGeometry relative="1" as="geometry">
            <Array as="points">
              <mxPoint x="1394" y="210" />
            </Array>
          </mxGeometry>
        </mxCell>
        <mxCell id="zCyz3ce_a4fP4JThXpL--89" value="Registration" style="rounded=0;whiteSpace=wrap;html=1;" parent="1" vertex="1">
          <mxGeometry x="1334" y="105" width="120" height="40" as="geometry" />
        </mxCell>
        <mxCell id="zCyz3ce_a4fP4JThXpL--90" style="edgeStyle=orthogonalEdgeStyle;rounded=0;orthogonalLoop=1;jettySize=auto;html=1;exitX=0.5;exitY=1;exitDx=0;exitDy=0;entryX=0.5;entryY=0;entryDx=0;entryDy=0;" parent="1" source="zCyz3ce_a4fP4JThXpL--91" target="zCyz3ce_a4fP4JThXpL--106" edge="1">
          <mxGeometry relative="1" as="geometry">
            <mxPoint x="1164" y="240" as="targetPoint" />
            <Array as="points">
              <mxPoint x="1248" y="240" />
            </Array>
          </mxGeometry>
        </mxCell>
        <mxCell id="zCyz3ce_a4fP4JThXpL--91" value="Log-In" style="rounded=0;whiteSpace=wrap;html=1;" parent="1" vertex="1">
          <mxGeometry x="1188" y="190" width="120" height="40" as="geometry" />
        </mxCell>
        <mxCell id="zCyz3ce_a4fP4JThXpL--92" value="" style="ellipse;html=1;shape=startState;fillColor=#000000;strokeColor=#ff0000;" parent="1" vertex="1">
          <mxGeometry x="1233" y="40" width="30" height="30" as="geometry" />
        </mxCell>
        <mxCell id="zCyz3ce_a4fP4JThXpL--93" value="" style="edgeStyle=orthogonalEdgeStyle;html=1;verticalAlign=bottom;endArrow=open;endSize=8;strokeColor=#ff0000;entryX=0.5;entryY=0;entryDx=0;entryDy=0;" parent="1" source="zCyz3ce_a4fP4JThXpL--92" target="zCyz3ce_a4fP4JThXpL--94" edge="1">
          <mxGeometry relative="1" as="geometry">
            <mxPoint x="1248" y="130" as="targetPoint" />
          </mxGeometry>
        </mxCell>
        <mxCell id="zCyz3ce_a4fP4JThXpL--94" value="Registered user" style="rhombus;whiteSpace=wrap;html=1;fillColor=#ffffc0;strokeColor=#ff0000;" parent="1" vertex="1">
          <mxGeometry x="1194.5" y="90" width="107" height="70" as="geometry" />
        </mxCell>
        <mxCell id="zCyz3ce_a4fP4JThXpL--95" value="no" style="edgeStyle=orthogonalEdgeStyle;html=1;align=left;verticalAlign=bottom;endArrow=open;endSize=8;" parent="1" source="zCyz3ce_a4fP4JThXpL--94" edge="1">
          <mxGeometry x="-0.8605" y="5" relative="1" as="geometry">
            <mxPoint x="1334" y="125" as="targetPoint" />
            <mxPoint as="offset" />
          </mxGeometry>
        </mxCell>
        <mxCell id="zCyz3ce_a4fP4JThXpL--96" value="yes" style="edgeStyle=orthogonalEdgeStyle;html=1;align=left;verticalAlign=top;endArrow=open;endSize=8;entryX=0.5;entryY=0;entryDx=0;entryDy=0;" parent="1" source="zCyz3ce_a4fP4JThXpL--94" target="zCyz3ce_a4fP4JThXpL--91" edge="1">
          <mxGeometry x="-1" y="16" relative="1" as="geometry">
            <mxPoint x="1248" y="220" as="targetPoint" />
            <mxPoint as="offset" />
          </mxGeometry>
        </mxCell>
        <mxCell id="zCyz3ce_a4fP4JThXpL--97" style="edgeStyle=orthogonalEdgeStyle;rounded=0;orthogonalLoop=1;jettySize=auto;html=1;entryX=0.5;entryY=0;entryDx=0;entryDy=0;exitX=0;exitY=1;exitDx=0;exitDy=0;startArrow=classic;startFill=1;" parent="1" source="zCyz3ce_a4fP4JThXpL--100" target="zCyz3ce_a4fP4JThXpL--101" edge="1">
          <mxGeometry relative="1" as="geometry">
            <Array as="points">
              <mxPoint x="904" y="386" />
            </Array>
          </mxGeometry>
        </mxCell>
        <mxCell id="zCyz3ce_a4fP4JThXpL--98" style="edgeStyle=orthogonalEdgeStyle;rounded=0;orthogonalLoop=1;jettySize=auto;html=1;exitX=0.5;exitY=1;exitDx=0;exitDy=0;strokeColor=#000000;" parent="1" source="zCyz3ce_a4fP4JThXpL--100" target="zCyz3ce_a4fP4JThXpL--112" edge="1">
          <mxGeometry relative="1" as="geometry">
            <mxPoint x="1248" y="410" as="targetPoint" />
          </mxGeometry>
        </mxCell>
        <mxCell id="zCyz3ce_a4fP4JThXpL--99" style="edgeStyle=orthogonalEdgeStyle;rounded=0;orthogonalLoop=1;jettySize=auto;html=1;exitX=-0.117;exitY=0.26;exitDx=0;exitDy=0;entryX=0.5;entryY=1;entryDx=0;entryDy=0;exitPerimeter=0;" parent="1" source="zCyz3ce_a4fP4JThXpL--100" target="zCyz3ce_a4fP4JThXpL--126" edge="1">
          <mxGeometry relative="1" as="geometry">
            <Array as="points">
              <mxPoint x="1230" y="370" />
              <mxPoint x="904" y="370" />
            </Array>
          </mxGeometry>
        </mxCell>
        <mxCell id="zCyz3ce_a4fP4JThXpL--100" value="" style="shape=sumEllipse;perimeter=ellipsePerimeter;whiteSpace=wrap;html=1;backgroundOutline=1;" parent="1" vertex="1">
          <mxGeometry x="1233" y="360" width="29" height="30" as="geometry" />
        </mxCell>
        <mxCell id="zCyz3ce_a4fP4JThXpL--101" value="Create new questions" style="rounded=0;whiteSpace=wrap;html=1;fillColor=#f5f5f5;strokeColor=#666666;fontColor=#333333;" parent="1" vertex="1">
          <mxGeometry x="844" y="410" width="120" height="40" as="geometry" />
        </mxCell>
        <mxCell id="zCyz3ce_a4fP4JThXpL--102" style="edgeStyle=orthogonalEdgeStyle;rounded=0;orthogonalLoop=1;jettySize=auto;html=1;entryX=0;entryY=1;entryDx=0;entryDy=0;exitX=0.5;exitY=0;exitDx=0;exitDy=0;startArrow=classic;startFill=1;" parent="1" source="zCyz3ce_a4fP4JThXpL--103" target="zCyz3ce_a4fP4JThXpL--100" edge="1">
          <mxGeometry relative="1" as="geometry">
            <Array as="points">
              <mxPoint x="1034" y="400" />
              <mxPoint x="1237" y="400" />
            </Array>
          </mxGeometry>
        </mxCell>
        <mxCell id="zCyz3ce_a4fP4JThXpL--103" value="Up-/ Downvote questions" style="rounded=0;whiteSpace=wrap;html=1;fillColor=#f5f5f5;strokeColor=#666666;fontColor=#333333;" parent="1" vertex="1">
          <mxGeometry x="974" y="410" width="120" height="40" as="geometry" />
        </mxCell>
        <mxCell id="zCyz3ce_a4fP4JThXpL--104" style="edgeStyle=orthogonalEdgeStyle;rounded=0;orthogonalLoop=1;jettySize=auto;html=1;entryX=1;entryY=0.5;entryDx=0;entryDy=0;strokeColor=#000000;" parent="1" source="zCyz3ce_a4fP4JThXpL--105" target="zCyz3ce_a4fP4JThXpL--100" edge="1">
          <mxGeometry relative="1" as="geometry">
            <Array as="points">
              <mxPoint x="1534" y="375" />
            </Array>
          </mxGeometry>
        </mxCell>
        <mxCell id="zCyz3ce_a4fP4JThXpL--105" value="Guidelines for debating" style="rounded=0;whiteSpace=wrap;html=1;" parent="1" vertex="1">
          <mxGeometry x="1484" y="275" width="120" height="40" as="geometry" />
        </mxCell>
        <mxCell id="zCyz3ce_a4fP4JThXpL--106" value="First Log-In" style="rhombus;whiteSpace=wrap;html=1;fillColor=#ffffc0;strokeColor=#ff0000;" parent="1" vertex="1">
          <mxGeometry x="1194" y="260" width="107" height="70" as="geometry" />
        </mxCell>
        <mxCell id="zCyz3ce_a4fP4JThXpL--107" style="edgeStyle=orthogonalEdgeStyle;rounded=0;orthogonalLoop=1;jettySize=auto;html=1;exitX=1;exitY=0.5;exitDx=0;exitDy=0;entryX=0;entryY=0.5;entryDx=0;entryDy=0;strokeColor=#000000;" parent="1" source="zCyz3ce_a4fP4JThXpL--108" target="zCyz3ce_a4fP4JThXpL--105" edge="1">
          <mxGeometry relative="1" as="geometry" />
        </mxCell>
        <mxCell id="zCyz3ce_a4fP4JThXpL--108" value="Introduction of App" style="rounded=0;whiteSpace=wrap;html=1;" parent="1" vertex="1">
          <mxGeometry x="1334" y="275" width="120" height="40" as="geometry" />
        </mxCell>
        <mxCell id="zCyz3ce_a4fP4JThXpL--109" value="no" style="edgeStyle=orthogonalEdgeStyle;html=1;align=left;verticalAlign=bottom;endArrow=open;endSize=8;exitX=1;exitY=0.5;exitDx=0;exitDy=0;entryX=0;entryY=0.5;entryDx=0;entryDy=0;" parent="1" source="zCyz3ce_a4fP4JThXpL--106" target="zCyz3ce_a4fP4JThXpL--108" edge="1">
          <mxGeometry x="-1" y="-95" relative="1" as="geometry">
            <mxPoint x="1344" y="135" as="targetPoint" />
            <mxPoint x="1311.5" y="135" as="sourcePoint" />
            <mxPoint x="-77" y="-40" as="offset" />
          </mxGeometry>
        </mxCell>
        <mxCell id="zCyz3ce_a4fP4JThXpL--110" value="yes" style="edgeStyle=orthogonalEdgeStyle;html=1;align=left;verticalAlign=top;endArrow=open;endSize=8;entryX=0.5;entryY=0;entryDx=0;entryDy=0;" parent="1" target="zCyz3ce_a4fP4JThXpL--100" edge="1">
          <mxGeometry x="-0.0154" y="-64" relative="1" as="geometry">
            <mxPoint x="1258" y="200" as="targetPoint" />
            <mxPoint x="1248" y="330" as="sourcePoint" />
            <mxPoint x="111" y="-45" as="offset" />
          </mxGeometry>
        </mxCell>
        <mxCell id="zCyz3ce_a4fP4JThXpL--111" style="edgeStyle=orthogonalEdgeStyle;rounded=0;orthogonalLoop=1;jettySize=auto;html=1;entryX=0.5;entryY=0;entryDx=0;entryDy=0;strokeColor=#000000;" parent="1" source="zCyz3ce_a4fP4JThXpL--112" target="zCyz3ce_a4fP4JThXpL--115" edge="1">
          <mxGeometry relative="1" as="geometry" />
        </mxCell>
        <mxCell id="zCyz3ce_a4fP4JThXpL--112" value="Click on question" style="rounded=0;whiteSpace=wrap;html=1;" parent="1" vertex="1">
          <mxGeometry x="1188" y="420" width="120" height="40" as="geometry" />
        </mxCell>
        <mxCell id="zCyz3ce_a4fP4JThXpL--114" style="edgeStyle=orthogonalEdgeStyle;rounded=0;orthogonalLoop=1;jettySize=auto;html=1;entryX=0.5;entryY=0;entryDx=0;entryDy=0;strokeColor=#000000;" parent="1" source="zCyz3ce_a4fP4JThXpL--115" target="zCyz3ce_a4fP4JThXpL--123" edge="1">
          <mxGeometry relative="1" as="geometry" />
        </mxCell>
        <mxCell id="zCyz3ce_a4fP4JThXpL--115" value="Scale your opinion" style="rounded=0;whiteSpace=wrap;html=1;" parent="1" vertex="1">
          <mxGeometry x="1188" y="490" width="120" height="40" as="geometry" />
        </mxCell>
        <mxCell id="zCyz3ce_a4fP4JThXpL--116" style="edgeStyle=orthogonalEdgeStyle;rounded=0;orthogonalLoop=1;jettySize=auto;html=1;entryX=0.5;entryY=0;entryDx=0;entryDy=0;strokeColor=#000000;" parent="1" source="zCyz3ce_a4fP4JThXpL--118" target="zCyz3ce_a4fP4JThXpL--121" edge="1">
          <mxGeometry relative="1" as="geometry">
            <Array as="points">
              <mxPoint x="1255" y="950" />
              <mxPoint x="1255" y="950" />
            </Array>
          </mxGeometry>
        </mxCell>
        <mxCell id="zCyz3ce_a4fP4JThXpL--118" value="Guidelines for debating (short)" style="rounded=0;whiteSpace=wrap;html=1;dashed=1;" parent="1" vertex="1">
          <mxGeometry x="1194" y="900" width="120" height="40" as="geometry" />
        </mxCell>
        <mxCell id="zCyz3ce_a4fP4JThXpL--120" style="edgeStyle=orthogonalEdgeStyle;rounded=0;orthogonalLoop=1;jettySize=auto;html=1;exitX=0.5;exitY=1;exitDx=0;exitDy=0;strokeColor=#000000;" parent="1" source="zCyz3ce_a4fP4JThXpL--121" target="zCyz3ce_a4fP4JThXpL--143" edge="1">
          <mxGeometry relative="1" as="geometry" />
        </mxCell>
        <mxCell id="zCyz3ce_a4fP4JThXpL--121" value="Stating explanation" style="rounded=0;whiteSpace=wrap;html=1;dashed=1;" parent="1" vertex="1">
          <mxGeometry x="1194.5" y="960" width="120" height="40" as="geometry" />
        </mxCell>
        <mxCell id="zCyz3ce_a4fP4JThXpL--122" style="edgeStyle=orthogonalEdgeStyle;rounded=0;orthogonalLoop=1;jettySize=auto;html=1;entryX=0.5;entryY=0;entryDx=0;entryDy=0;" parent="1" source="zCyz3ce_a4fP4JThXpL--123" edge="1">
          <mxGeometry relative="1" as="geometry">
            <mxPoint x="1248.5" y="630" as="targetPoint" />
            <Array as="points">
              <mxPoint x="1248" y="620" />
            </Array>
          </mxGeometry>
        </mxCell>
        <mxCell id="zCyz3ce_a4fP4JThXpL--123" value="Submit" style="rounded=0;whiteSpace=wrap;html=1;" parent="1" vertex="1">
          <mxGeometry x="1188" y="560" width="120" height="40" as="geometry" />
        </mxCell>
        <mxCell id="zCyz3ce_a4fP4JThXpL--125" value="Add Source" style="rounded=0;whiteSpace=wrap;html=1;dashed=1;" parent="1" vertex="1">
          <mxGeometry x="1194.5" y="1080" width="120" height="40" as="geometry" />
        </mxCell>
        <mxCell id="zCyz3ce_a4fP4JThXpL--126" value="Create face to face room" style="rounded=0;whiteSpace=wrap;html=1;fillColor=#f5f5f5;strokeColor=#666666;fontColor=#333333;" parent="1" vertex="1">
          <mxGeometry x="844" y="315" width="120" height="40" as="geometry" />
        </mxCell>
        <mxCell id="zCyz3ce_a4fP4JThXpL--127" style="edgeStyle=orthogonalEdgeStyle;rounded=0;orthogonalLoop=1;jettySize=auto;html=1;entryX=0.324;entryY=-0.008;entryDx=0;entryDy=0;entryPerimeter=0;exitX=1.003;exitY=0.618;exitDx=0;exitDy=0;exitPerimeter=0;" parent="1" source="zCyz3ce_a4fP4JThXpL--131" target="zCyz3ce_a4fP4JThXpL--135" edge="1">
          <mxGeometry relative="1" as="geometry">
            <mxPoint x="1229" y="690" as="sourcePoint" />
          </mxGeometry>
        </mxCell>
        <mxCell id="zCyz3ce_a4fP4JThXpL--128" style="edgeStyle=orthogonalEdgeStyle;rounded=0;orthogonalLoop=1;jettySize=auto;html=1;entryX=0.5;entryY=0;entryDx=0;entryDy=0;exitX=0;exitY=0.75;exitDx=0;exitDy=0;" parent="1" source="zCyz3ce_a4fP4JThXpL--131" edge="1">
          <mxGeometry relative="1" as="geometry">
            <mxPoint x="1107" y="725" as="targetPoint" />
          </mxGeometry>
        </mxCell>
        <mxCell id="zCyz3ce_a4fP4JThXpL--129" style="edgeStyle=orthogonalEdgeStyle;rounded=0;orthogonalLoop=1;jettySize=auto;html=1;" parent="1" source="zCyz3ce_a4fP4JThXpL--131" target="zCyz3ce_a4fP4JThXpL--137" edge="1">
          <mxGeometry relative="1" as="geometry" />
        </mxCell>
        <mxCell id="zCyz3ce_a4fP4JThXpL--130" style="edgeStyle=orthogonalEdgeStyle;rounded=0;orthogonalLoop=1;jettySize=auto;html=1;entryX=0.5;entryY=0;entryDx=0;entryDy=0;" parent="1" source="zCyz3ce_a4fP4JThXpL--131" target="zCyz3ce_a4fP4JThXpL--139" edge="1">
          <mxGeometry relative="1" as="geometry" />
        </mxCell>
        <mxCell id="zCyz3ce_a4fP4JThXpL--131" value="question landing page:&lt;br&gt;see explanations and distribution in bars" style="rounded=0;whiteSpace=wrap;html=1;" parent="1" vertex="1">
          <mxGeometry x="1188" y="630" width="116" height="70" as="geometry" />
        </mxCell>
        <mxCell id="zCyz3ce_a4fP4JThXpL--132" value="&amp;lt;optional&amp;gt;: sort for newest (timely)" style="rounded=0;whiteSpace=wrap;html=1;dashed=1;" parent="1" vertex="1">
          <mxGeometry x="1554" y="725" width="80" height="85" as="geometry" />
        </mxCell>
        <mxCell id="zCyz3ce_a4fP4JThXpL--133" value="&amp;lt;optional&amp;gt;: sort on the rise (combination of newest and many upvotes)" style="rounded=0;whiteSpace=wrap;html=1;dashed=1;" parent="1" vertex="1">
          <mxGeometry x="1462" y="725" width="90" height="85" as="geometry" />
        </mxCell>
        <mxCell id="zCyz3ce_a4fP4JThXpL--134" style="edgeStyle=orthogonalEdgeStyle;rounded=0;orthogonalLoop=1;jettySize=auto;html=1;entryX=1.003;entryY=0.377;entryDx=0;entryDy=0;entryPerimeter=0;exitX=0.684;exitY=-0.007;exitDx=0;exitDy=0;exitPerimeter=0;" parent="1" source="zCyz3ce_a4fP4JThXpL--135" target="zCyz3ce_a4fP4JThXpL--131" edge="1">
          <mxGeometry relative="1" as="geometry">
            <mxPoint x="1272" y="692" as="targetPoint" />
            <Array as="points" />
          </mxGeometry>
        </mxCell>
        <mxCell id="zCyz3ce_a4fP4JThXpL--135" value="filter&lt;br&gt;&amp;lt;default&amp;gt;:&amp;nbsp;&lt;span style=&quot;font-family: &amp;#34;helvetica&amp;#34;&quot;&gt;comments sorted by most upvoted and &lt;b&gt;not contrary&lt;/b&gt; bar scale&lt;/span&gt;" style="rounded=0;whiteSpace=wrap;html=1;" parent="1" vertex="1">
          <mxGeometry x="1334" y="725" width="126" height="85" as="geometry" />
        </mxCell>
        <mxCell id="zCyz3ce_a4fP4JThXpL--137" value="comment explanations" style="rounded=0;whiteSpace=wrap;html=1;" parent="1" vertex="1">
          <mxGeometry x="1183" y="725" width="126" height="60" as="geometry" />
        </mxCell>
        <mxCell id="zCyz3ce_a4fP4JThXpL--138" style="edgeStyle=orthogonalEdgeStyle;rounded=0;orthogonalLoop=1;jettySize=auto;html=1;" parent="1" source="zCyz3ce_a4fP4JThXpL--139" target="zCyz3ce_a4fP4JThXpL--140" edge="1">
          <mxGeometry relative="1" as="geometry" />
        </mxCell>
        <mxCell id="zCyz3ce_a4fP4JThXpL--139" value="click on explanation to see comments" style="rounded=0;whiteSpace=wrap;html=1;" parent="1" vertex="1">
          <mxGeometry x="894" y="725" width="126" height="60" as="geometry" />
        </mxCell>
        <mxCell id="zCyz3ce_a4fP4JThXpL--140" value="comment comments" style="rounded=0;whiteSpace=wrap;html=1;" parent="1" vertex="1">
          <mxGeometry x="894" y="810" width="126" height="60" as="geometry" />
        </mxCell>
        <mxCell id="zCyz3ce_a4fP4JThXpL--141" style="edgeStyle=orthogonalEdgeStyle;rounded=0;orthogonalLoop=1;jettySize=auto;html=1;exitX=0.5;exitY=1;exitDx=0;exitDy=0;" parent="1" source="zCyz3ce_a4fP4JThXpL--143" edge="1">
          <mxGeometry relative="1" as="geometry">
            <mxPoint x="1255" y="1080" as="targetPoint" />
          </mxGeometry>
        </mxCell>
        <mxCell id="zCyz3ce_a4fP4JThXpL--143" value="Add tags" style="rounded=0;whiteSpace=wrap;html=1;dashed=1;" parent="1" vertex="1">
          <mxGeometry x="1194.5" y="1020" width="120" height="40" as="geometry" />
        </mxCell>
        <mxCell id="zCyz3ce_a4fP4JThXpL--144" value="&lt;font size=&quot;1&quot;&gt;&lt;b style=&quot;font-size: 30px&quot;&gt;1. User Flow: Basic Up / Downvote&lt;/b&gt;&lt;/font&gt;" style="text;html=1;strokeColor=none;fillColor=none;align=center;verticalAlign=middle;whiteSpace=wrap;rounded=0;dashed=1;" parent="1" vertex="1">
          <mxGeometry x="186" y="10" width="540" height="20" as="geometry" />
        </mxCell>
        <mxCell id="zCyz3ce_a4fP4JThXpL--145" value="&lt;font size=&quot;1&quot;&gt;&lt;b style=&quot;font-size: 30px&quot;&gt;2. User Flow: Chose explanation lead&amp;nbsp;&amp;nbsp;&lt;/b&gt;&lt;/font&gt;" style="text;html=1;strokeColor=none;fillColor=none;align=center;verticalAlign=middle;whiteSpace=wrap;rounded=0;dashed=1;" parent="1" vertex="1">
          <mxGeometry x="978" y="10" width="626" height="20" as="geometry" />
        </mxCell>
        <mxCell id="wnivAxLNJLn-0W5NieNY-7" value="" style="ellipse;html=1;shape=startState;fillColor=#000000;strokeColor=#ff0000;" parent="1" vertex="1">
          <mxGeometry x="399" y="40" width="30" height="30" as="geometry" />
        </mxCell>
        <mxCell id="zCyz3ce_a4fP4JThXpL--150" style="edgeStyle=orthogonalEdgeStyle;rounded=0;orthogonalLoop=1;jettySize=auto;html=1;entryX=0.5;entryY=0;entryDx=0;entryDy=0;" parent="1" source="zCyz3ce_a4fP4JThXpL--148" target="zCyz3ce_a4fP4JThXpL--149" edge="1">
          <mxGeometry relative="1" as="geometry">
            <Array as="points">
              <mxPoint x="1160" y="740" />
              <mxPoint x="1160" y="800" />
              <mxPoint x="1251" y="800" />
            </Array>
          </mxGeometry>
        </mxCell>
        <mxCell id="zCyz3ce_a4fP4JThXpL--152" style="edgeStyle=orthogonalEdgeStyle;rounded=0;orthogonalLoop=1;jettySize=auto;html=1;entryX=0.5;entryY=0;entryDx=0;entryDy=0;" parent="1" source="zCyz3ce_a4fP4JThXpL--148" target="zCyz3ce_a4fP4JThXpL--151" edge="1">
          <mxGeometry relative="1" as="geometry" />
        </mxCell>
        <mxCell id="zCyz3ce_a4fP4JThXpL--148" value="" style="shape=sumEllipse;perimeter=ellipsePerimeter;whiteSpace=wrap;html=1;backgroundOutline=1;" parent="1" vertex="1">
          <mxGeometry x="1094" y="725" width="29" height="30" as="geometry" />
        </mxCell>
        <mxCell id="zCyz3ce_a4fP4JThXpL--153" style="edgeStyle=orthogonalEdgeStyle;rounded=0;orthogonalLoop=1;jettySize=auto;html=1;exitX=0.5;exitY=1;exitDx=0;exitDy=0;entryX=0.5;entryY=0;entryDx=0;entryDy=0;" parent="1" source="zCyz3ce_a4fP4JThXpL--149" target="zCyz3ce_a4fP4JThXpL--118" edge="1">
          <mxGeometry relative="1" as="geometry" />
        </mxCell>
        <mxCell id="zCyz3ce_a4fP4JThXpL--158" style="edgeStyle=orthogonalEdgeStyle;rounded=0;orthogonalLoop=1;jettySize=auto;html=1;" parent="1" source="zCyz3ce_a4fP4JThXpL--149" target="zCyz3ce_a4fP4JThXpL--157" edge="1">
          <mxGeometry relative="1" as="geometry">
            <Array as="points">
              <mxPoint x="1360" y="850" />
            </Array>
          </mxGeometry>
        </mxCell>
        <mxCell id="zCyz3ce_a4fP4JThXpL--149" value="create explanation" style="rounded=0;whiteSpace=wrap;html=1;" parent="1" vertex="1">
          <mxGeometry x="1188" y="820" width="126" height="60" as="geometry" />
        </mxCell>
        <mxCell id="9J9e4gb2R-9mKRPI0Ei9-1" style="edgeStyle=orthogonalEdgeStyle;rounded=0;orthogonalLoop=1;jettySize=auto;html=1;entryX=0.397;entryY=1.004;entryDx=0;entryDy=0;entryPerimeter=0;" parent="1" source="zCyz3ce_a4fP4JThXpL--151" target="zCyz3ce_a4fP4JThXpL--157" edge="1">
          <mxGeometry relative="1" as="geometry">
            <Array as="points">
              <mxPoint x="1109" y="1140" />
              <mxPoint x="1390" y="1140" />
            </Array>
          </mxGeometry>
        </mxCell>
        <mxCell id="zCyz3ce_a4fP4JThXpL--151" value="chose explanation lead by &quot;upvoting&quot; (limitation of upvotes)" style="rounded=0;whiteSpace=wrap;html=1;" parent="1" vertex="1">
          <mxGeometry x="1045.5" y="820" width="126" height="60" as="geometry" />
        </mxCell>
        <mxCell id="zCyz3ce_a4fP4JThXpL--154" value="Guidelines for debating (short)" style="rounded=0;whiteSpace=wrap;html=1;dashed=1;" parent="1" vertex="1">
          <mxGeometry x="1194" y="900" width="120" height="40" as="geometry" />
        </mxCell>
        <mxCell id="zCyz3ce_a4fP4JThXpL--155" value="Stating explanation" style="rounded=0;whiteSpace=wrap;html=1;dashed=1;" parent="1" vertex="1">
          <mxGeometry x="1194.5" y="960" width="120" height="40" as="geometry" />
        </mxCell>
        <mxCell id="zCyz3ce_a4fP4JThXpL--159" style="edgeStyle=orthogonalEdgeStyle;rounded=0;orthogonalLoop=1;jettySize=auto;html=1;exitX=0.5;exitY=0;exitDx=0;exitDy=0;" parent="1" source="zCyz3ce_a4fP4JThXpL--157" target="zCyz3ce_a4fP4JThXpL--135" edge="1">
          <mxGeometry relative="1" as="geometry">
            <mxPoint x="1402" y="1130" as="sourcePoint" />
            <mxPoint x="1402" y="820" as="targetPoint" />
            <Array as="points">
              <mxPoint x="1402" y="830" />
              <mxPoint x="1410" y="830" />
            </Array>
          </mxGeometry>
        </mxCell>
        <mxCell id="zCyz3ce_a4fP4JThXpL--160" value="&lt;strike&gt;not&lt;/strike&gt;" style="edgeLabel;html=1;align=center;verticalAlign=middle;resizable=0;points=[];" parent="zCyz3ce_a4fP4JThXpL--159" vertex="1" connectable="0">
          <mxGeometry x="-0.6857" y="1" relative="1" as="geometry">
            <mxPoint x="0.9899999999999998" y="-177.71" as="offset" />
          </mxGeometry>
        </mxCell>
        <mxCell id="zCyz3ce_a4fP4JThXpL--157" value="Submit" style="rounded=0;whiteSpace=wrap;html=1;" parent="1" vertex="1">
          <mxGeometry x="1342" y="1080" width="120" height="40" as="geometry" />
        </mxCell>
        <mxCell id="zCyz3ce_a4fP4JThXpL--161" style="edgeStyle=orthogonalEdgeStyle;rounded=0;orthogonalLoop=1;jettySize=auto;html=1;entryX=1;entryY=0.5;entryDx=0;entryDy=0;exitX=0.5;exitY=1;exitDx=0;exitDy=0;" parent="1" source="zCyz3ce_a4fP4JThXpL--162" target="zCyz3ce_a4fP4JThXpL--164" edge="1">
          <mxGeometry relative="1" as="geometry">
            <Array as="points">
              <mxPoint x="2220" y="225" />
            </Array>
          </mxGeometry>
        </mxCell>
        <mxCell id="zCyz3ce_a4fP4JThXpL--162" value="Registration" style="rounded=0;whiteSpace=wrap;html=1;" parent="1" vertex="1">
          <mxGeometry x="2160" y="120" width="120" height="40" as="geometry" />
        </mxCell>
        <mxCell id="zCyz3ce_a4fP4JThXpL--163" style="edgeStyle=orthogonalEdgeStyle;rounded=0;orthogonalLoop=1;jettySize=auto;html=1;exitX=0.5;exitY=1;exitDx=0;exitDy=0;entryX=0.5;entryY=0;entryDx=0;entryDy=0;" parent="1" source="zCyz3ce_a4fP4JThXpL--164" target="zCyz3ce_a4fP4JThXpL--179" edge="1">
          <mxGeometry relative="1" as="geometry">
            <mxPoint x="1990" y="255" as="targetPoint" />
            <Array as="points">
              <mxPoint x="2074" y="255" />
            </Array>
          </mxGeometry>
        </mxCell>
        <mxCell id="zCyz3ce_a4fP4JThXpL--164" value="Log-In" style="rounded=0;whiteSpace=wrap;html=1;" parent="1" vertex="1">
          <mxGeometry x="2014" y="205" width="120" height="40" as="geometry" />
        </mxCell>
        <mxCell id="zCyz3ce_a4fP4JThXpL--165" value="" style="ellipse;html=1;shape=startState;fillColor=#000000;strokeColor=#ff0000;" parent="1" vertex="1">
          <mxGeometry x="2059" y="55" width="30" height="30" as="geometry" />
        </mxCell>
        <mxCell id="zCyz3ce_a4fP4JThXpL--166" value="" style="edgeStyle=orthogonalEdgeStyle;html=1;verticalAlign=bottom;endArrow=open;endSize=8;strokeColor=#ff0000;entryX=0.5;entryY=0;entryDx=0;entryDy=0;" parent="1" source="zCyz3ce_a4fP4JThXpL--165" target="zCyz3ce_a4fP4JThXpL--167" edge="1">
          <mxGeometry relative="1" as="geometry">
            <mxPoint x="2074" y="145" as="targetPoint" />
          </mxGeometry>
        </mxCell>
        <mxCell id="zCyz3ce_a4fP4JThXpL--167" value="Registered user" style="rhombus;whiteSpace=wrap;html=1;fillColor=#ffffc0;strokeColor=#ff0000;" parent="1" vertex="1">
          <mxGeometry x="2020.5" y="105" width="107" height="70" as="geometry" />
        </mxCell>
        <mxCell id="zCyz3ce_a4fP4JThXpL--168" value="no" style="edgeStyle=orthogonalEdgeStyle;html=1;align=left;verticalAlign=bottom;endArrow=open;endSize=8;" parent="1" source="zCyz3ce_a4fP4JThXpL--167" edge="1">
          <mxGeometry x="-0.8605" y="5" relative="1" as="geometry">
            <mxPoint x="2160" y="140" as="targetPoint" />
            <mxPoint as="offset" />
          </mxGeometry>
        </mxCell>
        <mxCell id="zCyz3ce_a4fP4JThXpL--169" value="yes" style="edgeStyle=orthogonalEdgeStyle;html=1;align=left;verticalAlign=top;endArrow=open;endSize=8;entryX=0.5;entryY=0;entryDx=0;entryDy=0;" parent="1" source="zCyz3ce_a4fP4JThXpL--167" target="zCyz3ce_a4fP4JThXpL--164" edge="1">
          <mxGeometry x="-1" y="16" relative="1" as="geometry">
            <mxPoint x="2074" y="235" as="targetPoint" />
            <mxPoint as="offset" />
          </mxGeometry>
        </mxCell>
        <mxCell id="zCyz3ce_a4fP4JThXpL--170" style="edgeStyle=orthogonalEdgeStyle;rounded=0;orthogonalLoop=1;jettySize=auto;html=1;entryX=0.5;entryY=0;entryDx=0;entryDy=0;exitX=0;exitY=1;exitDx=0;exitDy=0;startArrow=classic;startFill=1;" parent="1" source="zCyz3ce_a4fP4JThXpL--173" target="zCyz3ce_a4fP4JThXpL--174" edge="1">
          <mxGeometry relative="1" as="geometry">
            <Array as="points">
              <mxPoint x="1730" y="401" />
            </Array>
          </mxGeometry>
        </mxCell>
        <mxCell id="zCyz3ce_a4fP4JThXpL--171" style="edgeStyle=orthogonalEdgeStyle;rounded=0;orthogonalLoop=1;jettySize=auto;html=1;exitX=0.5;exitY=1;exitDx=0;exitDy=0;strokeColor=#000000;" parent="1" source="zCyz3ce_a4fP4JThXpL--173" target="zCyz3ce_a4fP4JThXpL--185" edge="1">
          <mxGeometry relative="1" as="geometry">
            <mxPoint x="2074" y="425" as="targetPoint" />
          </mxGeometry>
        </mxCell>
        <mxCell id="zCyz3ce_a4fP4JThXpL--172" style="edgeStyle=orthogonalEdgeStyle;rounded=0;orthogonalLoop=1;jettySize=auto;html=1;exitX=-0.117;exitY=0.26;exitDx=0;exitDy=0;entryX=0.5;entryY=1;entryDx=0;entryDy=0;exitPerimeter=0;" parent="1" source="zCyz3ce_a4fP4JThXpL--173" target="zCyz3ce_a4fP4JThXpL--195" edge="1">
          <mxGeometry relative="1" as="geometry">
            <Array as="points">
              <mxPoint x="2056" y="385" />
              <mxPoint x="1730" y="385" />
            </Array>
          </mxGeometry>
        </mxCell>
        <mxCell id="zCyz3ce_a4fP4JThXpL--173" value="" style="shape=sumEllipse;perimeter=ellipsePerimeter;whiteSpace=wrap;html=1;backgroundOutline=1;" parent="1" vertex="1">
          <mxGeometry x="2059" y="375" width="29" height="30" as="geometry" />
        </mxCell>
        <mxCell id="zCyz3ce_a4fP4JThXpL--174" value="Create new questions" style="rounded=0;whiteSpace=wrap;html=1;fillColor=#f5f5f5;strokeColor=#666666;fontColor=#333333;" parent="1" vertex="1">
          <mxGeometry x="1670" y="425" width="120" height="40" as="geometry" />
        </mxCell>
        <mxCell id="zCyz3ce_a4fP4JThXpL--175" style="edgeStyle=orthogonalEdgeStyle;rounded=0;orthogonalLoop=1;jettySize=auto;html=1;entryX=0;entryY=1;entryDx=0;entryDy=0;exitX=0.5;exitY=0;exitDx=0;exitDy=0;startArrow=classic;startFill=1;" parent="1" source="zCyz3ce_a4fP4JThXpL--176" target="zCyz3ce_a4fP4JThXpL--173" edge="1">
          <mxGeometry relative="1" as="geometry">
            <Array as="points">
              <mxPoint x="1860" y="415" />
              <mxPoint x="2063" y="415" />
            </Array>
          </mxGeometry>
        </mxCell>
        <mxCell id="zCyz3ce_a4fP4JThXpL--176" value="Up-/ Downvote questions" style="rounded=0;whiteSpace=wrap;html=1;fillColor=#f5f5f5;strokeColor=#666666;fontColor=#333333;" parent="1" vertex="1">
          <mxGeometry x="1800" y="425" width="120" height="40" as="geometry" />
        </mxCell>
        <mxCell id="zCyz3ce_a4fP4JThXpL--177" style="edgeStyle=orthogonalEdgeStyle;rounded=0;orthogonalLoop=1;jettySize=auto;html=1;entryX=1;entryY=0.5;entryDx=0;entryDy=0;strokeColor=#000000;" parent="1" source="zCyz3ce_a4fP4JThXpL--178" target="zCyz3ce_a4fP4JThXpL--173" edge="1">
          <mxGeometry relative="1" as="geometry">
            <Array as="points">
              <mxPoint x="2360" y="390" />
            </Array>
          </mxGeometry>
        </mxCell>
        <mxCell id="zCyz3ce_a4fP4JThXpL--178" value="Guidelines for debating" style="rounded=0;whiteSpace=wrap;html=1;" parent="1" vertex="1">
          <mxGeometry x="2310" y="290" width="120" height="40" as="geometry" />
        </mxCell>
        <mxCell id="zCyz3ce_a4fP4JThXpL--179" value="First Log-In" style="rhombus;whiteSpace=wrap;html=1;fillColor=#ffffc0;strokeColor=#ff0000;" parent="1" vertex="1">
          <mxGeometry x="2020" y="275" width="107" height="70" as="geometry" />
        </mxCell>
        <mxCell id="zCyz3ce_a4fP4JThXpL--180" style="edgeStyle=orthogonalEdgeStyle;rounded=0;orthogonalLoop=1;jettySize=auto;html=1;exitX=1;exitY=0.5;exitDx=0;exitDy=0;entryX=0;entryY=0.5;entryDx=0;entryDy=0;strokeColor=#000000;" parent="1" source="zCyz3ce_a4fP4JThXpL--181" target="zCyz3ce_a4fP4JThXpL--178" edge="1">
          <mxGeometry relative="1" as="geometry" />
        </mxCell>
        <mxCell id="zCyz3ce_a4fP4JThXpL--181" value="Introduction of App" style="rounded=0;whiteSpace=wrap;html=1;" parent="1" vertex="1">
          <mxGeometry x="2160" y="290" width="120" height="40" as="geometry" />
        </mxCell>
        <mxCell id="zCyz3ce_a4fP4JThXpL--182" value="no" style="edgeStyle=orthogonalEdgeStyle;html=1;align=left;verticalAlign=bottom;endArrow=open;endSize=8;exitX=1;exitY=0.5;exitDx=0;exitDy=0;entryX=0;entryY=0.5;entryDx=0;entryDy=0;" parent="1" source="zCyz3ce_a4fP4JThXpL--179" target="zCyz3ce_a4fP4JThXpL--181" edge="1">
          <mxGeometry x="-1" y="-95" relative="1" as="geometry">
            <mxPoint x="2170" y="150" as="targetPoint" />
            <mxPoint x="2137.5" y="150" as="sourcePoint" />
            <mxPoint x="-77" y="-40" as="offset" />
          </mxGeometry>
        </mxCell>
        <mxCell id="zCyz3ce_a4fP4JThXpL--183" value="yes" style="edgeStyle=orthogonalEdgeStyle;html=1;align=left;verticalAlign=top;endArrow=open;endSize=8;entryX=0.5;entryY=0;entryDx=0;entryDy=0;" parent="1" target="zCyz3ce_a4fP4JThXpL--173" edge="1">
          <mxGeometry x="-0.0154" y="-64" relative="1" as="geometry">
            <mxPoint x="2084" y="215" as="targetPoint" />
            <mxPoint x="2074" y="345" as="sourcePoint" />
            <mxPoint x="111" y="-45" as="offset" />
          </mxGeometry>
        </mxCell>
        <mxCell id="zCyz3ce_a4fP4JThXpL--184" style="edgeStyle=orthogonalEdgeStyle;rounded=0;orthogonalLoop=1;jettySize=auto;html=1;entryX=0.5;entryY=0;entryDx=0;entryDy=0;strokeColor=#000000;" parent="1" source="zCyz3ce_a4fP4JThXpL--185" target="zCyz3ce_a4fP4JThXpL--187" edge="1">
          <mxGeometry relative="1" as="geometry" />
        </mxCell>
        <mxCell id="zCyz3ce_a4fP4JThXpL--185" value="Click on question" style="rounded=0;whiteSpace=wrap;html=1;" parent="1" vertex="1">
          <mxGeometry x="2014" y="435" width="120" height="40" as="geometry" />
        </mxCell>
        <mxCell id="zCyz3ce_a4fP4JThXpL--186" style="edgeStyle=orthogonalEdgeStyle;rounded=0;orthogonalLoop=1;jettySize=auto;html=1;entryX=0.5;entryY=0;entryDx=0;entryDy=0;strokeColor=#000000;" parent="1" source="zCyz3ce_a4fP4JThXpL--187" target="zCyz3ce_a4fP4JThXpL--193" edge="1">
          <mxGeometry relative="1" as="geometry" />
        </mxCell>
        <mxCell id="zCyz3ce_a4fP4JThXpL--187" value="Scale your opinion" style="rounded=0;whiteSpace=wrap;html=1;" parent="1" vertex="1">
          <mxGeometry x="2014" y="505" width="120" height="40" as="geometry" />
        </mxCell>
        <mxCell id="zCyz3ce_a4fP4JThXpL--188" style="edgeStyle=orthogonalEdgeStyle;rounded=0;orthogonalLoop=1;jettySize=auto;html=1;entryX=0.5;entryY=0;entryDx=0;entryDy=0;strokeColor=#000000;" parent="1" source="zCyz3ce_a4fP4JThXpL--189" target="zCyz3ce_a4fP4JThXpL--191" edge="1">
          <mxGeometry relative="1" as="geometry">
            <Array as="points">
              <mxPoint x="2081" y="965" />
              <mxPoint x="2081" y="965" />
            </Array>
          </mxGeometry>
        </mxCell>
        <mxCell id="zCyz3ce_a4fP4JThXpL--189" value="Guidelines for debating (short)" style="rounded=0;whiteSpace=wrap;html=1;dashed=1;" parent="1" vertex="1">
          <mxGeometry x="2020" y="915" width="120" height="40" as="geometry" />
        </mxCell>
        <mxCell id="zCyz3ce_a4fP4JThXpL--190" style="edgeStyle=orthogonalEdgeStyle;rounded=0;orthogonalLoop=1;jettySize=auto;html=1;exitX=0.5;exitY=1;exitDx=0;exitDy=0;strokeColor=#000000;" parent="1" source="zCyz3ce_a4fP4JThXpL--191" target="zCyz3ce_a4fP4JThXpL--210" edge="1">
          <mxGeometry relative="1" as="geometry" />
        </mxCell>
        <mxCell id="zCyz3ce_a4fP4JThXpL--191" value="Stating explanation" style="rounded=0;whiteSpace=wrap;html=1;dashed=1;" parent="1" vertex="1">
          <mxGeometry x="2020.5" y="975" width="120" height="40" as="geometry" />
        </mxCell>
        <mxCell id="zCyz3ce_a4fP4JThXpL--192" style="edgeStyle=orthogonalEdgeStyle;rounded=0;orthogonalLoop=1;jettySize=auto;html=1;entryX=0.5;entryY=0;entryDx=0;entryDy=0;" parent="1" source="zCyz3ce_a4fP4JThXpL--193" edge="1">
          <mxGeometry relative="1" as="geometry">
            <mxPoint x="2074.5" y="645" as="targetPoint" />
            <Array as="points">
              <mxPoint x="2074" y="635" />
            </Array>
          </mxGeometry>
        </mxCell>
        <mxCell id="zCyz3ce_a4fP4JThXpL--193" value="Submit" style="rounded=0;whiteSpace=wrap;html=1;" parent="1" vertex="1">
          <mxGeometry x="2014" y="575" width="120" height="40" as="geometry" />
        </mxCell>
        <mxCell id="zCyz3ce_a4fP4JThXpL--194" value="Add Source" style="rounded=0;whiteSpace=wrap;html=1;dashed=1;" parent="1" vertex="1">
          <mxGeometry x="2020.5" y="1095" width="120" height="40" as="geometry" />
        </mxCell>
        <mxCell id="zCyz3ce_a4fP4JThXpL--195" value="Create face to face room" style="rounded=0;whiteSpace=wrap;html=1;fillColor=#f5f5f5;strokeColor=#666666;fontColor=#333333;" parent="1" vertex="1">
          <mxGeometry x="1670" y="330" width="120" height="40" as="geometry" />
        </mxCell>
        <mxCell id="zCyz3ce_a4fP4JThXpL--196" style="edgeStyle=orthogonalEdgeStyle;rounded=0;orthogonalLoop=1;jettySize=auto;html=1;entryX=0.324;entryY=-0.008;entryDx=0;entryDy=0;entryPerimeter=0;exitX=1.003;exitY=0.618;exitDx=0;exitDy=0;exitPerimeter=0;" parent="1" source="zCyz3ce_a4fP4JThXpL--200" target="zCyz3ce_a4fP4JThXpL--204" edge="1">
          <mxGeometry relative="1" as="geometry">
            <mxPoint x="2055" y="705" as="sourcePoint" />
          </mxGeometry>
        </mxCell>
        <mxCell id="zCyz3ce_a4fP4JThXpL--197" style="edgeStyle=orthogonalEdgeStyle;rounded=0;orthogonalLoop=1;jettySize=auto;html=1;entryX=0.5;entryY=0;entryDx=0;entryDy=0;exitX=0;exitY=0.75;exitDx=0;exitDy=0;" parent="1" source="zCyz3ce_a4fP4JThXpL--200" edge="1">
          <mxGeometry relative="1" as="geometry">
            <mxPoint x="1933" y="740" as="targetPoint" />
          </mxGeometry>
        </mxCell>
        <mxCell id="zCyz3ce_a4fP4JThXpL--198" style="edgeStyle=orthogonalEdgeStyle;rounded=0;orthogonalLoop=1;jettySize=auto;html=1;" parent="1" source="zCyz3ce_a4fP4JThXpL--200" target="zCyz3ce_a4fP4JThXpL--205" edge="1">
          <mxGeometry relative="1" as="geometry" />
        </mxCell>
        <mxCell id="zCyz3ce_a4fP4JThXpL--199" style="edgeStyle=orthogonalEdgeStyle;rounded=0;orthogonalLoop=1;jettySize=auto;html=1;entryX=0.5;entryY=0;entryDx=0;entryDy=0;" parent="1" source="zCyz3ce_a4fP4JThXpL--200" target="zCyz3ce_a4fP4JThXpL--207" edge="1">
          <mxGeometry relative="1" as="geometry" />
        </mxCell>
        <mxCell id="zCyz3ce_a4fP4JThXpL--200" value="question landing page:&lt;br&gt;see explanations and distribution in bars" style="rounded=0;whiteSpace=wrap;html=1;" parent="1" vertex="1">
          <mxGeometry x="2014" y="645" width="116" height="70" as="geometry" />
        </mxCell>
        <mxCell id="zCyz3ce_a4fP4JThXpL--201" value="&amp;lt;optional&amp;gt;: sort for newest (timely)" style="rounded=0;whiteSpace=wrap;html=1;dashed=1;" parent="1" vertex="1">
          <mxGeometry x="2380" y="740" width="80" height="85" as="geometry" />
        </mxCell>
        <mxCell id="zCyz3ce_a4fP4JThXpL--202" value="&amp;lt;optional&amp;gt;: sort on the rise (combination of newest and many upvotes)" style="rounded=0;whiteSpace=wrap;html=1;dashed=1;" parent="1" vertex="1">
          <mxGeometry x="2288" y="740" width="90" height="85" as="geometry" />
        </mxCell>
        <mxCell id="zCyz3ce_a4fP4JThXpL--203" style="edgeStyle=orthogonalEdgeStyle;rounded=0;orthogonalLoop=1;jettySize=auto;html=1;entryX=1.003;entryY=0.377;entryDx=0;entryDy=0;entryPerimeter=0;exitX=0.684;exitY=-0.007;exitDx=0;exitDy=0;exitPerimeter=0;" parent="1" source="zCyz3ce_a4fP4JThXpL--204" target="zCyz3ce_a4fP4JThXpL--200" edge="1">
          <mxGeometry relative="1" as="geometry">
            <mxPoint x="2098" y="707" as="targetPoint" />
            <Array as="points" />
          </mxGeometry>
        </mxCell>
        <mxCell id="zCyz3ce_a4fP4JThXpL--204" value="filter&lt;br&gt;&amp;lt;default&amp;gt;:&amp;nbsp;&lt;span style=&quot;font-family: &amp;#34;helvetica&amp;#34;&quot;&gt;comments sorted by most upvoted and &lt;b&gt;not contrary&lt;/b&gt; bar scale&lt;/span&gt;" style="rounded=0;whiteSpace=wrap;html=1;" parent="1" vertex="1">
          <mxGeometry x="2160" y="740" width="126" height="85" as="geometry" />
        </mxCell>
        <mxCell id="zCyz3ce_a4fP4JThXpL--205" value="comment explanations" style="rounded=0;whiteSpace=wrap;html=1;" parent="1" vertex="1">
          <mxGeometry x="2009" y="740" width="126" height="60" as="geometry" />
        </mxCell>
        <mxCell id="zCyz3ce_a4fP4JThXpL--206" style="edgeStyle=orthogonalEdgeStyle;rounded=0;orthogonalLoop=1;jettySize=auto;html=1;" parent="1" source="zCyz3ce_a4fP4JThXpL--207" target="zCyz3ce_a4fP4JThXpL--208" edge="1">
          <mxGeometry relative="1" as="geometry" />
        </mxCell>
        <mxCell id="zCyz3ce_a4fP4JThXpL--207" value="click on explanation to see comments" style="rounded=0;whiteSpace=wrap;html=1;" parent="1" vertex="1">
          <mxGeometry x="1720" y="740" width="126" height="60" as="geometry" />
        </mxCell>
        <mxCell id="zCyz3ce_a4fP4JThXpL--208" value="comment comments" style="rounded=0;whiteSpace=wrap;html=1;" parent="1" vertex="1">
          <mxGeometry x="1720" y="825" width="126" height="60" as="geometry" />
        </mxCell>
        <mxCell id="zCyz3ce_a4fP4JThXpL--209" style="edgeStyle=orthogonalEdgeStyle;rounded=0;orthogonalLoop=1;jettySize=auto;html=1;exitX=0.5;exitY=1;exitDx=0;exitDy=0;" parent="1" source="zCyz3ce_a4fP4JThXpL--210" edge="1">
          <mxGeometry relative="1" as="geometry">
            <mxPoint x="2081" y="1095" as="targetPoint" />
          </mxGeometry>
        </mxCell>
        <mxCell id="zCyz3ce_a4fP4JThXpL--210" value="Add tags" style="rounded=0;whiteSpace=wrap;html=1;dashed=1;" parent="1" vertex="1">
          <mxGeometry x="2020.5" y="1035" width="120" height="40" as="geometry" />
        </mxCell>
        <mxCell id="zCyz3ce_a4fP4JThXpL--211" value="&lt;font size=&quot;1&quot;&gt;&lt;b style=&quot;font-size: 30px&quot;&gt;3. User Flow: Create or follow&lt;/b&gt;&lt;/font&gt;" style="text;html=1;strokeColor=none;fillColor=none;align=center;verticalAlign=middle;whiteSpace=wrap;rounded=0;dashed=1;" parent="1" vertex="1">
          <mxGeometry x="1804" y="25" width="626" height="20" as="geometry" />
        </mxCell>
        <mxCell id="zCyz3ce_a4fP4JThXpL--212" style="edgeStyle=orthogonalEdgeStyle;rounded=0;orthogonalLoop=1;jettySize=auto;html=1;entryX=0.5;entryY=0;entryDx=0;entryDy=0;" parent="1" source="zCyz3ce_a4fP4JThXpL--214" target="zCyz3ce_a4fP4JThXpL--217" edge="1">
          <mxGeometry relative="1" as="geometry">
            <Array as="points">
              <mxPoint x="1986" y="755" />
              <mxPoint x="1986" y="815" />
              <mxPoint x="2077" y="815" />
            </Array>
          </mxGeometry>
        </mxCell>
        <mxCell id="zCyz3ce_a4fP4JThXpL--213" style="edgeStyle=orthogonalEdgeStyle;rounded=0;orthogonalLoop=1;jettySize=auto;html=1;entryX=0.5;entryY=0;entryDx=0;entryDy=0;" parent="1" source="zCyz3ce_a4fP4JThXpL--214" target="zCyz3ce_a4fP4JThXpL--218" edge="1">
          <mxGeometry relative="1" as="geometry" />
        </mxCell>
        <mxCell id="zCyz3ce_a4fP4JThXpL--214" value="" style="shape=sumEllipse;perimeter=ellipsePerimeter;whiteSpace=wrap;html=1;backgroundOutline=1;" parent="1" vertex="1">
          <mxGeometry x="1920" y="740" width="29" height="30" as="geometry" />
        </mxCell>
        <mxCell id="zCyz3ce_a4fP4JThXpL--215" style="edgeStyle=orthogonalEdgeStyle;rounded=0;orthogonalLoop=1;jettySize=auto;html=1;exitX=0.5;exitY=1;exitDx=0;exitDy=0;entryX=0.5;entryY=0;entryDx=0;entryDy=0;" parent="1" source="zCyz3ce_a4fP4JThXpL--217" target="zCyz3ce_a4fP4JThXpL--189" edge="1">
          <mxGeometry relative="1" as="geometry" />
        </mxCell>
        <mxCell id="zCyz3ce_a4fP4JThXpL--216" style="edgeStyle=orthogonalEdgeStyle;rounded=0;orthogonalLoop=1;jettySize=auto;html=1;" parent="1" source="zCyz3ce_a4fP4JThXpL--217" target="zCyz3ce_a4fP4JThXpL--223" edge="1">
          <mxGeometry relative="1" as="geometry">
            <Array as="points">
              <mxPoint x="2186" y="865" />
            </Array>
          </mxGeometry>
        </mxCell>
        <mxCell id="zCyz3ce_a4fP4JThXpL--217" value="create explanation" style="rounded=0;whiteSpace=wrap;html=1;" parent="1" vertex="1">
          <mxGeometry x="2014" y="835" width="126" height="60" as="geometry" />
        </mxCell>
        <mxCell id="zCyz3ce_a4fP4JThXpL--224" style="edgeStyle=orthogonalEdgeStyle;rounded=0;orthogonalLoop=1;jettySize=auto;html=1;entryX=0.5;entryY=1;entryDx=0;entryDy=0;" parent="1" source="zCyz3ce_a4fP4JThXpL--218" target="zCyz3ce_a4fP4JThXpL--223" edge="1">
          <mxGeometry relative="1" as="geometry">
            <Array as="points">
              <mxPoint x="1935" y="1160" />
              <mxPoint x="2228" y="1160" />
            </Array>
          </mxGeometry>
        </mxCell>
        <mxCell id="zCyz3ce_a4fP4JThXpL--218" value="chose explanation lead (gets upvoted significant by X upvotes)" style="rounded=0;whiteSpace=wrap;html=1;" parent="1" vertex="1">
          <mxGeometry x="1871.5" y="835" width="126" height="60" as="geometry" />
        </mxCell>
        <mxCell id="zCyz3ce_a4fP4JThXpL--219" value="Guidelines for debating (short)" style="rounded=0;whiteSpace=wrap;html=1;dashed=1;" parent="1" vertex="1">
          <mxGeometry x="2020" y="915" width="120" height="40" as="geometry" />
        </mxCell>
        <mxCell id="zCyz3ce_a4fP4JThXpL--220" value="Stating explanation" style="rounded=0;whiteSpace=wrap;html=1;dashed=1;" parent="1" vertex="1">
          <mxGeometry x="2020.5" y="975" width="120" height="40" as="geometry" />
        </mxCell>
        <mxCell id="zCyz3ce_a4fP4JThXpL--221" style="edgeStyle=orthogonalEdgeStyle;rounded=0;orthogonalLoop=1;jettySize=auto;html=1;exitX=0.5;exitY=0;exitDx=0;exitDy=0;" parent="1" source="zCyz3ce_a4fP4JThXpL--223" target="zCyz3ce_a4fP4JThXpL--204" edge="1">
          <mxGeometry relative="1" as="geometry">
            <mxPoint x="2228" y="1145" as="sourcePoint" />
            <mxPoint x="2228" y="835" as="targetPoint" />
            <Array as="points">
              <mxPoint x="2228" y="845" />
              <mxPoint x="2236" y="845" />
            </Array>
          </mxGeometry>
        </mxCell>
        <mxCell id="zCyz3ce_a4fP4JThXpL--222" value="&lt;strike&gt;not&lt;/strike&gt;" style="edgeLabel;html=1;align=center;verticalAlign=middle;resizable=0;points=[];" parent="zCyz3ce_a4fP4JThXpL--221" vertex="1" connectable="0">
          <mxGeometry x="-0.6857" y="1" relative="1" as="geometry">
            <mxPoint x="0.9899999999999998" y="-177.71" as="offset" />
          </mxGeometry>
        </mxCell>
        <mxCell id="zCyz3ce_a4fP4JThXpL--223" value="Submit" style="rounded=0;whiteSpace=wrap;html=1;" parent="1" vertex="1">
          <mxGeometry x="2168" y="1095" width="120" height="40" as="geometry" />
        </mxCell>
        <mxCell id="i7XcnwvfXEmZmaAKFHEr-1" style="edgeStyle=orthogonalEdgeStyle;rounded=0;orthogonalLoop=1;jettySize=auto;html=1;entryX=1;entryY=0.5;entryDx=0;entryDy=0;exitX=0.5;exitY=1;exitDx=0;exitDy=0;" parent="1" source="i7XcnwvfXEmZmaAKFHEr-2" target="i7XcnwvfXEmZmaAKFHEr-4" edge="1">
          <mxGeometry relative="1" as="geometry">
            <Array as="points">
              <mxPoint x="3049" y="202.46" />
            </Array>
          </mxGeometry>
        </mxCell>
        <mxCell id="i7XcnwvfXEmZmaAKFHEr-2" value="Registration" style="rounded=0;whiteSpace=wrap;html=1;" parent="1" vertex="1">
          <mxGeometry x="2989" y="97.46" width="120" height="40" as="geometry" />
        </mxCell>
        <mxCell id="i7XcnwvfXEmZmaAKFHEr-3" style="edgeStyle=orthogonalEdgeStyle;rounded=0;orthogonalLoop=1;jettySize=auto;html=1;exitX=0.5;exitY=1;exitDx=0;exitDy=0;entryX=0.5;entryY=0;entryDx=0;entryDy=0;" parent="1" source="i7XcnwvfXEmZmaAKFHEr-4" target="i7XcnwvfXEmZmaAKFHEr-19" edge="1">
          <mxGeometry relative="1" as="geometry">
            <mxPoint x="2819" y="232.46" as="targetPoint" />
            <Array as="points">
              <mxPoint x="2903" y="232.46" />
            </Array>
          </mxGeometry>
        </mxCell>
        <mxCell id="i7XcnwvfXEmZmaAKFHEr-4" value="Log-In" style="rounded=0;whiteSpace=wrap;html=1;" parent="1" vertex="1">
          <mxGeometry x="2843" y="182.46" width="120" height="40" as="geometry" />
        </mxCell>
        <mxCell id="i7XcnwvfXEmZmaAKFHEr-5" value="" style="ellipse;html=1;shape=startState;fillColor=#000000;strokeColor=#ff0000;" parent="1" vertex="1">
          <mxGeometry x="2888" y="32.46" width="30" height="30" as="geometry" />
        </mxCell>
        <mxCell id="i7XcnwvfXEmZmaAKFHEr-6" value="" style="edgeStyle=orthogonalEdgeStyle;html=1;verticalAlign=bottom;endArrow=open;endSize=8;strokeColor=#ff0000;entryX=0.5;entryY=0;entryDx=0;entryDy=0;" parent="1" source="i7XcnwvfXEmZmaAKFHEr-5" target="i7XcnwvfXEmZmaAKFHEr-7" edge="1">
          <mxGeometry relative="1" as="geometry">
            <mxPoint x="2903" y="122.46" as="targetPoint" />
          </mxGeometry>
        </mxCell>
        <mxCell id="i7XcnwvfXEmZmaAKFHEr-7" value="Registered user" style="rhombus;whiteSpace=wrap;html=1;fillColor=#ffffc0;strokeColor=#ff0000;" parent="1" vertex="1">
          <mxGeometry x="2849.5" y="82.46" width="107" height="70" as="geometry" />
        </mxCell>
        <mxCell id="i7XcnwvfXEmZmaAKFHEr-8" value="no" style="edgeStyle=orthogonalEdgeStyle;html=1;align=left;verticalAlign=bottom;endArrow=open;endSize=8;" parent="1" source="i7XcnwvfXEmZmaAKFHEr-7" edge="1">
          <mxGeometry x="-0.8605" y="5" relative="1" as="geometry">
            <mxPoint x="2989" y="117.46" as="targetPoint" />
            <mxPoint as="offset" />
          </mxGeometry>
        </mxCell>
        <mxCell id="i7XcnwvfXEmZmaAKFHEr-9" value="yes" style="edgeStyle=orthogonalEdgeStyle;html=1;align=left;verticalAlign=top;endArrow=open;endSize=8;entryX=0.5;entryY=0;entryDx=0;entryDy=0;" parent="1" source="i7XcnwvfXEmZmaAKFHEr-7" target="i7XcnwvfXEmZmaAKFHEr-4" edge="1">
          <mxGeometry x="-1" y="16" relative="1" as="geometry">
            <mxPoint x="2903" y="212.46" as="targetPoint" />
            <mxPoint as="offset" />
          </mxGeometry>
        </mxCell>
        <mxCell id="i7XcnwvfXEmZmaAKFHEr-10" style="edgeStyle=orthogonalEdgeStyle;rounded=0;orthogonalLoop=1;jettySize=auto;html=1;entryX=0.5;entryY=0;entryDx=0;entryDy=0;exitX=0;exitY=1;exitDx=0;exitDy=0;startArrow=classic;startFill=1;" parent="1" source="i7XcnwvfXEmZmaAKFHEr-13" target="i7XcnwvfXEmZmaAKFHEr-14" edge="1">
          <mxGeometry relative="1" as="geometry">
            <Array as="points">
              <mxPoint x="2559" y="378.46" />
            </Array>
          </mxGeometry>
        </mxCell>
        <mxCell id="i7XcnwvfXEmZmaAKFHEr-11" style="edgeStyle=orthogonalEdgeStyle;rounded=0;orthogonalLoop=1;jettySize=auto;html=1;exitX=0.5;exitY=1;exitDx=0;exitDy=0;strokeColor=#000000;" parent="1" source="i7XcnwvfXEmZmaAKFHEr-13" target="i7XcnwvfXEmZmaAKFHEr-25" edge="1">
          <mxGeometry relative="1" as="geometry">
            <mxPoint x="2903" y="402.46" as="targetPoint" />
          </mxGeometry>
        </mxCell>
        <mxCell id="i7XcnwvfXEmZmaAKFHEr-12" style="edgeStyle=orthogonalEdgeStyle;rounded=0;orthogonalLoop=1;jettySize=auto;html=1;exitX=-0.117;exitY=0.26;exitDx=0;exitDy=0;entryX=0.5;entryY=1;entryDx=0;entryDy=0;exitPerimeter=0;" parent="1" source="i7XcnwvfXEmZmaAKFHEr-13" target="i7XcnwvfXEmZmaAKFHEr-35" edge="1">
          <mxGeometry relative="1" as="geometry">
            <Array as="points">
              <mxPoint x="2885" y="362.46" />
              <mxPoint x="2559" y="362.46" />
            </Array>
          </mxGeometry>
        </mxCell>
        <mxCell id="i7XcnwvfXEmZmaAKFHEr-13" value="" style="shape=sumEllipse;perimeter=ellipsePerimeter;whiteSpace=wrap;html=1;backgroundOutline=1;" parent="1" vertex="1">
          <mxGeometry x="2888" y="352.46" width="29" height="30" as="geometry" />
        </mxCell>
        <mxCell id="i7XcnwvfXEmZmaAKFHEr-14" value="Create new questions" style="rounded=0;whiteSpace=wrap;html=1;fillColor=#f5f5f5;strokeColor=#666666;fontColor=#333333;" parent="1" vertex="1">
          <mxGeometry x="2499" y="402.46" width="120" height="40" as="geometry" />
        </mxCell>
        <mxCell id="i7XcnwvfXEmZmaAKFHEr-15" style="edgeStyle=orthogonalEdgeStyle;rounded=0;orthogonalLoop=1;jettySize=auto;html=1;entryX=0;entryY=1;entryDx=0;entryDy=0;exitX=0.5;exitY=0;exitDx=0;exitDy=0;startArrow=classic;startFill=1;" parent="1" source="i7XcnwvfXEmZmaAKFHEr-16" target="i7XcnwvfXEmZmaAKFHEr-13" edge="1">
          <mxGeometry relative="1" as="geometry">
            <Array as="points">
              <mxPoint x="2689" y="392.46" />
              <mxPoint x="2892" y="392.46" />
            </Array>
          </mxGeometry>
        </mxCell>
        <mxCell id="i7XcnwvfXEmZmaAKFHEr-16" value="Up-/ Downvote questions" style="rounded=0;whiteSpace=wrap;html=1;fillColor=#f5f5f5;strokeColor=#666666;fontColor=#333333;" parent="1" vertex="1">
          <mxGeometry x="2629" y="402.46" width="120" height="40" as="geometry" />
        </mxCell>
        <mxCell id="i7XcnwvfXEmZmaAKFHEr-17" style="edgeStyle=orthogonalEdgeStyle;rounded=0;orthogonalLoop=1;jettySize=auto;html=1;entryX=1;entryY=0.5;entryDx=0;entryDy=0;strokeColor=#000000;" parent="1" source="i7XcnwvfXEmZmaAKFHEr-18" target="i7XcnwvfXEmZmaAKFHEr-13" edge="1">
          <mxGeometry relative="1" as="geometry">
            <Array as="points">
              <mxPoint x="3189" y="367.46" />
            </Array>
          </mxGeometry>
        </mxCell>
        <mxCell id="i7XcnwvfXEmZmaAKFHEr-18" value="Guidelines for debating" style="rounded=0;whiteSpace=wrap;html=1;" parent="1" vertex="1">
          <mxGeometry x="3139" y="267.46" width="120" height="40" as="geometry" />
        </mxCell>
        <mxCell id="i7XcnwvfXEmZmaAKFHEr-19" value="First Log-In" style="rhombus;whiteSpace=wrap;html=1;fillColor=#ffffc0;strokeColor=#ff0000;" parent="1" vertex="1">
          <mxGeometry x="2849" y="252.46" width="107" height="70" as="geometry" />
        </mxCell>
        <mxCell id="i7XcnwvfXEmZmaAKFHEr-20" style="edgeStyle=orthogonalEdgeStyle;rounded=0;orthogonalLoop=1;jettySize=auto;html=1;exitX=1;exitY=0.5;exitDx=0;exitDy=0;entryX=0;entryY=0.5;entryDx=0;entryDy=0;strokeColor=#000000;" parent="1" source="i7XcnwvfXEmZmaAKFHEr-21" target="i7XcnwvfXEmZmaAKFHEr-18" edge="1">
          <mxGeometry relative="1" as="geometry" />
        </mxCell>
        <mxCell id="i7XcnwvfXEmZmaAKFHEr-21" value="Introduction of App" style="rounded=0;whiteSpace=wrap;html=1;" parent="1" vertex="1">
          <mxGeometry x="2989" y="267.46" width="120" height="40" as="geometry" />
        </mxCell>
        <mxCell id="i7XcnwvfXEmZmaAKFHEr-22" value="no" style="edgeStyle=orthogonalEdgeStyle;html=1;align=left;verticalAlign=bottom;endArrow=open;endSize=8;exitX=1;exitY=0.5;exitDx=0;exitDy=0;entryX=0;entryY=0.5;entryDx=0;entryDy=0;" parent="1" source="i7XcnwvfXEmZmaAKFHEr-19" target="i7XcnwvfXEmZmaAKFHEr-21" edge="1">
          <mxGeometry x="-1" y="-95" relative="1" as="geometry">
            <mxPoint x="2999" y="127.46" as="targetPoint" />
            <mxPoint x="2966.5" y="127.46" as="sourcePoint" />
            <mxPoint x="-77" y="-40" as="offset" />
          </mxGeometry>
        </mxCell>
        <mxCell id="i7XcnwvfXEmZmaAKFHEr-23" value="yes" style="edgeStyle=orthogonalEdgeStyle;html=1;align=left;verticalAlign=top;endArrow=open;endSize=8;entryX=0.5;entryY=0;entryDx=0;entryDy=0;" parent="1" target="i7XcnwvfXEmZmaAKFHEr-13" edge="1">
          <mxGeometry x="-0.0154" y="-64" relative="1" as="geometry">
            <mxPoint x="2913" y="192.46" as="targetPoint" />
            <mxPoint x="2903" y="322.46" as="sourcePoint" />
            <mxPoint x="111" y="-45" as="offset" />
          </mxGeometry>
        </mxCell>
        <mxCell id="i7XcnwvfXEmZmaAKFHEr-24" style="edgeStyle=orthogonalEdgeStyle;rounded=0;orthogonalLoop=1;jettySize=auto;html=1;entryX=0.5;entryY=0;entryDx=0;entryDy=0;strokeColor=#000000;" parent="1" source="i7XcnwvfXEmZmaAKFHEr-25" target="i7XcnwvfXEmZmaAKFHEr-68" edge="1">
          <mxGeometry relative="1" as="geometry">
            <mxPoint x="2903" y="482.4600000000005" as="targetPoint" />
          </mxGeometry>
        </mxCell>
        <mxCell id="i7XcnwvfXEmZmaAKFHEr-25" value="Click on question" style="rounded=0;whiteSpace=wrap;html=1;" parent="1" vertex="1">
          <mxGeometry x="2843" y="412.46" width="120" height="40" as="geometry" />
        </mxCell>
        <mxCell id="i7XcnwvfXEmZmaAKFHEr-35" value="Create face to face room" style="rounded=0;whiteSpace=wrap;html=1;fillColor=#f5f5f5;strokeColor=#666666;fontColor=#333333;" parent="1" vertex="1">
          <mxGeometry x="2499" y="307.46" width="120" height="40" as="geometry" />
        </mxCell>
        <mxCell id="i7XcnwvfXEmZmaAKFHEr-51" value="&lt;font size=&quot;1&quot;&gt;&lt;b style=&quot;font-size: 30px&quot;&gt;4. User Flow: Comments hidden until action&lt;/b&gt;&lt;/font&gt;" style="text;html=1;strokeColor=none;fillColor=none;align=center;verticalAlign=middle;whiteSpace=wrap;rounded=0;dashed=1;" parent="1" vertex="1">
          <mxGeometry x="2570" y="2.46" width="689" height="22.01" as="geometry" />
        </mxCell>
        <mxCell id="i7XcnwvfXEmZmaAKFHEr-66" style="edgeStyle=orthogonalEdgeStyle;rounded=0;orthogonalLoop=1;jettySize=auto;html=1;strokeColor=#000000;entryX=0;entryY=0.5;entryDx=0;entryDy=0;" parent="1" source="i7XcnwvfXEmZmaAKFHEr-68" target="i7XcnwvfXEmZmaAKFHEr-71" edge="1">
          <mxGeometry relative="1" as="geometry">
            <mxPoint x="3199" y="310" as="targetPoint" />
            <Array as="points" />
          </mxGeometry>
        </mxCell>
        <mxCell id="i7XcnwvfXEmZmaAKFHEr-67" style="edgeStyle=orthogonalEdgeStyle;rounded=0;orthogonalLoop=1;jettySize=auto;html=1;entryX=0.5;entryY=0;entryDx=0;entryDy=0;strokeColor=#000000;" parent="1" source="i7XcnwvfXEmZmaAKFHEr-68" target="i7XcnwvfXEmZmaAKFHEr-76" edge="1">
          <mxGeometry relative="1" as="geometry" />
        </mxCell>
        <mxCell id="i7XcnwvfXEmZmaAKFHEr-68" value="Scale your opinion" style="rounded=0;whiteSpace=wrap;html=1;" parent="1" vertex="1">
          <mxGeometry x="2843" y="480" width="120" height="40" as="geometry" />
        </mxCell>
        <mxCell id="i7XcnwvfXEmZmaAKFHEr-69" style="edgeStyle=orthogonalEdgeStyle;rounded=0;orthogonalLoop=1;jettySize=auto;html=1;entryX=0;entryY=0.5;entryDx=0;entryDy=0;strokeColor=#000000;" parent="1" source="i7XcnwvfXEmZmaAKFHEr-71" target="i7XcnwvfXEmZmaAKFHEr-74" edge="1">
          <mxGeometry relative="1" as="geometry" />
        </mxCell>
        <mxCell id="i7XcnwvfXEmZmaAKFHEr-70" style="edgeStyle=orthogonalEdgeStyle;rounded=0;orthogonalLoop=1;jettySize=auto;html=1;entryX=1;entryY=0.25;entryDx=0;entryDy=0;strokeColor=#000000;" parent="1" source="i7XcnwvfXEmZmaAKFHEr-71" target="i7XcnwvfXEmZmaAKFHEr-76" edge="1">
          <mxGeometry relative="1" as="geometry">
            <Array as="points">
              <mxPoint x="3049" y="560" />
            </Array>
          </mxGeometry>
        </mxCell>
        <mxCell id="i7XcnwvfXEmZmaAKFHEr-71" value="Guidelines for debating (short)" style="rounded=0;whiteSpace=wrap;html=1;dashed=1;" parent="1" vertex="1">
          <mxGeometry x="2989" y="480" width="120" height="40" as="geometry" />
        </mxCell>
        <mxCell id="i7XcnwvfXEmZmaAKFHEr-72" style="edgeStyle=orthogonalEdgeStyle;rounded=0;orthogonalLoop=1;jettySize=auto;html=1;entryX=1;entryY=0.5;entryDx=0;entryDy=0;strokeColor=#000000;" parent="1" source="i7XcnwvfXEmZmaAKFHEr-74" target="i7XcnwvfXEmZmaAKFHEr-76" edge="1">
          <mxGeometry relative="1" as="geometry">
            <Array as="points">
              <mxPoint x="3161" y="570" />
            </Array>
          </mxGeometry>
        </mxCell>
        <mxCell id="i7XcnwvfXEmZmaAKFHEr-73" style="edgeStyle=orthogonalEdgeStyle;rounded=0;orthogonalLoop=1;jettySize=auto;html=1;exitX=1;exitY=0.5;exitDx=0;exitDy=0;entryX=0.75;entryY=0;entryDx=0;entryDy=0;strokeColor=#000000;" parent="1" source="i7XcnwvfXEmZmaAKFHEr-74" target="i7XcnwvfXEmZmaAKFHEr-81" edge="1">
          <mxGeometry relative="1" as="geometry" />
        </mxCell>
        <mxCell id="i7XcnwvfXEmZmaAKFHEr-74" value="Stating explanation" style="rounded=0;whiteSpace=wrap;html=1;dashed=1;" parent="1" vertex="1">
          <mxGeometry x="3139" y="480" width="120" height="40" as="geometry" />
        </mxCell>
        <mxCell id="i7XcnwvfXEmZmaAKFHEr-100" style="edgeStyle=orthogonalEdgeStyle;rounded=0;orthogonalLoop=1;jettySize=auto;html=1;exitX=0.5;exitY=1;exitDx=0;exitDy=0;entryX=0.5;entryY=0;entryDx=0;entryDy=0;" parent="1" source="i7XcnwvfXEmZmaAKFHEr-76" target="i7XcnwvfXEmZmaAKFHEr-99" edge="1">
          <mxGeometry relative="1" as="geometry" />
        </mxCell>
        <mxCell id="i7XcnwvfXEmZmaAKFHEr-76" value="Submit" style="rounded=0;whiteSpace=wrap;html=1;" parent="1" vertex="1">
          <mxGeometry x="2843" y="550" width="120" height="40" as="geometry" />
        </mxCell>
        <mxCell id="i7XcnwvfXEmZmaAKFHEr-77" style="edgeStyle=orthogonalEdgeStyle;rounded=0;orthogonalLoop=1;jettySize=auto;html=1;entryX=1;entryY=1;entryDx=0;entryDy=0;strokeColor=#000000;exitX=0;exitY=0.5;exitDx=0;exitDy=0;" parent="1" source="i7XcnwvfXEmZmaAKFHEr-78" target="i7XcnwvfXEmZmaAKFHEr-76" edge="1">
          <mxGeometry relative="1" as="geometry">
            <Array as="points">
              <mxPoint x="3119" y="620" />
              <mxPoint x="3119" y="590" />
            </Array>
          </mxGeometry>
        </mxCell>
        <mxCell id="i7XcnwvfXEmZmaAKFHEr-78" value="Add Source" style="rounded=0;whiteSpace=wrap;html=1;dashed=1;" parent="1" vertex="1">
          <mxGeometry x="3189" y="600" width="120" height="40" as="geometry" />
        </mxCell>
        <mxCell id="i7XcnwvfXEmZmaAKFHEr-79" style="edgeStyle=orthogonalEdgeStyle;rounded=0;orthogonalLoop=1;jettySize=auto;html=1;exitX=0.75;exitY=1;exitDx=0;exitDy=0;entryX=0.75;entryY=0;entryDx=0;entryDy=0;" parent="1" source="i7XcnwvfXEmZmaAKFHEr-81" target="i7XcnwvfXEmZmaAKFHEr-78" edge="1">
          <mxGeometry relative="1" as="geometry" />
        </mxCell>
        <mxCell id="i7XcnwvfXEmZmaAKFHEr-80" style="edgeStyle=orthogonalEdgeStyle;rounded=0;orthogonalLoop=1;jettySize=auto;html=1;entryX=1;entryY=0.75;entryDx=0;entryDy=0;exitX=0;exitY=0.5;exitDx=0;exitDy=0;" parent="1" source="i7XcnwvfXEmZmaAKFHEr-81" target="i7XcnwvfXEmZmaAKFHEr-76" edge="1">
          <mxGeometry relative="1" as="geometry">
            <mxPoint x="2969" y="580" as="targetPoint" />
            <Array as="points">
              <mxPoint x="3179" y="560" />
              <mxPoint x="3179" y="580" />
            </Array>
          </mxGeometry>
        </mxCell>
        <mxCell id="i7XcnwvfXEmZmaAKFHEr-81" value="Add tags" style="rounded=0;whiteSpace=wrap;html=1;dashed=1;" parent="1" vertex="1">
          <mxGeometry x="3189" y="540" width="120" height="40" as="geometry" />
        </mxCell>
        <mxCell id="i7XcnwvfXEmZmaAKFHEr-110" style="edgeStyle=orthogonalEdgeStyle;rounded=0;orthogonalLoop=1;jettySize=auto;html=1;exitX=0.892;exitY=1;exitDx=0;exitDy=0;entryX=0;entryY=0.5;entryDx=0;entryDy=0;exitPerimeter=0;" parent="1" source="i7XcnwvfXEmZmaAKFHEr-99" target="i7XcnwvfXEmZmaAKFHEr-101" edge="1">
          <mxGeometry relative="1" as="geometry" />
        </mxCell>
        <mxCell id="i7XcnwvfXEmZmaAKFHEr-141" style="edgeStyle=orthogonalEdgeStyle;rounded=0;orthogonalLoop=1;jettySize=auto;html=1;exitX=0;exitY=0.25;exitDx=0;exitDy=0;entryX=0.5;entryY=1;entryDx=0;entryDy=0;" parent="1" source="i7XcnwvfXEmZmaAKFHEr-99" target="i7XcnwvfXEmZmaAKFHEr-133" edge="1">
          <mxGeometry relative="1" as="geometry">
            <mxPoint x="2740" y="720" as="targetPoint" />
          </mxGeometry>
        </mxCell>
        <mxCell id="i7XcnwvfXEmZmaAKFHEr-142" style="edgeStyle=orthogonalEdgeStyle;rounded=0;orthogonalLoop=1;jettySize=auto;html=1;exitX=0.5;exitY=1;exitDx=0;exitDy=0;entryX=0.5;entryY=0;entryDx=0;entryDy=0;" parent="1" source="i7XcnwvfXEmZmaAKFHEr-99" target="i7XcnwvfXEmZmaAKFHEr-119" edge="1">
          <mxGeometry relative="1" as="geometry" />
        </mxCell>
        <mxCell id="i7XcnwvfXEmZmaAKFHEr-99" value="Explanation Landing page.&lt;br&gt;&lt;font style=&quot;font-size: 8px&quot;&gt;You cannot see the explanations amount of upvotes until action below is taken&lt;/font&gt;" style="rounded=0;whiteSpace=wrap;html=1;" parent="1" vertex="1">
          <mxGeometry x="2843" y="735" width="120" height="85" as="geometry" />
        </mxCell>
        <mxCell id="i7XcnwvfXEmZmaAKFHEr-111" style="edgeStyle=orthogonalEdgeStyle;rounded=0;orthogonalLoop=1;jettySize=auto;html=1;entryX=1;entryY=0.5;entryDx=0;entryDy=0;exitX=1;exitY=0.5;exitDx=0;exitDy=0;" parent="1" source="i7XcnwvfXEmZmaAKFHEr-101" target="i7XcnwvfXEmZmaAKFHEr-104" edge="1">
          <mxGeometry relative="1" as="geometry" />
        </mxCell>
        <mxCell id="i7XcnwvfXEmZmaAKFHEr-113" style="edgeStyle=orthogonalEdgeStyle;rounded=0;orthogonalLoop=1;jettySize=auto;html=1;entryX=1;entryY=0.5;entryDx=0;entryDy=0;exitX=1;exitY=0.5;exitDx=0;exitDy=0;" parent="1" source="i7XcnwvfXEmZmaAKFHEr-101" target="i7XcnwvfXEmZmaAKFHEr-103" edge="1">
          <mxGeometry relative="1" as="geometry" />
        </mxCell>
        <mxCell id="i7XcnwvfXEmZmaAKFHEr-114" style="edgeStyle=orthogonalEdgeStyle;rounded=0;orthogonalLoop=1;jettySize=auto;html=1;exitX=1;exitY=0.5;exitDx=0;exitDy=0;entryX=1;entryY=0.5;entryDx=0;entryDy=0;" parent="1" source="i7XcnwvfXEmZmaAKFHEr-101" target="i7XcnwvfXEmZmaAKFHEr-102" edge="1">
          <mxGeometry relative="1" as="geometry" />
        </mxCell>
        <mxCell id="i7XcnwvfXEmZmaAKFHEr-101" value="filter comments differently" style="rounded=0;whiteSpace=wrap;html=1;" parent="1" vertex="1">
          <mxGeometry x="3109" y="860" width="126" height="40" as="geometry" />
        </mxCell>
        <mxCell id="i7XcnwvfXEmZmaAKFHEr-107" style="edgeStyle=orthogonalEdgeStyle;rounded=0;orthogonalLoop=1;jettySize=auto;html=1;exitX=0;exitY=0.5;exitDx=0;exitDy=0;entryX=1;entryY=0.25;entryDx=0;entryDy=0;" parent="1" source="i7XcnwvfXEmZmaAKFHEr-102" target="i7XcnwvfXEmZmaAKFHEr-99" edge="1">
          <mxGeometry relative="1" as="geometry" />
        </mxCell>
        <mxCell id="i7XcnwvfXEmZmaAKFHEr-102" value="&amp;lt;default&amp;gt; &lt;br&gt;most/least upvoted" style="rounded=0;whiteSpace=wrap;html=1;" parent="1" vertex="1">
          <mxGeometry x="3109" y="707.5" width="126" height="40" as="geometry" />
        </mxCell>
        <mxCell id="i7XcnwvfXEmZmaAKFHEr-108" style="edgeStyle=orthogonalEdgeStyle;rounded=0;orthogonalLoop=1;jettySize=auto;html=1;exitX=0;exitY=0.5;exitDx=0;exitDy=0;entryX=1;entryY=0.5;entryDx=0;entryDy=0;" parent="1" source="i7XcnwvfXEmZmaAKFHEr-103" target="i7XcnwvfXEmZmaAKFHEr-99" edge="1">
          <mxGeometry relative="1" as="geometry" />
        </mxCell>
        <mxCell id="i7XcnwvfXEmZmaAKFHEr-103" value="newest/oldest" style="rounded=0;whiteSpace=wrap;html=1;" parent="1" vertex="1">
          <mxGeometry x="3109" y="757.5" width="126" height="40" as="geometry" />
        </mxCell>
        <mxCell id="i7XcnwvfXEmZmaAKFHEr-109" style="edgeStyle=orthogonalEdgeStyle;rounded=0;orthogonalLoop=1;jettySize=auto;html=1;exitX=0;exitY=0.5;exitDx=0;exitDy=0;entryX=1;entryY=0.75;entryDx=0;entryDy=0;" parent="1" source="i7XcnwvfXEmZmaAKFHEr-104" target="i7XcnwvfXEmZmaAKFHEr-99" edge="1">
          <mxGeometry relative="1" as="geometry" />
        </mxCell>
        <mxCell id="i7XcnwvfXEmZmaAKFHEr-104" value="&quot;on the rise&quot;&lt;br&gt;&lt;font style=&quot;font-size: 5px&quot;&gt;(combination of newest and most upvoted)&lt;/font&gt;" style="rounded=0;whiteSpace=wrap;html=1;" parent="1" vertex="1">
          <mxGeometry x="3109" y="807.5" width="126" height="40" as="geometry" />
        </mxCell>
        <mxCell id="i7XcnwvfXEmZmaAKFHEr-125" style="edgeStyle=orthogonalEdgeStyle;rounded=0;orthogonalLoop=1;jettySize=auto;html=1;entryX=1;entryY=0.5;entryDx=0;entryDy=0;exitX=0.5;exitY=1;exitDx=0;exitDy=0;" parent="1" source="i7XcnwvfXEmZmaAKFHEr-119" target="i7XcnwvfXEmZmaAKFHEr-122" edge="1">
          <mxGeometry relative="1" as="geometry" />
        </mxCell>
        <mxCell id="i7XcnwvfXEmZmaAKFHEr-126" style="edgeStyle=orthogonalEdgeStyle;rounded=0;orthogonalLoop=1;jettySize=auto;html=1;entryX=1;entryY=0.5;entryDx=0;entryDy=0;exitX=0.5;exitY=1;exitDx=0;exitDy=0;" parent="1" source="i7XcnwvfXEmZmaAKFHEr-119" target="i7XcnwvfXEmZmaAKFHEr-123" edge="1">
          <mxGeometry relative="1" as="geometry" />
        </mxCell>
        <mxCell id="i7XcnwvfXEmZmaAKFHEr-127" style="edgeStyle=orthogonalEdgeStyle;rounded=0;orthogonalLoop=1;jettySize=auto;html=1;entryX=1;entryY=0.5;entryDx=0;entryDy=0;exitX=0.5;exitY=1;exitDx=0;exitDy=0;" parent="1" source="i7XcnwvfXEmZmaAKFHEr-119" target="i7XcnwvfXEmZmaAKFHEr-124" edge="1">
          <mxGeometry relative="1" as="geometry" />
        </mxCell>
        <mxCell id="i7XcnwvfXEmZmaAKFHEr-119" value="" style="shape=sumEllipse;perimeter=ellipsePerimeter;whiteSpace=wrap;html=1;backgroundOutline=1;" parent="1" vertex="1">
          <mxGeometry x="2888.5" y="920" width="29" height="30" as="geometry" />
        </mxCell>
        <mxCell id="i7XcnwvfXEmZmaAKFHEr-121" value="&lt;font style=&quot;font-size: 5px&quot;&gt;for each comment&lt;/font&gt;" style="text;html=1;resizable=0;autosize=1;align=center;verticalAlign=middle;points=[];fillColor=none;strokeColor=none;rounded=0;rotation=90;" parent="1" vertex="1">
          <mxGeometry x="2880" y="850" width="60" height="20" as="geometry" />
        </mxCell>
        <mxCell id="i7XcnwvfXEmZmaAKFHEr-129" style="edgeStyle=orthogonalEdgeStyle;rounded=0;orthogonalLoop=1;jettySize=auto;html=1;entryX=0.5;entryY=1;entryDx=0;entryDy=0;" parent="1" source="i7XcnwvfXEmZmaAKFHEr-122" target="i7XcnwvfXEmZmaAKFHEr-128" edge="1">
          <mxGeometry relative="1" as="geometry" />
        </mxCell>
        <mxCell id="i7XcnwvfXEmZmaAKFHEr-122" value="upvote" style="rounded=0;whiteSpace=wrap;html=1;" parent="1" vertex="1">
          <mxGeometry x="2749" y="985" width="126" height="40" as="geometry" />
        </mxCell>
        <mxCell id="i7XcnwvfXEmZmaAKFHEr-130" style="edgeStyle=orthogonalEdgeStyle;rounded=0;orthogonalLoop=1;jettySize=auto;html=1;" parent="1" source="i7XcnwvfXEmZmaAKFHEr-123" target="i7XcnwvfXEmZmaAKFHEr-128" edge="1">
          <mxGeometry relative="1" as="geometry" />
        </mxCell>
        <mxCell id="i7XcnwvfXEmZmaAKFHEr-123" value="neutral" style="rounded=0;whiteSpace=wrap;html=1;" parent="1" vertex="1">
          <mxGeometry x="2749" y="1045" width="126" height="40" as="geometry" />
        </mxCell>
        <mxCell id="i7XcnwvfXEmZmaAKFHEr-131" style="edgeStyle=orthogonalEdgeStyle;rounded=0;orthogonalLoop=1;jettySize=auto;html=1;entryX=0.5;entryY=1;entryDx=0;entryDy=0;" parent="1" source="i7XcnwvfXEmZmaAKFHEr-124" target="i7XcnwvfXEmZmaAKFHEr-128" edge="1">
          <mxGeometry relative="1" as="geometry" />
        </mxCell>
        <mxCell id="i7XcnwvfXEmZmaAKFHEr-124" value="downvote" style="rounded=0;whiteSpace=wrap;html=1;dashed=1;" parent="1" vertex="1">
          <mxGeometry x="2749" y="1105" width="126" height="40" as="geometry" />
        </mxCell>
        <mxCell id="i7XcnwvfXEmZmaAKFHEr-132" style="edgeStyle=orthogonalEdgeStyle;rounded=0;orthogonalLoop=1;jettySize=auto;html=1;entryX=0;entryY=0.5;entryDx=0;entryDy=0;exitX=0.5;exitY=0;exitDx=0;exitDy=0;" parent="1" source="i7XcnwvfXEmZmaAKFHEr-128" target="i7XcnwvfXEmZmaAKFHEr-99" edge="1">
          <mxGeometry relative="1" as="geometry" />
        </mxCell>
        <mxCell id="i7XcnwvfXEmZmaAKFHEr-128" value="see the comments amount of upvotes" style="rounded=0;whiteSpace=wrap;html=1;" parent="1" vertex="1">
          <mxGeometry x="2600" y="915" width="126" height="40" as="geometry" />
        </mxCell>
        <mxCell id="i7XcnwvfXEmZmaAKFHEr-136" style="edgeStyle=orthogonalEdgeStyle;rounded=0;orthogonalLoop=1;jettySize=auto;html=1;entryX=0.5;entryY=1;entryDx=0;entryDy=0;" parent="1" source="i7XcnwvfXEmZmaAKFHEr-133" target="i7XcnwvfXEmZmaAKFHEr-135" edge="1">
          <mxGeometry relative="1" as="geometry" />
        </mxCell>
        <mxCell id="i7XcnwvfXEmZmaAKFHEr-138" style="edgeStyle=orthogonalEdgeStyle;rounded=0;orthogonalLoop=1;jettySize=auto;html=1;entryX=0.5;entryY=0;entryDx=0;entryDy=0;" parent="1" source="i7XcnwvfXEmZmaAKFHEr-133" target="i7XcnwvfXEmZmaAKFHEr-137" edge="1">
          <mxGeometry relative="1" as="geometry" />
        </mxCell>
        <mxCell id="i7XcnwvfXEmZmaAKFHEr-133" value="click on explanation" style="rounded=0;whiteSpace=wrap;html=1;" parent="1" vertex="1">
          <mxGeometry x="2680" y="675" width="126" height="40" as="geometry" />
        </mxCell>
        <mxCell id="i7XcnwvfXEmZmaAKFHEr-135" value="view explanation&#39;s comments" style="rounded=0;whiteSpace=wrap;html=1;" parent="1" vertex="1">
          <mxGeometry x="2540" y="635" width="126" height="40" as="geometry" />
        </mxCell>
        <mxCell id="i7XcnwvfXEmZmaAKFHEr-137" value="comment on explanation" style="rounded=0;whiteSpace=wrap;html=1;" parent="1" vertex="1">
          <mxGeometry x="2540" y="715" width="126" height="40" as="geometry" />
        </mxCell>
        <mxCell id="i7XcnwvfXEmZmaAKFHEr-143" value="&lt;span style=&quot;font-size: 30px&quot;&gt;&lt;b&gt;An example flow for 1.&lt;/b&gt;&lt;/span&gt;" style="text;html=1;strokeColor=none;fillColor=none;align=center;verticalAlign=middle;whiteSpace=wrap;rounded=0;dashed=1;" parent="1" vertex="1">
          <mxGeometry x="142" y="1190" width="540" height="20" as="geometry" />
        </mxCell>
        <mxCell id="i7XcnwvfXEmZmaAKFHEr-153" value="" style="edgeStyle=orthogonalEdgeStyle;rounded=0;orthogonalLoop=1;jettySize=auto;html=1;entryX=0.5;entryY=0;entryDx=0;entryDy=0;" parent="1" source="i7XcnwvfXEmZmaAKFHEr-147" target="i7XcnwvfXEmZmaAKFHEr-148" edge="1">
          <mxGeometry relative="1" as="geometry" />
        </mxCell>
        <mxCell id="i7XcnwvfXEmZmaAKFHEr-147" value="opens app" style="rounded=1;whiteSpace=wrap;html=1;" parent="1" vertex="1">
          <mxGeometry x="336" y="1265" width="120" height="40" as="geometry" />
        </mxCell>
        <mxCell id="i7XcnwvfXEmZmaAKFHEr-154" value="" style="edgeStyle=orthogonalEdgeStyle;rounded=0;orthogonalLoop=1;jettySize=auto;html=1;" parent="1" source="i7XcnwvfXEmZmaAKFHEr-148" target="i7XcnwvfXEmZmaAKFHEr-149" edge="1">
          <mxGeometry relative="1" as="geometry" />
        </mxCell>
        <mxCell id="i7XcnwvfXEmZmaAKFHEr-148" value="clicks on question" style="rounded=1;whiteSpace=wrap;html=1;" parent="1" vertex="1">
          <mxGeometry x="336" y="1335" width="120" height="40" as="geometry" />
        </mxCell>
        <mxCell id="i7XcnwvfXEmZmaAKFHEr-155" value="" style="edgeStyle=orthogonalEdgeStyle;rounded=0;orthogonalLoop=1;jettySize=auto;html=1;" parent="1" source="i7XcnwvfXEmZmaAKFHEr-149" target="i7XcnwvfXEmZmaAKFHEr-151" edge="1">
          <mxGeometry relative="1" as="geometry" />
        </mxCell>
        <mxCell id="i7XcnwvfXEmZmaAKFHEr-149" value="scales opinion" style="rounded=1;whiteSpace=wrap;html=1;" parent="1" vertex="1">
          <mxGeometry x="336" y="1405" width="120" height="40" as="geometry" />
        </mxCell>
        <mxCell id="i7XcnwvfXEmZmaAKFHEr-156" value="" style="edgeStyle=orthogonalEdgeStyle;rounded=0;orthogonalLoop=1;jettySize=auto;html=1;" parent="1" source="i7XcnwvfXEmZmaAKFHEr-151" target="i7XcnwvfXEmZmaAKFHEr-152" edge="1">
          <mxGeometry relative="1" as="geometry" />
        </mxCell>
        <mxCell id="i7XcnwvfXEmZmaAKFHEr-151" value="submits" style="rounded=1;whiteSpace=wrap;html=1;" parent="1" vertex="1">
          <mxGeometry x="336" y="1475" width="120" height="40" as="geometry" />
        </mxCell>
        <mxCell id="i7XcnwvfXEmZmaAKFHEr-158" value="" style="edgeStyle=orthogonalEdgeStyle;rounded=0;orthogonalLoop=1;jettySize=auto;html=1;" parent="1" source="i7XcnwvfXEmZmaAKFHEr-152" target="i7XcnwvfXEmZmaAKFHEr-157" edge="1">
          <mxGeometry relative="1" as="geometry" />
        </mxCell>
        <mxCell id="i7XcnwvfXEmZmaAKFHEr-152" value="scrolls through explanations of other side" style="rounded=1;whiteSpace=wrap;html=1;" parent="1" vertex="1">
          <mxGeometry x="336" y="1545" width="120" height="40" as="geometry" />
        </mxCell>
        <mxCell id="i7XcnwvfXEmZmaAKFHEr-157" value="upvotes/downvotes&lt;br&gt;explanations" style="rounded=1;whiteSpace=wrap;html=1;" parent="1" vertex="1">
          <mxGeometry x="336" y="1615" width="120" height="40" as="geometry" />
        </mxCell>
        <mxCell id="i7XcnwvfXEmZmaAKFHEr-159" value="&lt;span style=&quot;font-size: 30px&quot;&gt;&lt;b&gt;An example flow for 2.&lt;/b&gt;&lt;/span&gt;" style="text;html=1;strokeColor=none;fillColor=none;align=center;verticalAlign=middle;whiteSpace=wrap;rounded=0;dashed=1;" parent="1" vertex="1">
          <mxGeometry x="1014" y="1200" width="540" height="20" as="geometry" />
        </mxCell>
        <mxCell id="i7XcnwvfXEmZmaAKFHEr-160" value="" style="edgeStyle=orthogonalEdgeStyle;rounded=0;orthogonalLoop=1;jettySize=auto;html=1;entryX=0.5;entryY=0;entryDx=0;entryDy=0;" parent="1" source="i7XcnwvfXEmZmaAKFHEr-161" target="i7XcnwvfXEmZmaAKFHEr-163" edge="1">
          <mxGeometry relative="1" as="geometry" />
        </mxCell>
        <mxCell id="i7XcnwvfXEmZmaAKFHEr-161" value="opens app" style="rounded=1;whiteSpace=wrap;html=1;" parent="1" vertex="1">
          <mxGeometry x="1208" y="1275" width="120" height="40" as="geometry" />
        </mxCell>
        <mxCell id="i7XcnwvfXEmZmaAKFHEr-162" value="" style="edgeStyle=orthogonalEdgeStyle;rounded=0;orthogonalLoop=1;jettySize=auto;html=1;" parent="1" source="i7XcnwvfXEmZmaAKFHEr-163" target="i7XcnwvfXEmZmaAKFHEr-165" edge="1">
          <mxGeometry relative="1" as="geometry" />
        </mxCell>
        <mxCell id="i7XcnwvfXEmZmaAKFHEr-163" value="clicks on question" style="rounded=1;whiteSpace=wrap;html=1;" parent="1" vertex="1">
          <mxGeometry x="1208" y="1345" width="120" height="40" as="geometry" />
        </mxCell>
        <mxCell id="i7XcnwvfXEmZmaAKFHEr-164" value="" style="edgeStyle=orthogonalEdgeStyle;rounded=0;orthogonalLoop=1;jettySize=auto;html=1;" parent="1" source="i7XcnwvfXEmZmaAKFHEr-165" target="i7XcnwvfXEmZmaAKFHEr-167" edge="1">
          <mxGeometry relative="1" as="geometry" />
        </mxCell>
        <mxCell id="i7XcnwvfXEmZmaAKFHEr-165" value="scales opinion" style="rounded=1;whiteSpace=wrap;html=1;" parent="1" vertex="1">
          <mxGeometry x="1208" y="1415" width="120" height="40" as="geometry" />
        </mxCell>
        <mxCell id="i7XcnwvfXEmZmaAKFHEr-166" value="" style="edgeStyle=orthogonalEdgeStyle;rounded=0;orthogonalLoop=1;jettySize=auto;html=1;" parent="1" source="i7XcnwvfXEmZmaAKFHEr-167" target="i7XcnwvfXEmZmaAKFHEr-169" edge="1">
          <mxGeometry relative="1" as="geometry" />
        </mxCell>
        <mxCell id="i7XcnwvfXEmZmaAKFHEr-167" value="submits" style="rounded=1;whiteSpace=wrap;html=1;" parent="1" vertex="1">
          <mxGeometry x="1208" y="1485" width="120" height="40" as="geometry" />
        </mxCell>
        <mxCell id="i7XcnwvfXEmZmaAKFHEr-168" value="" style="edgeStyle=orthogonalEdgeStyle;rounded=0;orthogonalLoop=1;jettySize=auto;html=1;" parent="1" source="i7XcnwvfXEmZmaAKFHEr-169" target="i7XcnwvfXEmZmaAKFHEr-170" edge="1">
          <mxGeometry relative="1" as="geometry" />
        </mxCell>
        <mxCell id="i7XcnwvfXEmZmaAKFHEr-169" value="scrolls through explanations of own side" style="rounded=1;whiteSpace=wrap;html=1;" parent="1" vertex="1">
          <mxGeometry x="1208" y="1555" width="120" height="40" as="geometry" />
        </mxCell>
        <mxCell id="i7XcnwvfXEmZmaAKFHEr-172" style="edgeStyle=orthogonalEdgeStyle;rounded=0;orthogonalLoop=1;jettySize=auto;html=1;exitX=0.5;exitY=1;exitDx=0;exitDy=0;entryX=0.5;entryY=0;entryDx=0;entryDy=0;" parent="1" source="i7XcnwvfXEmZmaAKFHEr-170" target="i7XcnwvfXEmZmaAKFHEr-171" edge="1">
          <mxGeometry relative="1" as="geometry" />
        </mxCell>
        <mxCell id="i7XcnwvfXEmZmaAKFHEr-170" value="chooses one explanation as representative" style="rounded=1;whiteSpace=wrap;html=1;" parent="1" vertex="1">
          <mxGeometry x="1208" y="1625" width="120" height="55" as="geometry" />
        </mxCell>
        <mxCell id="i7XcnwvfXEmZmaAKFHEr-174" value="" style="edgeStyle=orthogonalEdgeStyle;rounded=0;orthogonalLoop=1;jettySize=auto;html=1;" parent="1" source="i7XcnwvfXEmZmaAKFHEr-171" target="i7XcnwvfXEmZmaAKFHEr-173" edge="1">
          <mxGeometry relative="1" as="geometry" />
        </mxCell>
        <mxCell id="i7XcnwvfXEmZmaAKFHEr-171" value="submits" style="rounded=1;whiteSpace=wrap;html=1;" parent="1" vertex="1">
          <mxGeometry x="1208" y="1710" width="120" height="40" as="geometry" />
        </mxCell>
        <mxCell id="i7XcnwvfXEmZmaAKFHEr-173" value="scrolls through explanations of other side" style="rounded=1;whiteSpace=wrap;html=1;" parent="1" vertex="1">
          <mxGeometry x="1208" y="1780" width="120" height="40" as="geometry" />
        </mxCell>
        <mxCell id="i7XcnwvfXEmZmaAKFHEr-176" value="&lt;span style=&quot;font-size: 30px&quot;&gt;&lt;b&gt;An example flow for 3.&lt;/b&gt;&lt;/span&gt;" style="text;html=1;strokeColor=none;fillColor=none;align=center;verticalAlign=middle;whiteSpace=wrap;rounded=0;dashed=1;" parent="1" vertex="1">
          <mxGeometry x="1890" y="1195" width="540" height="20" as="geometry" />
        </mxCell>
        <mxCell id="i7XcnwvfXEmZmaAKFHEr-177" value="" style="edgeStyle=orthogonalEdgeStyle;rounded=0;orthogonalLoop=1;jettySize=auto;html=1;entryX=0.5;entryY=0;entryDx=0;entryDy=0;" parent="1" source="i7XcnwvfXEmZmaAKFHEr-178" target="i7XcnwvfXEmZmaAKFHEr-180" edge="1">
          <mxGeometry relative="1" as="geometry" />
        </mxCell>
        <mxCell id="i7XcnwvfXEmZmaAKFHEr-178" value="opens app" style="rounded=1;whiteSpace=wrap;html=1;" parent="1" vertex="1">
          <mxGeometry x="2084" y="1270" width="120" height="40" as="geometry" />
        </mxCell>
        <mxCell id="i7XcnwvfXEmZmaAKFHEr-179" value="" style="edgeStyle=orthogonalEdgeStyle;rounded=0;orthogonalLoop=1;jettySize=auto;html=1;" parent="1" source="i7XcnwvfXEmZmaAKFHEr-180" target="i7XcnwvfXEmZmaAKFHEr-182" edge="1">
          <mxGeometry relative="1" as="geometry" />
        </mxCell>
        <mxCell id="i7XcnwvfXEmZmaAKFHEr-180" value="clicks on question" style="rounded=1;whiteSpace=wrap;html=1;" parent="1" vertex="1">
          <mxGeometry x="2084" y="1340" width="120" height="40" as="geometry" />
        </mxCell>
        <mxCell id="i7XcnwvfXEmZmaAKFHEr-181" value="" style="edgeStyle=orthogonalEdgeStyle;rounded=0;orthogonalLoop=1;jettySize=auto;html=1;" parent="1" source="i7XcnwvfXEmZmaAKFHEr-182" target="i7XcnwvfXEmZmaAKFHEr-184" edge="1">
          <mxGeometry relative="1" as="geometry" />
        </mxCell>
        <mxCell id="i7XcnwvfXEmZmaAKFHEr-182" value="scales opinion" style="rounded=1;whiteSpace=wrap;html=1;" parent="1" vertex="1">
          <mxGeometry x="2084" y="1410" width="120" height="40" as="geometry" />
        </mxCell>
        <mxCell id="i7XcnwvfXEmZmaAKFHEr-183" value="" style="edgeStyle=orthogonalEdgeStyle;rounded=0;orthogonalLoop=1;jettySize=auto;html=1;" parent="1" source="i7XcnwvfXEmZmaAKFHEr-184" target="i7XcnwvfXEmZmaAKFHEr-186" edge="1">
          <mxGeometry relative="1" as="geometry" />
        </mxCell>
        <mxCell id="i7XcnwvfXEmZmaAKFHEr-184" value="submits" style="rounded=1;whiteSpace=wrap;html=1;" parent="1" vertex="1">
          <mxGeometry x="2084" y="1480" width="120" height="40" as="geometry" />
        </mxCell>
        <mxCell id="i7XcnwvfXEmZmaAKFHEr-185" value="" style="edgeStyle=orthogonalEdgeStyle;rounded=0;orthogonalLoop=1;jettySize=auto;html=1;" parent="1" source="i7XcnwvfXEmZmaAKFHEr-186" target="i7XcnwvfXEmZmaAKFHEr-188" edge="1">
          <mxGeometry relative="1" as="geometry" />
        </mxCell>
        <mxCell id="i7XcnwvfXEmZmaAKFHEr-186" value="scrolls through explanations of own side" style="rounded=1;whiteSpace=wrap;html=1;" parent="1" vertex="1">
          <mxGeometry x="2084" y="1550" width="120" height="40" as="geometry" />
        </mxCell>
        <mxCell id="i7XcnwvfXEmZmaAKFHEr-187" style="edgeStyle=orthogonalEdgeStyle;rounded=0;orthogonalLoop=1;jettySize=auto;html=1;exitX=0.5;exitY=1;exitDx=0;exitDy=0;entryX=0.5;entryY=0;entryDx=0;entryDy=0;" parent="1" source="i7XcnwvfXEmZmaAKFHEr-188" target="i7XcnwvfXEmZmaAKFHEr-190" edge="1">
          <mxGeometry relative="1" as="geometry" />
        </mxCell>
        <mxCell id="i7XcnwvfXEmZmaAKFHEr-188" value="chooses one explanation as &quot;lead&quot;" style="rounded=1;whiteSpace=wrap;html=1;" parent="1" vertex="1">
          <mxGeometry x="2084" y="1620" width="120" height="55" as="geometry" />
        </mxCell>
        <mxCell id="i7XcnwvfXEmZmaAKFHEr-189" value="" style="edgeStyle=orthogonalEdgeStyle;rounded=0;orthogonalLoop=1;jettySize=auto;html=1;" parent="1" source="i7XcnwvfXEmZmaAKFHEr-190" target="i7XcnwvfXEmZmaAKFHEr-191" edge="1">
          <mxGeometry relative="1" as="geometry" />
        </mxCell>
        <mxCell id="i7XcnwvfXEmZmaAKFHEr-190" value="submits" style="rounded=1;whiteSpace=wrap;html=1;" parent="1" vertex="1">
          <mxGeometry x="2084" y="1705" width="120" height="40" as="geometry" />
        </mxCell>
        <mxCell id="i7XcnwvfXEmZmaAKFHEr-191" value="scrolls through explanations of other side" style="rounded=1;whiteSpace=wrap;html=1;" parent="1" vertex="1">
          <mxGeometry x="2084" y="1775" width="120" height="40" as="geometry" />
        </mxCell>
        <mxCell id="i7XcnwvfXEmZmaAKFHEr-192" value="&lt;span style=&quot;font-size: 30px&quot;&gt;&lt;b&gt;An example flow for 4.&lt;/b&gt;&lt;/span&gt;" style="text;html=1;strokeColor=none;fillColor=none;align=center;verticalAlign=middle;whiteSpace=wrap;rounded=0;dashed=1;" parent="1" vertex="1">
          <mxGeometry x="2800" y="1210" width="540" height="20" as="geometry" />
        </mxCell>
        <mxCell id="i7XcnwvfXEmZmaAKFHEr-193" value="" style="edgeStyle=orthogonalEdgeStyle;rounded=0;orthogonalLoop=1;jettySize=auto;html=1;entryX=0.5;entryY=0;entryDx=0;entryDy=0;" parent="1" source="i7XcnwvfXEmZmaAKFHEr-194" target="i7XcnwvfXEmZmaAKFHEr-196" edge="1">
          <mxGeometry relative="1" as="geometry" />
        </mxCell>
        <mxCell id="i7XcnwvfXEmZmaAKFHEr-194" value="opens app" style="rounded=1;whiteSpace=wrap;html=1;" parent="1" vertex="1">
          <mxGeometry x="2994" y="1285" width="120" height="40" as="geometry" />
        </mxCell>
        <mxCell id="i7XcnwvfXEmZmaAKFHEr-195" value="" style="edgeStyle=orthogonalEdgeStyle;rounded=0;orthogonalLoop=1;jettySize=auto;html=1;" parent="1" source="i7XcnwvfXEmZmaAKFHEr-196" target="i7XcnwvfXEmZmaAKFHEr-198" edge="1">
          <mxGeometry relative="1" as="geometry" />
        </mxCell>
        <mxCell id="i7XcnwvfXEmZmaAKFHEr-196" value="clicks on question" style="rounded=1;whiteSpace=wrap;html=1;" parent="1" vertex="1">
          <mxGeometry x="2994" y="1355" width="120" height="40" as="geometry" />
        </mxCell>
        <mxCell id="i7XcnwvfXEmZmaAKFHEr-197" value="" style="edgeStyle=orthogonalEdgeStyle;rounded=0;orthogonalLoop=1;jettySize=auto;html=1;" parent="1" source="i7XcnwvfXEmZmaAKFHEr-198" target="i7XcnwvfXEmZmaAKFHEr-200" edge="1">
          <mxGeometry relative="1" as="geometry" />
        </mxCell>
        <mxCell id="i7XcnwvfXEmZmaAKFHEr-198" value="scales opinion" style="rounded=1;whiteSpace=wrap;html=1;" parent="1" vertex="1">
          <mxGeometry x="2994" y="1425" width="120" height="40" as="geometry" />
        </mxCell>
        <mxCell id="i7XcnwvfXEmZmaAKFHEr-199" value="" style="edgeStyle=orthogonalEdgeStyle;rounded=0;orthogonalLoop=1;jettySize=auto;html=1;" parent="1" source="i7XcnwvfXEmZmaAKFHEr-200" target="i7XcnwvfXEmZmaAKFHEr-202" edge="1">
          <mxGeometry relative="1" as="geometry" />
        </mxCell>
        <mxCell id="i7XcnwvfXEmZmaAKFHEr-200" value="submits" style="rounded=1;whiteSpace=wrap;html=1;" parent="1" vertex="1">
          <mxGeometry x="2994" y="1495" width="120" height="40" as="geometry" />
        </mxCell>
        <mxCell id="i7XcnwvfXEmZmaAKFHEr-201" value="" style="edgeStyle=orthogonalEdgeStyle;rounded=0;orthogonalLoop=1;jettySize=auto;html=1;" parent="1" source="i7XcnwvfXEmZmaAKFHEr-202" target="i7XcnwvfXEmZmaAKFHEr-204" edge="1">
          <mxGeometry relative="1" as="geometry" />
        </mxCell>
        <mxCell id="i7XcnwvfXEmZmaAKFHEr-202" value="scrolls through explanations of other side" style="rounded=1;whiteSpace=wrap;html=1;" parent="1" vertex="1">
          <mxGeometry x="2994" y="1565" width="120" height="40" as="geometry" />
        </mxCell>
        <mxCell id="i7XcnwvfXEmZmaAKFHEr-203" style="edgeStyle=orthogonalEdgeStyle;rounded=0;orthogonalLoop=1;jettySize=auto;html=1;exitX=0.25;exitY=1;exitDx=0;exitDy=0;entryX=0.75;entryY=1;entryDx=0;entryDy=0;" parent="1" source="i7XcnwvfXEmZmaAKFHEr-204" target="i7XcnwvfXEmZmaAKFHEr-204" edge="1">
          <mxGeometry relative="1" as="geometry">
            <mxPoint x="3054" y="1720" as="targetPoint" />
            <Array as="points">
              <mxPoint x="3024" y="1740" />
              <mxPoint x="3084" y="1740" />
            </Array>
          </mxGeometry>
        </mxCell>
        <mxCell id="i7XcnwvfXEmZmaAKFHEr-204" value="upvotes/neutrals&lt;br&gt;(/downvotes) explanation" style="rounded=1;whiteSpace=wrap;html=1;" parent="1" vertex="1">
          <mxGeometry x="2994" y="1635" width="120" height="55" as="geometry" />
        </mxCell>
        <mxCell id="i7XcnwvfXEmZmaAKFHEr-208" value="These example user flows represent the &quot;lazy user&quot;, the user which does not have its own explanation but rather just observes and votes" style="text;html=1;resizable=0;autosize=1;align=center;verticalAlign=middle;points=[];fillColor=none;strokeColor=none;rounded=0;" parent="1" vertex="1">
          <mxGeometry x="-130" y="1105" width="740" height="20" as="geometry" />
        </mxCell>
      </root>
    </mxGraphModel>
  </diagram>
</mxfile>
